%TF.GenerationSoftware,KiCad,Pcbnew,8.0.3*%
%TF.CreationDate,2025-01-13T20:57:30+02:00*%
%TF.ProjectId,TMF,544d462e-6b69-4636-9164-5f7063625858,rev?*%
%TF.SameCoordinates,Original*%
%TF.FileFunction,Legend,Top*%
%TF.FilePolarity,Positive*%
%FSLAX46Y46*%
G04 Gerber Fmt 4.6, Leading zero omitted, Abs format (unit mm)*
G04 Created by KiCad (PCBNEW 8.0.3) date 2025-01-13 20:57:30*
%MOMM*%
%LPD*%
G01*
G04 APERTURE LIST*
%ADD10C,0.150000*%
%ADD11C,0.100000*%
%ADD12C,0.120000*%
%ADD13C,0.200000*%
G04 APERTURE END LIST*
D10*
X133004819Y-60371721D02*
X132528628Y-60705054D01*
X133004819Y-60943149D02*
X132004819Y-60943149D01*
X132004819Y-60943149D02*
X132004819Y-60562197D01*
X132004819Y-60562197D02*
X132052438Y-60466959D01*
X132052438Y-60466959D02*
X132100057Y-60419340D01*
X132100057Y-60419340D02*
X132195295Y-60371721D01*
X132195295Y-60371721D02*
X132338152Y-60371721D01*
X132338152Y-60371721D02*
X132433390Y-60419340D01*
X132433390Y-60419340D02*
X132481009Y-60466959D01*
X132481009Y-60466959D02*
X132528628Y-60562197D01*
X132528628Y-60562197D02*
X132528628Y-60943149D01*
X132338152Y-59514578D02*
X133004819Y-59514578D01*
X131957200Y-59752673D02*
X132671485Y-59990768D01*
X132671485Y-59990768D02*
X132671485Y-59371721D01*
X184004819Y-60421721D02*
X183528628Y-60755054D01*
X184004819Y-60993149D02*
X183004819Y-60993149D01*
X183004819Y-60993149D02*
X183004819Y-60612197D01*
X183004819Y-60612197D02*
X183052438Y-60516959D01*
X183052438Y-60516959D02*
X183100057Y-60469340D01*
X183100057Y-60469340D02*
X183195295Y-60421721D01*
X183195295Y-60421721D02*
X183338152Y-60421721D01*
X183338152Y-60421721D02*
X183433390Y-60469340D01*
X183433390Y-60469340D02*
X183481009Y-60516959D01*
X183481009Y-60516959D02*
X183528628Y-60612197D01*
X183528628Y-60612197D02*
X183528628Y-60993149D01*
X183338152Y-59564578D02*
X184004819Y-59564578D01*
X182957200Y-59802673D02*
X183671485Y-60040768D01*
X183671485Y-60040768D02*
X183671485Y-59421721D01*
X192854819Y-60421721D02*
X192378628Y-60755054D01*
X192854819Y-60993149D02*
X191854819Y-60993149D01*
X191854819Y-60993149D02*
X191854819Y-60612197D01*
X191854819Y-60612197D02*
X191902438Y-60516959D01*
X191902438Y-60516959D02*
X191950057Y-60469340D01*
X191950057Y-60469340D02*
X192045295Y-60421721D01*
X192045295Y-60421721D02*
X192188152Y-60421721D01*
X192188152Y-60421721D02*
X192283390Y-60469340D01*
X192283390Y-60469340D02*
X192331009Y-60516959D01*
X192331009Y-60516959D02*
X192378628Y-60612197D01*
X192378628Y-60612197D02*
X192378628Y-60993149D01*
X192854819Y-59469340D02*
X192854819Y-60040768D01*
X192854819Y-59755054D02*
X191854819Y-59755054D01*
X191854819Y-59755054D02*
X191997676Y-59850292D01*
X191997676Y-59850292D02*
X192092914Y-59945530D01*
X192092914Y-59945530D02*
X192140533Y-60040768D01*
X198359580Y-86521721D02*
X198407200Y-86569340D01*
X198407200Y-86569340D02*
X198454819Y-86712197D01*
X198454819Y-86712197D02*
X198454819Y-86807435D01*
X198454819Y-86807435D02*
X198407200Y-86950292D01*
X198407200Y-86950292D02*
X198311961Y-87045530D01*
X198311961Y-87045530D02*
X198216723Y-87093149D01*
X198216723Y-87093149D02*
X198026247Y-87140768D01*
X198026247Y-87140768D02*
X197883390Y-87140768D01*
X197883390Y-87140768D02*
X197692914Y-87093149D01*
X197692914Y-87093149D02*
X197597676Y-87045530D01*
X197597676Y-87045530D02*
X197502438Y-86950292D01*
X197502438Y-86950292D02*
X197454819Y-86807435D01*
X197454819Y-86807435D02*
X197454819Y-86712197D01*
X197454819Y-86712197D02*
X197502438Y-86569340D01*
X197502438Y-86569340D02*
X197550057Y-86521721D01*
X197550057Y-86140768D02*
X197502438Y-86093149D01*
X197502438Y-86093149D02*
X197454819Y-85997911D01*
X197454819Y-85997911D02*
X197454819Y-85759816D01*
X197454819Y-85759816D02*
X197502438Y-85664578D01*
X197502438Y-85664578D02*
X197550057Y-85616959D01*
X197550057Y-85616959D02*
X197645295Y-85569340D01*
X197645295Y-85569340D02*
X197740533Y-85569340D01*
X197740533Y-85569340D02*
X197883390Y-85616959D01*
X197883390Y-85616959D02*
X198454819Y-86188387D01*
X198454819Y-86188387D02*
X198454819Y-85569340D01*
D11*
X133738095Y-47638664D02*
X133404762Y-47638664D01*
X133404762Y-48162474D02*
X133404762Y-47162474D01*
X133404762Y-47162474D02*
X133880952Y-47162474D01*
X134119048Y-47162474D02*
X134690476Y-47162474D01*
X134404762Y-48162474D02*
X134404762Y-47162474D01*
X134976191Y-48114855D02*
X135119048Y-48162474D01*
X135119048Y-48162474D02*
X135357143Y-48162474D01*
X135357143Y-48162474D02*
X135452381Y-48114855D01*
X135452381Y-48114855D02*
X135500000Y-48067235D01*
X135500000Y-48067235D02*
X135547619Y-47971997D01*
X135547619Y-47971997D02*
X135547619Y-47876759D01*
X135547619Y-47876759D02*
X135500000Y-47781521D01*
X135500000Y-47781521D02*
X135452381Y-47733902D01*
X135452381Y-47733902D02*
X135357143Y-47686283D01*
X135357143Y-47686283D02*
X135166667Y-47638664D01*
X135166667Y-47638664D02*
X135071429Y-47591045D01*
X135071429Y-47591045D02*
X135023810Y-47543426D01*
X135023810Y-47543426D02*
X134976191Y-47448188D01*
X134976191Y-47448188D02*
X134976191Y-47352950D01*
X134976191Y-47352950D02*
X135023810Y-47257712D01*
X135023810Y-47257712D02*
X135071429Y-47210093D01*
X135071429Y-47210093D02*
X135166667Y-47162474D01*
X135166667Y-47162474D02*
X135404762Y-47162474D01*
X135404762Y-47162474D02*
X135547619Y-47210093D01*
X135880953Y-47162474D02*
X136119048Y-48162474D01*
X136119048Y-48162474D02*
X136309524Y-47448188D01*
X136309524Y-47448188D02*
X136500000Y-48162474D01*
X136500000Y-48162474D02*
X136738096Y-47162474D01*
X137642857Y-48162474D02*
X137071429Y-48162474D01*
X137357143Y-48162474D02*
X137357143Y-47162474D01*
X137357143Y-47162474D02*
X137261905Y-47305331D01*
X137261905Y-47305331D02*
X137166667Y-47400569D01*
X137166667Y-47400569D02*
X137071429Y-47448188D01*
D10*
X138904819Y-94221721D02*
X138428628Y-94555054D01*
X138904819Y-94793149D02*
X137904819Y-94793149D01*
X137904819Y-94793149D02*
X137904819Y-94412197D01*
X137904819Y-94412197D02*
X137952438Y-94316959D01*
X137952438Y-94316959D02*
X138000057Y-94269340D01*
X138000057Y-94269340D02*
X138095295Y-94221721D01*
X138095295Y-94221721D02*
X138238152Y-94221721D01*
X138238152Y-94221721D02*
X138333390Y-94269340D01*
X138333390Y-94269340D02*
X138381009Y-94316959D01*
X138381009Y-94316959D02*
X138428628Y-94412197D01*
X138428628Y-94412197D02*
X138428628Y-94793149D01*
X138000057Y-93840768D02*
X137952438Y-93793149D01*
X137952438Y-93793149D02*
X137904819Y-93697911D01*
X137904819Y-93697911D02*
X137904819Y-93459816D01*
X137904819Y-93459816D02*
X137952438Y-93364578D01*
X137952438Y-93364578D02*
X138000057Y-93316959D01*
X138000057Y-93316959D02*
X138095295Y-93269340D01*
X138095295Y-93269340D02*
X138190533Y-93269340D01*
X138190533Y-93269340D02*
X138333390Y-93316959D01*
X138333390Y-93316959D02*
X138904819Y-93888387D01*
X138904819Y-93888387D02*
X138904819Y-93269340D01*
X119056905Y-82849874D02*
X119056905Y-81849874D01*
X119056905Y-81849874D02*
X119295000Y-81849874D01*
X119295000Y-81849874D02*
X119437857Y-81897493D01*
X119437857Y-81897493D02*
X119533095Y-81992731D01*
X119533095Y-81992731D02*
X119580714Y-82087969D01*
X119580714Y-82087969D02*
X119628333Y-82278445D01*
X119628333Y-82278445D02*
X119628333Y-82421302D01*
X119628333Y-82421302D02*
X119580714Y-82611778D01*
X119580714Y-82611778D02*
X119533095Y-82707016D01*
X119533095Y-82707016D02*
X119437857Y-82802255D01*
X119437857Y-82802255D02*
X119295000Y-82849874D01*
X119295000Y-82849874D02*
X119056905Y-82849874D01*
X120580714Y-82849874D02*
X120009286Y-82849874D01*
X120295000Y-82849874D02*
X120295000Y-81849874D01*
X120295000Y-81849874D02*
X120199762Y-81992731D01*
X120199762Y-81992731D02*
X120104524Y-82087969D01*
X120104524Y-82087969D02*
X120009286Y-82135588D01*
X147359580Y-44071721D02*
X147407200Y-44119340D01*
X147407200Y-44119340D02*
X147454819Y-44262197D01*
X147454819Y-44262197D02*
X147454819Y-44357435D01*
X147454819Y-44357435D02*
X147407200Y-44500292D01*
X147407200Y-44500292D02*
X147311961Y-44595530D01*
X147311961Y-44595530D02*
X147216723Y-44643149D01*
X147216723Y-44643149D02*
X147026247Y-44690768D01*
X147026247Y-44690768D02*
X146883390Y-44690768D01*
X146883390Y-44690768D02*
X146692914Y-44643149D01*
X146692914Y-44643149D02*
X146597676Y-44595530D01*
X146597676Y-44595530D02*
X146502438Y-44500292D01*
X146502438Y-44500292D02*
X146454819Y-44357435D01*
X146454819Y-44357435D02*
X146454819Y-44262197D01*
X146454819Y-44262197D02*
X146502438Y-44119340D01*
X146502438Y-44119340D02*
X146550057Y-44071721D01*
X147454819Y-43119340D02*
X147454819Y-43690768D01*
X147454819Y-43405054D02*
X146454819Y-43405054D01*
X146454819Y-43405054D02*
X146597676Y-43500292D01*
X146597676Y-43500292D02*
X146692914Y-43595530D01*
X146692914Y-43595530D02*
X146740533Y-43690768D01*
X147359580Y-111766666D02*
X147407200Y-111814285D01*
X147407200Y-111814285D02*
X147454819Y-111957142D01*
X147454819Y-111957142D02*
X147454819Y-112052380D01*
X147454819Y-112052380D02*
X147407200Y-112195237D01*
X147407200Y-112195237D02*
X147311961Y-112290475D01*
X147311961Y-112290475D02*
X147216723Y-112338094D01*
X147216723Y-112338094D02*
X147026247Y-112385713D01*
X147026247Y-112385713D02*
X146883390Y-112385713D01*
X146883390Y-112385713D02*
X146692914Y-112338094D01*
X146692914Y-112338094D02*
X146597676Y-112290475D01*
X146597676Y-112290475D02*
X146502438Y-112195237D01*
X146502438Y-112195237D02*
X146454819Y-112052380D01*
X146454819Y-112052380D02*
X146454819Y-111957142D01*
X146454819Y-111957142D02*
X146502438Y-111814285D01*
X146502438Y-111814285D02*
X146550057Y-111766666D01*
X147454819Y-110814285D02*
X147454819Y-111385713D01*
X147454819Y-111099999D02*
X146454819Y-111099999D01*
X146454819Y-111099999D02*
X146597676Y-111195237D01*
X146597676Y-111195237D02*
X146692914Y-111290475D01*
X146692914Y-111290475D02*
X146740533Y-111385713D01*
X119056905Y-74249874D02*
X119056905Y-73249874D01*
X119056905Y-73249874D02*
X119295000Y-73249874D01*
X119295000Y-73249874D02*
X119437857Y-73297493D01*
X119437857Y-73297493D02*
X119533095Y-73392731D01*
X119533095Y-73392731D02*
X119580714Y-73487969D01*
X119580714Y-73487969D02*
X119628333Y-73678445D01*
X119628333Y-73678445D02*
X119628333Y-73821302D01*
X119628333Y-73821302D02*
X119580714Y-74011778D01*
X119580714Y-74011778D02*
X119533095Y-74107016D01*
X119533095Y-74107016D02*
X119437857Y-74202255D01*
X119437857Y-74202255D02*
X119295000Y-74249874D01*
X119295000Y-74249874D02*
X119056905Y-74249874D01*
X120009286Y-73345112D02*
X120056905Y-73297493D01*
X120056905Y-73297493D02*
X120152143Y-73249874D01*
X120152143Y-73249874D02*
X120390238Y-73249874D01*
X120390238Y-73249874D02*
X120485476Y-73297493D01*
X120485476Y-73297493D02*
X120533095Y-73345112D01*
X120533095Y-73345112D02*
X120580714Y-73440350D01*
X120580714Y-73440350D02*
X120580714Y-73535588D01*
X120580714Y-73535588D02*
X120533095Y-73678445D01*
X120533095Y-73678445D02*
X119961667Y-74249874D01*
X119961667Y-74249874D02*
X120580714Y-74249874D01*
X119056905Y-48999874D02*
X119056905Y-47999874D01*
X119056905Y-47999874D02*
X119295000Y-47999874D01*
X119295000Y-47999874D02*
X119437857Y-48047493D01*
X119437857Y-48047493D02*
X119533095Y-48142731D01*
X119533095Y-48142731D02*
X119580714Y-48237969D01*
X119580714Y-48237969D02*
X119628333Y-48428445D01*
X119628333Y-48428445D02*
X119628333Y-48571302D01*
X119628333Y-48571302D02*
X119580714Y-48761778D01*
X119580714Y-48761778D02*
X119533095Y-48857016D01*
X119533095Y-48857016D02*
X119437857Y-48952255D01*
X119437857Y-48952255D02*
X119295000Y-48999874D01*
X119295000Y-48999874D02*
X119056905Y-48999874D01*
X120580714Y-48999874D02*
X120009286Y-48999874D01*
X120295000Y-48999874D02*
X120295000Y-47999874D01*
X120295000Y-47999874D02*
X120199762Y-48142731D01*
X120199762Y-48142731D02*
X120104524Y-48237969D01*
X120104524Y-48237969D02*
X120009286Y-48285588D01*
X119056905Y-116694819D02*
X119056905Y-115694819D01*
X119056905Y-115694819D02*
X119295000Y-115694819D01*
X119295000Y-115694819D02*
X119437857Y-115742438D01*
X119437857Y-115742438D02*
X119533095Y-115837676D01*
X119533095Y-115837676D02*
X119580714Y-115932914D01*
X119580714Y-115932914D02*
X119628333Y-116123390D01*
X119628333Y-116123390D02*
X119628333Y-116266247D01*
X119628333Y-116266247D02*
X119580714Y-116456723D01*
X119580714Y-116456723D02*
X119533095Y-116551961D01*
X119533095Y-116551961D02*
X119437857Y-116647200D01*
X119437857Y-116647200D02*
X119295000Y-116694819D01*
X119295000Y-116694819D02*
X119056905Y-116694819D01*
X120580714Y-116694819D02*
X120009286Y-116694819D01*
X120295000Y-116694819D02*
X120295000Y-115694819D01*
X120295000Y-115694819D02*
X120199762Y-115837676D01*
X120199762Y-115837676D02*
X120104524Y-115932914D01*
X120104524Y-115932914D02*
X120009286Y-115980533D01*
D11*
X184738095Y-115338664D02*
X184404762Y-115338664D01*
X184404762Y-115862474D02*
X184404762Y-114862474D01*
X184404762Y-114862474D02*
X184880952Y-114862474D01*
X185119048Y-114862474D02*
X185690476Y-114862474D01*
X185404762Y-115862474D02*
X185404762Y-114862474D01*
X185976191Y-115814855D02*
X186119048Y-115862474D01*
X186119048Y-115862474D02*
X186357143Y-115862474D01*
X186357143Y-115862474D02*
X186452381Y-115814855D01*
X186452381Y-115814855D02*
X186500000Y-115767235D01*
X186500000Y-115767235D02*
X186547619Y-115671997D01*
X186547619Y-115671997D02*
X186547619Y-115576759D01*
X186547619Y-115576759D02*
X186500000Y-115481521D01*
X186500000Y-115481521D02*
X186452381Y-115433902D01*
X186452381Y-115433902D02*
X186357143Y-115386283D01*
X186357143Y-115386283D02*
X186166667Y-115338664D01*
X186166667Y-115338664D02*
X186071429Y-115291045D01*
X186071429Y-115291045D02*
X186023810Y-115243426D01*
X186023810Y-115243426D02*
X185976191Y-115148188D01*
X185976191Y-115148188D02*
X185976191Y-115052950D01*
X185976191Y-115052950D02*
X186023810Y-114957712D01*
X186023810Y-114957712D02*
X186071429Y-114910093D01*
X186071429Y-114910093D02*
X186166667Y-114862474D01*
X186166667Y-114862474D02*
X186404762Y-114862474D01*
X186404762Y-114862474D02*
X186547619Y-114910093D01*
X186880953Y-114862474D02*
X187119048Y-115862474D01*
X187119048Y-115862474D02*
X187309524Y-115148188D01*
X187309524Y-115148188D02*
X187500000Y-115862474D01*
X187500000Y-115862474D02*
X187738096Y-114862474D01*
X188642857Y-115862474D02*
X188071429Y-115862474D01*
X188357143Y-115862474D02*
X188357143Y-114862474D01*
X188357143Y-114862474D02*
X188261905Y-115005331D01*
X188261905Y-115005331D02*
X188166667Y-115100569D01*
X188166667Y-115100569D02*
X188071429Y-115148188D01*
D10*
X192854819Y-94221721D02*
X192378628Y-94555054D01*
X192854819Y-94793149D02*
X191854819Y-94793149D01*
X191854819Y-94793149D02*
X191854819Y-94412197D01*
X191854819Y-94412197D02*
X191902438Y-94316959D01*
X191902438Y-94316959D02*
X191950057Y-94269340D01*
X191950057Y-94269340D02*
X192045295Y-94221721D01*
X192045295Y-94221721D02*
X192188152Y-94221721D01*
X192188152Y-94221721D02*
X192283390Y-94269340D01*
X192283390Y-94269340D02*
X192331009Y-94316959D01*
X192331009Y-94316959D02*
X192378628Y-94412197D01*
X192378628Y-94412197D02*
X192378628Y-94793149D01*
X192854819Y-93269340D02*
X192854819Y-93840768D01*
X192854819Y-93555054D02*
X191854819Y-93555054D01*
X191854819Y-93555054D02*
X191997676Y-93650292D01*
X191997676Y-93650292D02*
X192092914Y-93745530D01*
X192092914Y-93745530D02*
X192140533Y-93840768D01*
X140763333Y-38800235D02*
X140763333Y-38085950D01*
X140763333Y-38085950D02*
X140810952Y-37943093D01*
X140810952Y-37943093D02*
X140906190Y-37847855D01*
X140906190Y-37847855D02*
X141049047Y-37800235D01*
X141049047Y-37800235D02*
X141144285Y-37800235D01*
X140334761Y-38704997D02*
X140287142Y-38752616D01*
X140287142Y-38752616D02*
X140191904Y-38800235D01*
X140191904Y-38800235D02*
X139953809Y-38800235D01*
X139953809Y-38800235D02*
X139858571Y-38752616D01*
X139858571Y-38752616D02*
X139810952Y-38704997D01*
X139810952Y-38704997D02*
X139763333Y-38609759D01*
X139763333Y-38609759D02*
X139763333Y-38514521D01*
X139763333Y-38514521D02*
X139810952Y-38371664D01*
X139810952Y-38371664D02*
X140382380Y-37800235D01*
X140382380Y-37800235D02*
X139763333Y-37800235D01*
X141854819Y-128066666D02*
X141378628Y-128399999D01*
X141854819Y-128638094D02*
X140854819Y-128638094D01*
X140854819Y-128638094D02*
X140854819Y-128257142D01*
X140854819Y-128257142D02*
X140902438Y-128161904D01*
X140902438Y-128161904D02*
X140950057Y-128114285D01*
X140950057Y-128114285D02*
X141045295Y-128066666D01*
X141045295Y-128066666D02*
X141188152Y-128066666D01*
X141188152Y-128066666D02*
X141283390Y-128114285D01*
X141283390Y-128114285D02*
X141331009Y-128161904D01*
X141331009Y-128161904D02*
X141378628Y-128257142D01*
X141378628Y-128257142D02*
X141378628Y-128638094D01*
X141854819Y-127114285D02*
X141854819Y-127685713D01*
X141854819Y-127399999D02*
X140854819Y-127399999D01*
X140854819Y-127399999D02*
X140997676Y-127495237D01*
X140997676Y-127495237D02*
X141092914Y-127590475D01*
X141092914Y-127590475D02*
X141140533Y-127685713D01*
X181983333Y-38750235D02*
X181983333Y-38035950D01*
X181983333Y-38035950D02*
X182030952Y-37893093D01*
X182030952Y-37893093D02*
X182126190Y-37797855D01*
X182126190Y-37797855D02*
X182269047Y-37750235D01*
X182269047Y-37750235D02*
X182364285Y-37750235D01*
X180983333Y-37750235D02*
X181554761Y-37750235D01*
X181269047Y-37750235D02*
X181269047Y-38750235D01*
X181269047Y-38750235D02*
X181364285Y-38607378D01*
X181364285Y-38607378D02*
X181459523Y-38512140D01*
X181459523Y-38512140D02*
X181554761Y-38464521D01*
X130983333Y-38700235D02*
X130983333Y-37985950D01*
X130983333Y-37985950D02*
X131030952Y-37843093D01*
X131030952Y-37843093D02*
X131126190Y-37747855D01*
X131126190Y-37747855D02*
X131269047Y-37700235D01*
X131269047Y-37700235D02*
X131364285Y-37700235D01*
X129983333Y-37700235D02*
X130554761Y-37700235D01*
X130269047Y-37700235D02*
X130269047Y-38700235D01*
X130269047Y-38700235D02*
X130364285Y-38557378D01*
X130364285Y-38557378D02*
X130459523Y-38462140D01*
X130459523Y-38462140D02*
X130554761Y-38414521D01*
X170056905Y-116699874D02*
X170056905Y-115699874D01*
X170056905Y-115699874D02*
X170295000Y-115699874D01*
X170295000Y-115699874D02*
X170437857Y-115747493D01*
X170437857Y-115747493D02*
X170533095Y-115842731D01*
X170533095Y-115842731D02*
X170580714Y-115937969D01*
X170580714Y-115937969D02*
X170628333Y-116128445D01*
X170628333Y-116128445D02*
X170628333Y-116271302D01*
X170628333Y-116271302D02*
X170580714Y-116461778D01*
X170580714Y-116461778D02*
X170533095Y-116557016D01*
X170533095Y-116557016D02*
X170437857Y-116652255D01*
X170437857Y-116652255D02*
X170295000Y-116699874D01*
X170295000Y-116699874D02*
X170056905Y-116699874D01*
X171580714Y-116699874D02*
X171009286Y-116699874D01*
X171295000Y-116699874D02*
X171295000Y-115699874D01*
X171295000Y-115699874D02*
X171199762Y-115842731D01*
X171199762Y-115842731D02*
X171104524Y-115937969D01*
X171104524Y-115937969D02*
X171009286Y-115985588D01*
X181983333Y-106400235D02*
X181983333Y-105685950D01*
X181983333Y-105685950D02*
X182030952Y-105543093D01*
X182030952Y-105543093D02*
X182126190Y-105447855D01*
X182126190Y-105447855D02*
X182269047Y-105400235D01*
X182269047Y-105400235D02*
X182364285Y-105400235D01*
X180983333Y-105400235D02*
X181554761Y-105400235D01*
X181269047Y-105400235D02*
X181269047Y-106400235D01*
X181269047Y-106400235D02*
X181364285Y-106257378D01*
X181364285Y-106257378D02*
X181459523Y-106162140D01*
X181459523Y-106162140D02*
X181554761Y-106114521D01*
X189904819Y-94221721D02*
X189428628Y-94555054D01*
X189904819Y-94793149D02*
X188904819Y-94793149D01*
X188904819Y-94793149D02*
X188904819Y-94412197D01*
X188904819Y-94412197D02*
X188952438Y-94316959D01*
X188952438Y-94316959D02*
X189000057Y-94269340D01*
X189000057Y-94269340D02*
X189095295Y-94221721D01*
X189095295Y-94221721D02*
X189238152Y-94221721D01*
X189238152Y-94221721D02*
X189333390Y-94269340D01*
X189333390Y-94269340D02*
X189381009Y-94316959D01*
X189381009Y-94316959D02*
X189428628Y-94412197D01*
X189428628Y-94412197D02*
X189428628Y-94793149D01*
X189000057Y-93840768D02*
X188952438Y-93793149D01*
X188952438Y-93793149D02*
X188904819Y-93697911D01*
X188904819Y-93697911D02*
X188904819Y-93459816D01*
X188904819Y-93459816D02*
X188952438Y-93364578D01*
X188952438Y-93364578D02*
X189000057Y-93316959D01*
X189000057Y-93316959D02*
X189095295Y-93269340D01*
X189095295Y-93269340D02*
X189190533Y-93269340D01*
X189190533Y-93269340D02*
X189333390Y-93316959D01*
X189333390Y-93316959D02*
X189904819Y-93888387D01*
X189904819Y-93888387D02*
X189904819Y-93269340D01*
X119056905Y-40399874D02*
X119056905Y-39399874D01*
X119056905Y-39399874D02*
X119295000Y-39399874D01*
X119295000Y-39399874D02*
X119437857Y-39447493D01*
X119437857Y-39447493D02*
X119533095Y-39542731D01*
X119533095Y-39542731D02*
X119580714Y-39637969D01*
X119580714Y-39637969D02*
X119628333Y-39828445D01*
X119628333Y-39828445D02*
X119628333Y-39971302D01*
X119628333Y-39971302D02*
X119580714Y-40161778D01*
X119580714Y-40161778D02*
X119533095Y-40257016D01*
X119533095Y-40257016D02*
X119437857Y-40352255D01*
X119437857Y-40352255D02*
X119295000Y-40399874D01*
X119295000Y-40399874D02*
X119056905Y-40399874D01*
X120009286Y-39495112D02*
X120056905Y-39447493D01*
X120056905Y-39447493D02*
X120152143Y-39399874D01*
X120152143Y-39399874D02*
X120390238Y-39399874D01*
X120390238Y-39399874D02*
X120485476Y-39447493D01*
X120485476Y-39447493D02*
X120533095Y-39495112D01*
X120533095Y-39495112D02*
X120580714Y-39590350D01*
X120580714Y-39590350D02*
X120580714Y-39685588D01*
X120580714Y-39685588D02*
X120533095Y-39828445D01*
X120533095Y-39828445D02*
X119961667Y-40399874D01*
X119961667Y-40399874D02*
X120580714Y-40399874D01*
D11*
X133738095Y-115333609D02*
X133404762Y-115333609D01*
X133404762Y-115857419D02*
X133404762Y-114857419D01*
X133404762Y-114857419D02*
X133880952Y-114857419D01*
X134119048Y-114857419D02*
X134690476Y-114857419D01*
X134404762Y-115857419D02*
X134404762Y-114857419D01*
X134976191Y-115809800D02*
X135119048Y-115857419D01*
X135119048Y-115857419D02*
X135357143Y-115857419D01*
X135357143Y-115857419D02*
X135452381Y-115809800D01*
X135452381Y-115809800D02*
X135500000Y-115762180D01*
X135500000Y-115762180D02*
X135547619Y-115666942D01*
X135547619Y-115666942D02*
X135547619Y-115571704D01*
X135547619Y-115571704D02*
X135500000Y-115476466D01*
X135500000Y-115476466D02*
X135452381Y-115428847D01*
X135452381Y-115428847D02*
X135357143Y-115381228D01*
X135357143Y-115381228D02*
X135166667Y-115333609D01*
X135166667Y-115333609D02*
X135071429Y-115285990D01*
X135071429Y-115285990D02*
X135023810Y-115238371D01*
X135023810Y-115238371D02*
X134976191Y-115143133D01*
X134976191Y-115143133D02*
X134976191Y-115047895D01*
X134976191Y-115047895D02*
X135023810Y-114952657D01*
X135023810Y-114952657D02*
X135071429Y-114905038D01*
X135071429Y-114905038D02*
X135166667Y-114857419D01*
X135166667Y-114857419D02*
X135404762Y-114857419D01*
X135404762Y-114857419D02*
X135547619Y-114905038D01*
X135880953Y-114857419D02*
X136119048Y-115857419D01*
X136119048Y-115857419D02*
X136309524Y-115143133D01*
X136309524Y-115143133D02*
X136500000Y-115857419D01*
X136500000Y-115857419D02*
X136738096Y-114857419D01*
X137642857Y-115857419D02*
X137071429Y-115857419D01*
X137357143Y-115857419D02*
X137357143Y-114857419D01*
X137357143Y-114857419D02*
X137261905Y-115000276D01*
X137261905Y-115000276D02*
X137166667Y-115095514D01*
X137166667Y-115095514D02*
X137071429Y-115143133D01*
D10*
X147359580Y-77921721D02*
X147407200Y-77969340D01*
X147407200Y-77969340D02*
X147454819Y-78112197D01*
X147454819Y-78112197D02*
X147454819Y-78207435D01*
X147454819Y-78207435D02*
X147407200Y-78350292D01*
X147407200Y-78350292D02*
X147311961Y-78445530D01*
X147311961Y-78445530D02*
X147216723Y-78493149D01*
X147216723Y-78493149D02*
X147026247Y-78540768D01*
X147026247Y-78540768D02*
X146883390Y-78540768D01*
X146883390Y-78540768D02*
X146692914Y-78493149D01*
X146692914Y-78493149D02*
X146597676Y-78445530D01*
X146597676Y-78445530D02*
X146502438Y-78350292D01*
X146502438Y-78350292D02*
X146454819Y-78207435D01*
X146454819Y-78207435D02*
X146454819Y-78112197D01*
X146454819Y-78112197D02*
X146502438Y-77969340D01*
X146502438Y-77969340D02*
X146550057Y-77921721D01*
X147454819Y-76969340D02*
X147454819Y-77540768D01*
X147454819Y-77255054D02*
X146454819Y-77255054D01*
X146454819Y-77255054D02*
X146597676Y-77350292D01*
X146597676Y-77350292D02*
X146692914Y-77445530D01*
X146692914Y-77445530D02*
X146740533Y-77540768D01*
X138904819Y-60371721D02*
X138428628Y-60705054D01*
X138904819Y-60943149D02*
X137904819Y-60943149D01*
X137904819Y-60943149D02*
X137904819Y-60562197D01*
X137904819Y-60562197D02*
X137952438Y-60466959D01*
X137952438Y-60466959D02*
X138000057Y-60419340D01*
X138000057Y-60419340D02*
X138095295Y-60371721D01*
X138095295Y-60371721D02*
X138238152Y-60371721D01*
X138238152Y-60371721D02*
X138333390Y-60419340D01*
X138333390Y-60419340D02*
X138381009Y-60466959D01*
X138381009Y-60466959D02*
X138428628Y-60562197D01*
X138428628Y-60562197D02*
X138428628Y-60943149D01*
X138000057Y-59990768D02*
X137952438Y-59943149D01*
X137952438Y-59943149D02*
X137904819Y-59847911D01*
X137904819Y-59847911D02*
X137904819Y-59609816D01*
X137904819Y-59609816D02*
X137952438Y-59514578D01*
X137952438Y-59514578D02*
X138000057Y-59466959D01*
X138000057Y-59466959D02*
X138095295Y-59419340D01*
X138095295Y-59419340D02*
X138190533Y-59419340D01*
X138190533Y-59419340D02*
X138333390Y-59466959D01*
X138333390Y-59466959D02*
X138904819Y-60038387D01*
X138904819Y-60038387D02*
X138904819Y-59419340D01*
X184004819Y-128071721D02*
X183528628Y-128405054D01*
X184004819Y-128643149D02*
X183004819Y-128643149D01*
X183004819Y-128643149D02*
X183004819Y-128262197D01*
X183004819Y-128262197D02*
X183052438Y-128166959D01*
X183052438Y-128166959D02*
X183100057Y-128119340D01*
X183100057Y-128119340D02*
X183195295Y-128071721D01*
X183195295Y-128071721D02*
X183338152Y-128071721D01*
X183338152Y-128071721D02*
X183433390Y-128119340D01*
X183433390Y-128119340D02*
X183481009Y-128166959D01*
X183481009Y-128166959D02*
X183528628Y-128262197D01*
X183528628Y-128262197D02*
X183528628Y-128643149D01*
X183338152Y-127214578D02*
X184004819Y-127214578D01*
X182957200Y-127452673D02*
X183671485Y-127690768D01*
X183671485Y-127690768D02*
X183671485Y-127071721D01*
D11*
X184738095Y-47688664D02*
X184404762Y-47688664D01*
X184404762Y-48212474D02*
X184404762Y-47212474D01*
X184404762Y-47212474D02*
X184880952Y-47212474D01*
X185119048Y-47212474D02*
X185690476Y-47212474D01*
X185404762Y-48212474D02*
X185404762Y-47212474D01*
X185976191Y-48164855D02*
X186119048Y-48212474D01*
X186119048Y-48212474D02*
X186357143Y-48212474D01*
X186357143Y-48212474D02*
X186452381Y-48164855D01*
X186452381Y-48164855D02*
X186500000Y-48117235D01*
X186500000Y-48117235D02*
X186547619Y-48021997D01*
X186547619Y-48021997D02*
X186547619Y-47926759D01*
X186547619Y-47926759D02*
X186500000Y-47831521D01*
X186500000Y-47831521D02*
X186452381Y-47783902D01*
X186452381Y-47783902D02*
X186357143Y-47736283D01*
X186357143Y-47736283D02*
X186166667Y-47688664D01*
X186166667Y-47688664D02*
X186071429Y-47641045D01*
X186071429Y-47641045D02*
X186023810Y-47593426D01*
X186023810Y-47593426D02*
X185976191Y-47498188D01*
X185976191Y-47498188D02*
X185976191Y-47402950D01*
X185976191Y-47402950D02*
X186023810Y-47307712D01*
X186023810Y-47307712D02*
X186071429Y-47260093D01*
X186071429Y-47260093D02*
X186166667Y-47212474D01*
X186166667Y-47212474D02*
X186404762Y-47212474D01*
X186404762Y-47212474D02*
X186547619Y-47260093D01*
X186880953Y-47212474D02*
X187119048Y-48212474D01*
X187119048Y-48212474D02*
X187309524Y-47498188D01*
X187309524Y-47498188D02*
X187500000Y-48212474D01*
X187500000Y-48212474D02*
X187738096Y-47212474D01*
X188642857Y-48212474D02*
X188071429Y-48212474D01*
X188357143Y-48212474D02*
X188357143Y-47212474D01*
X188357143Y-47212474D02*
X188261905Y-47355331D01*
X188261905Y-47355331D02*
X188166667Y-47450569D01*
X188166667Y-47450569D02*
X188071429Y-47498188D01*
D10*
X186954819Y-94221721D02*
X186478628Y-94555054D01*
X186954819Y-94793149D02*
X185954819Y-94793149D01*
X185954819Y-94793149D02*
X185954819Y-94412197D01*
X185954819Y-94412197D02*
X186002438Y-94316959D01*
X186002438Y-94316959D02*
X186050057Y-94269340D01*
X186050057Y-94269340D02*
X186145295Y-94221721D01*
X186145295Y-94221721D02*
X186288152Y-94221721D01*
X186288152Y-94221721D02*
X186383390Y-94269340D01*
X186383390Y-94269340D02*
X186431009Y-94316959D01*
X186431009Y-94316959D02*
X186478628Y-94412197D01*
X186478628Y-94412197D02*
X186478628Y-94793149D01*
X185954819Y-93888387D02*
X185954819Y-93269340D01*
X185954819Y-93269340D02*
X186335771Y-93602673D01*
X186335771Y-93602673D02*
X186335771Y-93459816D01*
X186335771Y-93459816D02*
X186383390Y-93364578D01*
X186383390Y-93364578D02*
X186431009Y-93316959D01*
X186431009Y-93316959D02*
X186526247Y-93269340D01*
X186526247Y-93269340D02*
X186764342Y-93269340D01*
X186764342Y-93269340D02*
X186859580Y-93316959D01*
X186859580Y-93316959D02*
X186907200Y-93364578D01*
X186907200Y-93364578D02*
X186954819Y-93459816D01*
X186954819Y-93459816D02*
X186954819Y-93745530D01*
X186954819Y-93745530D02*
X186907200Y-93840768D01*
X186907200Y-93840768D02*
X186859580Y-93888387D01*
X198359580Y-111771721D02*
X198407200Y-111819340D01*
X198407200Y-111819340D02*
X198454819Y-111962197D01*
X198454819Y-111962197D02*
X198454819Y-112057435D01*
X198454819Y-112057435D02*
X198407200Y-112200292D01*
X198407200Y-112200292D02*
X198311961Y-112295530D01*
X198311961Y-112295530D02*
X198216723Y-112343149D01*
X198216723Y-112343149D02*
X198026247Y-112390768D01*
X198026247Y-112390768D02*
X197883390Y-112390768D01*
X197883390Y-112390768D02*
X197692914Y-112343149D01*
X197692914Y-112343149D02*
X197597676Y-112295530D01*
X197597676Y-112295530D02*
X197502438Y-112200292D01*
X197502438Y-112200292D02*
X197454819Y-112057435D01*
X197454819Y-112057435D02*
X197454819Y-111962197D01*
X197454819Y-111962197D02*
X197502438Y-111819340D01*
X197502438Y-111819340D02*
X197550057Y-111771721D01*
X198454819Y-110819340D02*
X198454819Y-111390768D01*
X198454819Y-111105054D02*
X197454819Y-111105054D01*
X197454819Y-111105054D02*
X197597676Y-111200292D01*
X197597676Y-111200292D02*
X197692914Y-111295530D01*
X197692914Y-111295530D02*
X197740533Y-111390768D01*
X133004819Y-94221721D02*
X132528628Y-94555054D01*
X133004819Y-94793149D02*
X132004819Y-94793149D01*
X132004819Y-94793149D02*
X132004819Y-94412197D01*
X132004819Y-94412197D02*
X132052438Y-94316959D01*
X132052438Y-94316959D02*
X132100057Y-94269340D01*
X132100057Y-94269340D02*
X132195295Y-94221721D01*
X132195295Y-94221721D02*
X132338152Y-94221721D01*
X132338152Y-94221721D02*
X132433390Y-94269340D01*
X132433390Y-94269340D02*
X132481009Y-94316959D01*
X132481009Y-94316959D02*
X132528628Y-94412197D01*
X132528628Y-94412197D02*
X132528628Y-94793149D01*
X132338152Y-93364578D02*
X133004819Y-93364578D01*
X131957200Y-93602673D02*
X132671485Y-93840768D01*
X132671485Y-93840768D02*
X132671485Y-93221721D01*
X189904819Y-128071721D02*
X189428628Y-128405054D01*
X189904819Y-128643149D02*
X188904819Y-128643149D01*
X188904819Y-128643149D02*
X188904819Y-128262197D01*
X188904819Y-128262197D02*
X188952438Y-128166959D01*
X188952438Y-128166959D02*
X189000057Y-128119340D01*
X189000057Y-128119340D02*
X189095295Y-128071721D01*
X189095295Y-128071721D02*
X189238152Y-128071721D01*
X189238152Y-128071721D02*
X189333390Y-128119340D01*
X189333390Y-128119340D02*
X189381009Y-128166959D01*
X189381009Y-128166959D02*
X189428628Y-128262197D01*
X189428628Y-128262197D02*
X189428628Y-128643149D01*
X189000057Y-127690768D02*
X188952438Y-127643149D01*
X188952438Y-127643149D02*
X188904819Y-127547911D01*
X188904819Y-127547911D02*
X188904819Y-127309816D01*
X188904819Y-127309816D02*
X188952438Y-127214578D01*
X188952438Y-127214578D02*
X189000057Y-127166959D01*
X189000057Y-127166959D02*
X189095295Y-127119340D01*
X189095295Y-127119340D02*
X189190533Y-127119340D01*
X189190533Y-127119340D02*
X189333390Y-127166959D01*
X189333390Y-127166959D02*
X189904819Y-127738387D01*
X189904819Y-127738387D02*
X189904819Y-127119340D01*
X191763333Y-38850235D02*
X191763333Y-38135950D01*
X191763333Y-38135950D02*
X191810952Y-37993093D01*
X191810952Y-37993093D02*
X191906190Y-37897855D01*
X191906190Y-37897855D02*
X192049047Y-37850235D01*
X192049047Y-37850235D02*
X192144285Y-37850235D01*
X191334761Y-38754997D02*
X191287142Y-38802616D01*
X191287142Y-38802616D02*
X191191904Y-38850235D01*
X191191904Y-38850235D02*
X190953809Y-38850235D01*
X190953809Y-38850235D02*
X190858571Y-38802616D01*
X190858571Y-38802616D02*
X190810952Y-38754997D01*
X190810952Y-38754997D02*
X190763333Y-38659759D01*
X190763333Y-38659759D02*
X190763333Y-38564521D01*
X190763333Y-38564521D02*
X190810952Y-38421664D01*
X190810952Y-38421664D02*
X191382380Y-37850235D01*
X191382380Y-37850235D02*
X190763333Y-37850235D01*
X198359580Y-44121721D02*
X198407200Y-44169340D01*
X198407200Y-44169340D02*
X198454819Y-44312197D01*
X198454819Y-44312197D02*
X198454819Y-44407435D01*
X198454819Y-44407435D02*
X198407200Y-44550292D01*
X198407200Y-44550292D02*
X198311961Y-44645530D01*
X198311961Y-44645530D02*
X198216723Y-44693149D01*
X198216723Y-44693149D02*
X198026247Y-44740768D01*
X198026247Y-44740768D02*
X197883390Y-44740768D01*
X197883390Y-44740768D02*
X197692914Y-44693149D01*
X197692914Y-44693149D02*
X197597676Y-44645530D01*
X197597676Y-44645530D02*
X197502438Y-44550292D01*
X197502438Y-44550292D02*
X197454819Y-44407435D01*
X197454819Y-44407435D02*
X197454819Y-44312197D01*
X197454819Y-44312197D02*
X197502438Y-44169340D01*
X197502438Y-44169340D02*
X197550057Y-44121721D01*
X198454819Y-43169340D02*
X198454819Y-43740768D01*
X198454819Y-43455054D02*
X197454819Y-43455054D01*
X197454819Y-43455054D02*
X197597676Y-43550292D01*
X197597676Y-43550292D02*
X197692914Y-43645530D01*
X197692914Y-43645530D02*
X197740533Y-43740768D01*
X138904819Y-128066666D02*
X138428628Y-128399999D01*
X138904819Y-128638094D02*
X137904819Y-128638094D01*
X137904819Y-128638094D02*
X137904819Y-128257142D01*
X137904819Y-128257142D02*
X137952438Y-128161904D01*
X137952438Y-128161904D02*
X138000057Y-128114285D01*
X138000057Y-128114285D02*
X138095295Y-128066666D01*
X138095295Y-128066666D02*
X138238152Y-128066666D01*
X138238152Y-128066666D02*
X138333390Y-128114285D01*
X138333390Y-128114285D02*
X138381009Y-128161904D01*
X138381009Y-128161904D02*
X138428628Y-128257142D01*
X138428628Y-128257142D02*
X138428628Y-128638094D01*
X138000057Y-127685713D02*
X137952438Y-127638094D01*
X137952438Y-127638094D02*
X137904819Y-127542856D01*
X137904819Y-127542856D02*
X137904819Y-127304761D01*
X137904819Y-127304761D02*
X137952438Y-127209523D01*
X137952438Y-127209523D02*
X138000057Y-127161904D01*
X138000057Y-127161904D02*
X138095295Y-127114285D01*
X138095295Y-127114285D02*
X138190533Y-127114285D01*
X138190533Y-127114285D02*
X138333390Y-127161904D01*
X138333390Y-127161904D02*
X138904819Y-127733332D01*
X138904819Y-127733332D02*
X138904819Y-127114285D01*
X141854819Y-94221721D02*
X141378628Y-94555054D01*
X141854819Y-94793149D02*
X140854819Y-94793149D01*
X140854819Y-94793149D02*
X140854819Y-94412197D01*
X140854819Y-94412197D02*
X140902438Y-94316959D01*
X140902438Y-94316959D02*
X140950057Y-94269340D01*
X140950057Y-94269340D02*
X141045295Y-94221721D01*
X141045295Y-94221721D02*
X141188152Y-94221721D01*
X141188152Y-94221721D02*
X141283390Y-94269340D01*
X141283390Y-94269340D02*
X141331009Y-94316959D01*
X141331009Y-94316959D02*
X141378628Y-94412197D01*
X141378628Y-94412197D02*
X141378628Y-94793149D01*
X141854819Y-93269340D02*
X141854819Y-93840768D01*
X141854819Y-93555054D02*
X140854819Y-93555054D01*
X140854819Y-93555054D02*
X140997676Y-93650292D01*
X140997676Y-93650292D02*
X141092914Y-93745530D01*
X141092914Y-93745530D02*
X141140533Y-93840768D01*
X170056905Y-108099874D02*
X170056905Y-107099874D01*
X170056905Y-107099874D02*
X170295000Y-107099874D01*
X170295000Y-107099874D02*
X170437857Y-107147493D01*
X170437857Y-107147493D02*
X170533095Y-107242731D01*
X170533095Y-107242731D02*
X170580714Y-107337969D01*
X170580714Y-107337969D02*
X170628333Y-107528445D01*
X170628333Y-107528445D02*
X170628333Y-107671302D01*
X170628333Y-107671302D02*
X170580714Y-107861778D01*
X170580714Y-107861778D02*
X170533095Y-107957016D01*
X170533095Y-107957016D02*
X170437857Y-108052255D01*
X170437857Y-108052255D02*
X170295000Y-108099874D01*
X170295000Y-108099874D02*
X170056905Y-108099874D01*
X171009286Y-107195112D02*
X171056905Y-107147493D01*
X171056905Y-107147493D02*
X171152143Y-107099874D01*
X171152143Y-107099874D02*
X171390238Y-107099874D01*
X171390238Y-107099874D02*
X171485476Y-107147493D01*
X171485476Y-107147493D02*
X171533095Y-107195112D01*
X171533095Y-107195112D02*
X171580714Y-107290350D01*
X171580714Y-107290350D02*
X171580714Y-107385588D01*
X171580714Y-107385588D02*
X171533095Y-107528445D01*
X171533095Y-107528445D02*
X170961667Y-108099874D01*
X170961667Y-108099874D02*
X171580714Y-108099874D01*
X140763333Y-72650235D02*
X140763333Y-71935950D01*
X140763333Y-71935950D02*
X140810952Y-71793093D01*
X140810952Y-71793093D02*
X140906190Y-71697855D01*
X140906190Y-71697855D02*
X141049047Y-71650235D01*
X141049047Y-71650235D02*
X141144285Y-71650235D01*
X140334761Y-72554997D02*
X140287142Y-72602616D01*
X140287142Y-72602616D02*
X140191904Y-72650235D01*
X140191904Y-72650235D02*
X139953809Y-72650235D01*
X139953809Y-72650235D02*
X139858571Y-72602616D01*
X139858571Y-72602616D02*
X139810952Y-72554997D01*
X139810952Y-72554997D02*
X139763333Y-72459759D01*
X139763333Y-72459759D02*
X139763333Y-72364521D01*
X139763333Y-72364521D02*
X139810952Y-72221664D01*
X139810952Y-72221664D02*
X140382380Y-71650235D01*
X140382380Y-71650235D02*
X139763333Y-71650235D01*
X135954819Y-94221721D02*
X135478628Y-94555054D01*
X135954819Y-94793149D02*
X134954819Y-94793149D01*
X134954819Y-94793149D02*
X134954819Y-94412197D01*
X134954819Y-94412197D02*
X135002438Y-94316959D01*
X135002438Y-94316959D02*
X135050057Y-94269340D01*
X135050057Y-94269340D02*
X135145295Y-94221721D01*
X135145295Y-94221721D02*
X135288152Y-94221721D01*
X135288152Y-94221721D02*
X135383390Y-94269340D01*
X135383390Y-94269340D02*
X135431009Y-94316959D01*
X135431009Y-94316959D02*
X135478628Y-94412197D01*
X135478628Y-94412197D02*
X135478628Y-94793149D01*
X134954819Y-93888387D02*
X134954819Y-93269340D01*
X134954819Y-93269340D02*
X135335771Y-93602673D01*
X135335771Y-93602673D02*
X135335771Y-93459816D01*
X135335771Y-93459816D02*
X135383390Y-93364578D01*
X135383390Y-93364578D02*
X135431009Y-93316959D01*
X135431009Y-93316959D02*
X135526247Y-93269340D01*
X135526247Y-93269340D02*
X135764342Y-93269340D01*
X135764342Y-93269340D02*
X135859580Y-93316959D01*
X135859580Y-93316959D02*
X135907200Y-93364578D01*
X135907200Y-93364578D02*
X135954819Y-93459816D01*
X135954819Y-93459816D02*
X135954819Y-93745530D01*
X135954819Y-93745530D02*
X135907200Y-93840768D01*
X135907200Y-93840768D02*
X135859580Y-93888387D01*
X170056905Y-82849874D02*
X170056905Y-81849874D01*
X170056905Y-81849874D02*
X170295000Y-81849874D01*
X170295000Y-81849874D02*
X170437857Y-81897493D01*
X170437857Y-81897493D02*
X170533095Y-81992731D01*
X170533095Y-81992731D02*
X170580714Y-82087969D01*
X170580714Y-82087969D02*
X170628333Y-82278445D01*
X170628333Y-82278445D02*
X170628333Y-82421302D01*
X170628333Y-82421302D02*
X170580714Y-82611778D01*
X170580714Y-82611778D02*
X170533095Y-82707016D01*
X170533095Y-82707016D02*
X170437857Y-82802255D01*
X170437857Y-82802255D02*
X170295000Y-82849874D01*
X170295000Y-82849874D02*
X170056905Y-82849874D01*
X171580714Y-82849874D02*
X171009286Y-82849874D01*
X171295000Y-82849874D02*
X171295000Y-81849874D01*
X171295000Y-81849874D02*
X171199762Y-81992731D01*
X171199762Y-81992731D02*
X171104524Y-82087969D01*
X171104524Y-82087969D02*
X171009286Y-82135588D01*
X170056905Y-49049874D02*
X170056905Y-48049874D01*
X170056905Y-48049874D02*
X170295000Y-48049874D01*
X170295000Y-48049874D02*
X170437857Y-48097493D01*
X170437857Y-48097493D02*
X170533095Y-48192731D01*
X170533095Y-48192731D02*
X170580714Y-48287969D01*
X170580714Y-48287969D02*
X170628333Y-48478445D01*
X170628333Y-48478445D02*
X170628333Y-48621302D01*
X170628333Y-48621302D02*
X170580714Y-48811778D01*
X170580714Y-48811778D02*
X170533095Y-48907016D01*
X170533095Y-48907016D02*
X170437857Y-49002255D01*
X170437857Y-49002255D02*
X170295000Y-49049874D01*
X170295000Y-49049874D02*
X170056905Y-49049874D01*
X171580714Y-49049874D02*
X171009286Y-49049874D01*
X171295000Y-49049874D02*
X171295000Y-48049874D01*
X171295000Y-48049874D02*
X171199762Y-48192731D01*
X171199762Y-48192731D02*
X171104524Y-48287969D01*
X171104524Y-48287969D02*
X171009286Y-48335588D01*
D11*
X184738095Y-81488664D02*
X184404762Y-81488664D01*
X184404762Y-82012474D02*
X184404762Y-81012474D01*
X184404762Y-81012474D02*
X184880952Y-81012474D01*
X185119048Y-81012474D02*
X185690476Y-81012474D01*
X185404762Y-82012474D02*
X185404762Y-81012474D01*
X185976191Y-81964855D02*
X186119048Y-82012474D01*
X186119048Y-82012474D02*
X186357143Y-82012474D01*
X186357143Y-82012474D02*
X186452381Y-81964855D01*
X186452381Y-81964855D02*
X186500000Y-81917235D01*
X186500000Y-81917235D02*
X186547619Y-81821997D01*
X186547619Y-81821997D02*
X186547619Y-81726759D01*
X186547619Y-81726759D02*
X186500000Y-81631521D01*
X186500000Y-81631521D02*
X186452381Y-81583902D01*
X186452381Y-81583902D02*
X186357143Y-81536283D01*
X186357143Y-81536283D02*
X186166667Y-81488664D01*
X186166667Y-81488664D02*
X186071429Y-81441045D01*
X186071429Y-81441045D02*
X186023810Y-81393426D01*
X186023810Y-81393426D02*
X185976191Y-81298188D01*
X185976191Y-81298188D02*
X185976191Y-81202950D01*
X185976191Y-81202950D02*
X186023810Y-81107712D01*
X186023810Y-81107712D02*
X186071429Y-81060093D01*
X186071429Y-81060093D02*
X186166667Y-81012474D01*
X186166667Y-81012474D02*
X186404762Y-81012474D01*
X186404762Y-81012474D02*
X186547619Y-81060093D01*
X186880953Y-81012474D02*
X187119048Y-82012474D01*
X187119048Y-82012474D02*
X187309524Y-81298188D01*
X187309524Y-81298188D02*
X187500000Y-82012474D01*
X187500000Y-82012474D02*
X187738096Y-81012474D01*
X188642857Y-82012474D02*
X188071429Y-82012474D01*
X188357143Y-82012474D02*
X188357143Y-81012474D01*
X188357143Y-81012474D02*
X188261905Y-81155331D01*
X188261905Y-81155331D02*
X188166667Y-81250569D01*
X188166667Y-81250569D02*
X188071429Y-81298188D01*
D10*
X119056905Y-108094819D02*
X119056905Y-107094819D01*
X119056905Y-107094819D02*
X119295000Y-107094819D01*
X119295000Y-107094819D02*
X119437857Y-107142438D01*
X119437857Y-107142438D02*
X119533095Y-107237676D01*
X119533095Y-107237676D02*
X119580714Y-107332914D01*
X119580714Y-107332914D02*
X119628333Y-107523390D01*
X119628333Y-107523390D02*
X119628333Y-107666247D01*
X119628333Y-107666247D02*
X119580714Y-107856723D01*
X119580714Y-107856723D02*
X119533095Y-107951961D01*
X119533095Y-107951961D02*
X119437857Y-108047200D01*
X119437857Y-108047200D02*
X119295000Y-108094819D01*
X119295000Y-108094819D02*
X119056905Y-108094819D01*
X120009286Y-107190057D02*
X120056905Y-107142438D01*
X120056905Y-107142438D02*
X120152143Y-107094819D01*
X120152143Y-107094819D02*
X120390238Y-107094819D01*
X120390238Y-107094819D02*
X120485476Y-107142438D01*
X120485476Y-107142438D02*
X120533095Y-107190057D01*
X120533095Y-107190057D02*
X120580714Y-107285295D01*
X120580714Y-107285295D02*
X120580714Y-107380533D01*
X120580714Y-107380533D02*
X120533095Y-107523390D01*
X120533095Y-107523390D02*
X119961667Y-108094819D01*
X119961667Y-108094819D02*
X120580714Y-108094819D01*
X186954819Y-128071721D02*
X186478628Y-128405054D01*
X186954819Y-128643149D02*
X185954819Y-128643149D01*
X185954819Y-128643149D02*
X185954819Y-128262197D01*
X185954819Y-128262197D02*
X186002438Y-128166959D01*
X186002438Y-128166959D02*
X186050057Y-128119340D01*
X186050057Y-128119340D02*
X186145295Y-128071721D01*
X186145295Y-128071721D02*
X186288152Y-128071721D01*
X186288152Y-128071721D02*
X186383390Y-128119340D01*
X186383390Y-128119340D02*
X186431009Y-128166959D01*
X186431009Y-128166959D02*
X186478628Y-128262197D01*
X186478628Y-128262197D02*
X186478628Y-128643149D01*
X185954819Y-127738387D02*
X185954819Y-127119340D01*
X185954819Y-127119340D02*
X186335771Y-127452673D01*
X186335771Y-127452673D02*
X186335771Y-127309816D01*
X186335771Y-127309816D02*
X186383390Y-127214578D01*
X186383390Y-127214578D02*
X186431009Y-127166959D01*
X186431009Y-127166959D02*
X186526247Y-127119340D01*
X186526247Y-127119340D02*
X186764342Y-127119340D01*
X186764342Y-127119340D02*
X186859580Y-127166959D01*
X186859580Y-127166959D02*
X186907200Y-127214578D01*
X186907200Y-127214578D02*
X186954819Y-127309816D01*
X186954819Y-127309816D02*
X186954819Y-127595530D01*
X186954819Y-127595530D02*
X186907200Y-127690768D01*
X186907200Y-127690768D02*
X186859580Y-127738387D01*
X130983333Y-72550235D02*
X130983333Y-71835950D01*
X130983333Y-71835950D02*
X131030952Y-71693093D01*
X131030952Y-71693093D02*
X131126190Y-71597855D01*
X131126190Y-71597855D02*
X131269047Y-71550235D01*
X131269047Y-71550235D02*
X131364285Y-71550235D01*
X129983333Y-71550235D02*
X130554761Y-71550235D01*
X130269047Y-71550235D02*
X130269047Y-72550235D01*
X130269047Y-72550235D02*
X130364285Y-72407378D01*
X130364285Y-72407378D02*
X130459523Y-72312140D01*
X130459523Y-72312140D02*
X130554761Y-72264521D01*
X198359580Y-77921721D02*
X198407200Y-77969340D01*
X198407200Y-77969340D02*
X198454819Y-78112197D01*
X198454819Y-78112197D02*
X198454819Y-78207435D01*
X198454819Y-78207435D02*
X198407200Y-78350292D01*
X198407200Y-78350292D02*
X198311961Y-78445530D01*
X198311961Y-78445530D02*
X198216723Y-78493149D01*
X198216723Y-78493149D02*
X198026247Y-78540768D01*
X198026247Y-78540768D02*
X197883390Y-78540768D01*
X197883390Y-78540768D02*
X197692914Y-78493149D01*
X197692914Y-78493149D02*
X197597676Y-78445530D01*
X197597676Y-78445530D02*
X197502438Y-78350292D01*
X197502438Y-78350292D02*
X197454819Y-78207435D01*
X197454819Y-78207435D02*
X197454819Y-78112197D01*
X197454819Y-78112197D02*
X197502438Y-77969340D01*
X197502438Y-77969340D02*
X197550057Y-77921721D01*
X198454819Y-76969340D02*
X198454819Y-77540768D01*
X198454819Y-77255054D02*
X197454819Y-77255054D01*
X197454819Y-77255054D02*
X197597676Y-77350292D01*
X197597676Y-77350292D02*
X197692914Y-77445530D01*
X197692914Y-77445530D02*
X197740533Y-77540768D01*
X135954819Y-128066666D02*
X135478628Y-128399999D01*
X135954819Y-128638094D02*
X134954819Y-128638094D01*
X134954819Y-128638094D02*
X134954819Y-128257142D01*
X134954819Y-128257142D02*
X135002438Y-128161904D01*
X135002438Y-128161904D02*
X135050057Y-128114285D01*
X135050057Y-128114285D02*
X135145295Y-128066666D01*
X135145295Y-128066666D02*
X135288152Y-128066666D01*
X135288152Y-128066666D02*
X135383390Y-128114285D01*
X135383390Y-128114285D02*
X135431009Y-128161904D01*
X135431009Y-128161904D02*
X135478628Y-128257142D01*
X135478628Y-128257142D02*
X135478628Y-128638094D01*
X134954819Y-127733332D02*
X134954819Y-127114285D01*
X134954819Y-127114285D02*
X135335771Y-127447618D01*
X135335771Y-127447618D02*
X135335771Y-127304761D01*
X135335771Y-127304761D02*
X135383390Y-127209523D01*
X135383390Y-127209523D02*
X135431009Y-127161904D01*
X135431009Y-127161904D02*
X135526247Y-127114285D01*
X135526247Y-127114285D02*
X135764342Y-127114285D01*
X135764342Y-127114285D02*
X135859580Y-127161904D01*
X135859580Y-127161904D02*
X135907200Y-127209523D01*
X135907200Y-127209523D02*
X135954819Y-127304761D01*
X135954819Y-127304761D02*
X135954819Y-127590475D01*
X135954819Y-127590475D02*
X135907200Y-127685713D01*
X135907200Y-127685713D02*
X135859580Y-127733332D01*
X135954819Y-60371721D02*
X135478628Y-60705054D01*
X135954819Y-60943149D02*
X134954819Y-60943149D01*
X134954819Y-60943149D02*
X134954819Y-60562197D01*
X134954819Y-60562197D02*
X135002438Y-60466959D01*
X135002438Y-60466959D02*
X135050057Y-60419340D01*
X135050057Y-60419340D02*
X135145295Y-60371721D01*
X135145295Y-60371721D02*
X135288152Y-60371721D01*
X135288152Y-60371721D02*
X135383390Y-60419340D01*
X135383390Y-60419340D02*
X135431009Y-60466959D01*
X135431009Y-60466959D02*
X135478628Y-60562197D01*
X135478628Y-60562197D02*
X135478628Y-60943149D01*
X134954819Y-60038387D02*
X134954819Y-59419340D01*
X134954819Y-59419340D02*
X135335771Y-59752673D01*
X135335771Y-59752673D02*
X135335771Y-59609816D01*
X135335771Y-59609816D02*
X135383390Y-59514578D01*
X135383390Y-59514578D02*
X135431009Y-59466959D01*
X135431009Y-59466959D02*
X135526247Y-59419340D01*
X135526247Y-59419340D02*
X135764342Y-59419340D01*
X135764342Y-59419340D02*
X135859580Y-59466959D01*
X135859580Y-59466959D02*
X135907200Y-59514578D01*
X135907200Y-59514578D02*
X135954819Y-59609816D01*
X135954819Y-59609816D02*
X135954819Y-59895530D01*
X135954819Y-59895530D02*
X135907200Y-59990768D01*
X135907200Y-59990768D02*
X135859580Y-60038387D01*
X147359580Y-120366666D02*
X147407200Y-120414285D01*
X147407200Y-120414285D02*
X147454819Y-120557142D01*
X147454819Y-120557142D02*
X147454819Y-120652380D01*
X147454819Y-120652380D02*
X147407200Y-120795237D01*
X147407200Y-120795237D02*
X147311961Y-120890475D01*
X147311961Y-120890475D02*
X147216723Y-120938094D01*
X147216723Y-120938094D02*
X147026247Y-120985713D01*
X147026247Y-120985713D02*
X146883390Y-120985713D01*
X146883390Y-120985713D02*
X146692914Y-120938094D01*
X146692914Y-120938094D02*
X146597676Y-120890475D01*
X146597676Y-120890475D02*
X146502438Y-120795237D01*
X146502438Y-120795237D02*
X146454819Y-120652380D01*
X146454819Y-120652380D02*
X146454819Y-120557142D01*
X146454819Y-120557142D02*
X146502438Y-120414285D01*
X146502438Y-120414285D02*
X146550057Y-120366666D01*
X146550057Y-119985713D02*
X146502438Y-119938094D01*
X146502438Y-119938094D02*
X146454819Y-119842856D01*
X146454819Y-119842856D02*
X146454819Y-119604761D01*
X146454819Y-119604761D02*
X146502438Y-119509523D01*
X146502438Y-119509523D02*
X146550057Y-119461904D01*
X146550057Y-119461904D02*
X146645295Y-119414285D01*
X146645295Y-119414285D02*
X146740533Y-119414285D01*
X146740533Y-119414285D02*
X146883390Y-119461904D01*
X146883390Y-119461904D02*
X147454819Y-120033332D01*
X147454819Y-120033332D02*
X147454819Y-119414285D01*
X170056905Y-74249874D02*
X170056905Y-73249874D01*
X170056905Y-73249874D02*
X170295000Y-73249874D01*
X170295000Y-73249874D02*
X170437857Y-73297493D01*
X170437857Y-73297493D02*
X170533095Y-73392731D01*
X170533095Y-73392731D02*
X170580714Y-73487969D01*
X170580714Y-73487969D02*
X170628333Y-73678445D01*
X170628333Y-73678445D02*
X170628333Y-73821302D01*
X170628333Y-73821302D02*
X170580714Y-74011778D01*
X170580714Y-74011778D02*
X170533095Y-74107016D01*
X170533095Y-74107016D02*
X170437857Y-74202255D01*
X170437857Y-74202255D02*
X170295000Y-74249874D01*
X170295000Y-74249874D02*
X170056905Y-74249874D01*
X171009286Y-73345112D02*
X171056905Y-73297493D01*
X171056905Y-73297493D02*
X171152143Y-73249874D01*
X171152143Y-73249874D02*
X171390238Y-73249874D01*
X171390238Y-73249874D02*
X171485476Y-73297493D01*
X171485476Y-73297493D02*
X171533095Y-73345112D01*
X171533095Y-73345112D02*
X171580714Y-73440350D01*
X171580714Y-73440350D02*
X171580714Y-73535588D01*
X171580714Y-73535588D02*
X171533095Y-73678445D01*
X171533095Y-73678445D02*
X170961667Y-74249874D01*
X170961667Y-74249874D02*
X171580714Y-74249874D01*
X189904819Y-60421721D02*
X189428628Y-60755054D01*
X189904819Y-60993149D02*
X188904819Y-60993149D01*
X188904819Y-60993149D02*
X188904819Y-60612197D01*
X188904819Y-60612197D02*
X188952438Y-60516959D01*
X188952438Y-60516959D02*
X189000057Y-60469340D01*
X189000057Y-60469340D02*
X189095295Y-60421721D01*
X189095295Y-60421721D02*
X189238152Y-60421721D01*
X189238152Y-60421721D02*
X189333390Y-60469340D01*
X189333390Y-60469340D02*
X189381009Y-60516959D01*
X189381009Y-60516959D02*
X189428628Y-60612197D01*
X189428628Y-60612197D02*
X189428628Y-60993149D01*
X189000057Y-60040768D02*
X188952438Y-59993149D01*
X188952438Y-59993149D02*
X188904819Y-59897911D01*
X188904819Y-59897911D02*
X188904819Y-59659816D01*
X188904819Y-59659816D02*
X188952438Y-59564578D01*
X188952438Y-59564578D02*
X189000057Y-59516959D01*
X189000057Y-59516959D02*
X189095295Y-59469340D01*
X189095295Y-59469340D02*
X189190533Y-59469340D01*
X189190533Y-59469340D02*
X189333390Y-59516959D01*
X189333390Y-59516959D02*
X189904819Y-60088387D01*
X189904819Y-60088387D02*
X189904819Y-59469340D01*
X140763333Y-106495180D02*
X140763333Y-105780895D01*
X140763333Y-105780895D02*
X140810952Y-105638038D01*
X140810952Y-105638038D02*
X140906190Y-105542800D01*
X140906190Y-105542800D02*
X141049047Y-105495180D01*
X141049047Y-105495180D02*
X141144285Y-105495180D01*
X140334761Y-106399942D02*
X140287142Y-106447561D01*
X140287142Y-106447561D02*
X140191904Y-106495180D01*
X140191904Y-106495180D02*
X139953809Y-106495180D01*
X139953809Y-106495180D02*
X139858571Y-106447561D01*
X139858571Y-106447561D02*
X139810952Y-106399942D01*
X139810952Y-106399942D02*
X139763333Y-106304704D01*
X139763333Y-106304704D02*
X139763333Y-106209466D01*
X139763333Y-106209466D02*
X139810952Y-106066609D01*
X139810952Y-106066609D02*
X140382380Y-105495180D01*
X140382380Y-105495180D02*
X139763333Y-105495180D01*
X133004819Y-128066666D02*
X132528628Y-128399999D01*
X133004819Y-128638094D02*
X132004819Y-128638094D01*
X132004819Y-128638094D02*
X132004819Y-128257142D01*
X132004819Y-128257142D02*
X132052438Y-128161904D01*
X132052438Y-128161904D02*
X132100057Y-128114285D01*
X132100057Y-128114285D02*
X132195295Y-128066666D01*
X132195295Y-128066666D02*
X132338152Y-128066666D01*
X132338152Y-128066666D02*
X132433390Y-128114285D01*
X132433390Y-128114285D02*
X132481009Y-128161904D01*
X132481009Y-128161904D02*
X132528628Y-128257142D01*
X132528628Y-128257142D02*
X132528628Y-128638094D01*
X132338152Y-127209523D02*
X133004819Y-127209523D01*
X131957200Y-127447618D02*
X132671485Y-127685713D01*
X132671485Y-127685713D02*
X132671485Y-127066666D01*
X141854819Y-60371721D02*
X141378628Y-60705054D01*
X141854819Y-60943149D02*
X140854819Y-60943149D01*
X140854819Y-60943149D02*
X140854819Y-60562197D01*
X140854819Y-60562197D02*
X140902438Y-60466959D01*
X140902438Y-60466959D02*
X140950057Y-60419340D01*
X140950057Y-60419340D02*
X141045295Y-60371721D01*
X141045295Y-60371721D02*
X141188152Y-60371721D01*
X141188152Y-60371721D02*
X141283390Y-60419340D01*
X141283390Y-60419340D02*
X141331009Y-60466959D01*
X141331009Y-60466959D02*
X141378628Y-60562197D01*
X141378628Y-60562197D02*
X141378628Y-60943149D01*
X141854819Y-59419340D02*
X141854819Y-59990768D01*
X141854819Y-59705054D02*
X140854819Y-59705054D01*
X140854819Y-59705054D02*
X140997676Y-59800292D01*
X140997676Y-59800292D02*
X141092914Y-59895530D01*
X141092914Y-59895530D02*
X141140533Y-59990768D01*
X147359580Y-52671721D02*
X147407200Y-52719340D01*
X147407200Y-52719340D02*
X147454819Y-52862197D01*
X147454819Y-52862197D02*
X147454819Y-52957435D01*
X147454819Y-52957435D02*
X147407200Y-53100292D01*
X147407200Y-53100292D02*
X147311961Y-53195530D01*
X147311961Y-53195530D02*
X147216723Y-53243149D01*
X147216723Y-53243149D02*
X147026247Y-53290768D01*
X147026247Y-53290768D02*
X146883390Y-53290768D01*
X146883390Y-53290768D02*
X146692914Y-53243149D01*
X146692914Y-53243149D02*
X146597676Y-53195530D01*
X146597676Y-53195530D02*
X146502438Y-53100292D01*
X146502438Y-53100292D02*
X146454819Y-52957435D01*
X146454819Y-52957435D02*
X146454819Y-52862197D01*
X146454819Y-52862197D02*
X146502438Y-52719340D01*
X146502438Y-52719340D02*
X146550057Y-52671721D01*
X146550057Y-52290768D02*
X146502438Y-52243149D01*
X146502438Y-52243149D02*
X146454819Y-52147911D01*
X146454819Y-52147911D02*
X146454819Y-51909816D01*
X146454819Y-51909816D02*
X146502438Y-51814578D01*
X146502438Y-51814578D02*
X146550057Y-51766959D01*
X146550057Y-51766959D02*
X146645295Y-51719340D01*
X146645295Y-51719340D02*
X146740533Y-51719340D01*
X146740533Y-51719340D02*
X146883390Y-51766959D01*
X146883390Y-51766959D02*
X147454819Y-52338387D01*
X147454819Y-52338387D02*
X147454819Y-51719340D01*
D11*
X133738095Y-81488664D02*
X133404762Y-81488664D01*
X133404762Y-82012474D02*
X133404762Y-81012474D01*
X133404762Y-81012474D02*
X133880952Y-81012474D01*
X134119048Y-81012474D02*
X134690476Y-81012474D01*
X134404762Y-82012474D02*
X134404762Y-81012474D01*
X134976191Y-81964855D02*
X135119048Y-82012474D01*
X135119048Y-82012474D02*
X135357143Y-82012474D01*
X135357143Y-82012474D02*
X135452381Y-81964855D01*
X135452381Y-81964855D02*
X135500000Y-81917235D01*
X135500000Y-81917235D02*
X135547619Y-81821997D01*
X135547619Y-81821997D02*
X135547619Y-81726759D01*
X135547619Y-81726759D02*
X135500000Y-81631521D01*
X135500000Y-81631521D02*
X135452381Y-81583902D01*
X135452381Y-81583902D02*
X135357143Y-81536283D01*
X135357143Y-81536283D02*
X135166667Y-81488664D01*
X135166667Y-81488664D02*
X135071429Y-81441045D01*
X135071429Y-81441045D02*
X135023810Y-81393426D01*
X135023810Y-81393426D02*
X134976191Y-81298188D01*
X134976191Y-81298188D02*
X134976191Y-81202950D01*
X134976191Y-81202950D02*
X135023810Y-81107712D01*
X135023810Y-81107712D02*
X135071429Y-81060093D01*
X135071429Y-81060093D02*
X135166667Y-81012474D01*
X135166667Y-81012474D02*
X135404762Y-81012474D01*
X135404762Y-81012474D02*
X135547619Y-81060093D01*
X135880953Y-81012474D02*
X136119048Y-82012474D01*
X136119048Y-82012474D02*
X136309524Y-81298188D01*
X136309524Y-81298188D02*
X136500000Y-82012474D01*
X136500000Y-82012474D02*
X136738096Y-81012474D01*
X137642857Y-82012474D02*
X137071429Y-82012474D01*
X137357143Y-82012474D02*
X137357143Y-81012474D01*
X137357143Y-81012474D02*
X137261905Y-81155331D01*
X137261905Y-81155331D02*
X137166667Y-81250569D01*
X137166667Y-81250569D02*
X137071429Y-81298188D01*
D10*
X147359580Y-86521721D02*
X147407200Y-86569340D01*
X147407200Y-86569340D02*
X147454819Y-86712197D01*
X147454819Y-86712197D02*
X147454819Y-86807435D01*
X147454819Y-86807435D02*
X147407200Y-86950292D01*
X147407200Y-86950292D02*
X147311961Y-87045530D01*
X147311961Y-87045530D02*
X147216723Y-87093149D01*
X147216723Y-87093149D02*
X147026247Y-87140768D01*
X147026247Y-87140768D02*
X146883390Y-87140768D01*
X146883390Y-87140768D02*
X146692914Y-87093149D01*
X146692914Y-87093149D02*
X146597676Y-87045530D01*
X146597676Y-87045530D02*
X146502438Y-86950292D01*
X146502438Y-86950292D02*
X146454819Y-86807435D01*
X146454819Y-86807435D02*
X146454819Y-86712197D01*
X146454819Y-86712197D02*
X146502438Y-86569340D01*
X146502438Y-86569340D02*
X146550057Y-86521721D01*
X146550057Y-86140768D02*
X146502438Y-86093149D01*
X146502438Y-86093149D02*
X146454819Y-85997911D01*
X146454819Y-85997911D02*
X146454819Y-85759816D01*
X146454819Y-85759816D02*
X146502438Y-85664578D01*
X146502438Y-85664578D02*
X146550057Y-85616959D01*
X146550057Y-85616959D02*
X146645295Y-85569340D01*
X146645295Y-85569340D02*
X146740533Y-85569340D01*
X146740533Y-85569340D02*
X146883390Y-85616959D01*
X146883390Y-85616959D02*
X147454819Y-86188387D01*
X147454819Y-86188387D02*
X147454819Y-85569340D01*
X198359580Y-120371721D02*
X198407200Y-120419340D01*
X198407200Y-120419340D02*
X198454819Y-120562197D01*
X198454819Y-120562197D02*
X198454819Y-120657435D01*
X198454819Y-120657435D02*
X198407200Y-120800292D01*
X198407200Y-120800292D02*
X198311961Y-120895530D01*
X198311961Y-120895530D02*
X198216723Y-120943149D01*
X198216723Y-120943149D02*
X198026247Y-120990768D01*
X198026247Y-120990768D02*
X197883390Y-120990768D01*
X197883390Y-120990768D02*
X197692914Y-120943149D01*
X197692914Y-120943149D02*
X197597676Y-120895530D01*
X197597676Y-120895530D02*
X197502438Y-120800292D01*
X197502438Y-120800292D02*
X197454819Y-120657435D01*
X197454819Y-120657435D02*
X197454819Y-120562197D01*
X197454819Y-120562197D02*
X197502438Y-120419340D01*
X197502438Y-120419340D02*
X197550057Y-120371721D01*
X197550057Y-119990768D02*
X197502438Y-119943149D01*
X197502438Y-119943149D02*
X197454819Y-119847911D01*
X197454819Y-119847911D02*
X197454819Y-119609816D01*
X197454819Y-119609816D02*
X197502438Y-119514578D01*
X197502438Y-119514578D02*
X197550057Y-119466959D01*
X197550057Y-119466959D02*
X197645295Y-119419340D01*
X197645295Y-119419340D02*
X197740533Y-119419340D01*
X197740533Y-119419340D02*
X197883390Y-119466959D01*
X197883390Y-119466959D02*
X198454819Y-120038387D01*
X198454819Y-120038387D02*
X198454819Y-119419340D01*
X198359580Y-52721721D02*
X198407200Y-52769340D01*
X198407200Y-52769340D02*
X198454819Y-52912197D01*
X198454819Y-52912197D02*
X198454819Y-53007435D01*
X198454819Y-53007435D02*
X198407200Y-53150292D01*
X198407200Y-53150292D02*
X198311961Y-53245530D01*
X198311961Y-53245530D02*
X198216723Y-53293149D01*
X198216723Y-53293149D02*
X198026247Y-53340768D01*
X198026247Y-53340768D02*
X197883390Y-53340768D01*
X197883390Y-53340768D02*
X197692914Y-53293149D01*
X197692914Y-53293149D02*
X197597676Y-53245530D01*
X197597676Y-53245530D02*
X197502438Y-53150292D01*
X197502438Y-53150292D02*
X197454819Y-53007435D01*
X197454819Y-53007435D02*
X197454819Y-52912197D01*
X197454819Y-52912197D02*
X197502438Y-52769340D01*
X197502438Y-52769340D02*
X197550057Y-52721721D01*
X197550057Y-52340768D02*
X197502438Y-52293149D01*
X197502438Y-52293149D02*
X197454819Y-52197911D01*
X197454819Y-52197911D02*
X197454819Y-51959816D01*
X197454819Y-51959816D02*
X197502438Y-51864578D01*
X197502438Y-51864578D02*
X197550057Y-51816959D01*
X197550057Y-51816959D02*
X197645295Y-51769340D01*
X197645295Y-51769340D02*
X197740533Y-51769340D01*
X197740533Y-51769340D02*
X197883390Y-51816959D01*
X197883390Y-51816959D02*
X198454819Y-52388387D01*
X198454819Y-52388387D02*
X198454819Y-51769340D01*
X191763333Y-106500235D02*
X191763333Y-105785950D01*
X191763333Y-105785950D02*
X191810952Y-105643093D01*
X191810952Y-105643093D02*
X191906190Y-105547855D01*
X191906190Y-105547855D02*
X192049047Y-105500235D01*
X192049047Y-105500235D02*
X192144285Y-105500235D01*
X191334761Y-106404997D02*
X191287142Y-106452616D01*
X191287142Y-106452616D02*
X191191904Y-106500235D01*
X191191904Y-106500235D02*
X190953809Y-106500235D01*
X190953809Y-106500235D02*
X190858571Y-106452616D01*
X190858571Y-106452616D02*
X190810952Y-106404997D01*
X190810952Y-106404997D02*
X190763333Y-106309759D01*
X190763333Y-106309759D02*
X190763333Y-106214521D01*
X190763333Y-106214521D02*
X190810952Y-106071664D01*
X190810952Y-106071664D02*
X191382380Y-105500235D01*
X191382380Y-105500235D02*
X190763333Y-105500235D01*
X170056905Y-40449874D02*
X170056905Y-39449874D01*
X170056905Y-39449874D02*
X170295000Y-39449874D01*
X170295000Y-39449874D02*
X170437857Y-39497493D01*
X170437857Y-39497493D02*
X170533095Y-39592731D01*
X170533095Y-39592731D02*
X170580714Y-39687969D01*
X170580714Y-39687969D02*
X170628333Y-39878445D01*
X170628333Y-39878445D02*
X170628333Y-40021302D01*
X170628333Y-40021302D02*
X170580714Y-40211778D01*
X170580714Y-40211778D02*
X170533095Y-40307016D01*
X170533095Y-40307016D02*
X170437857Y-40402255D01*
X170437857Y-40402255D02*
X170295000Y-40449874D01*
X170295000Y-40449874D02*
X170056905Y-40449874D01*
X171009286Y-39545112D02*
X171056905Y-39497493D01*
X171056905Y-39497493D02*
X171152143Y-39449874D01*
X171152143Y-39449874D02*
X171390238Y-39449874D01*
X171390238Y-39449874D02*
X171485476Y-39497493D01*
X171485476Y-39497493D02*
X171533095Y-39545112D01*
X171533095Y-39545112D02*
X171580714Y-39640350D01*
X171580714Y-39640350D02*
X171580714Y-39735588D01*
X171580714Y-39735588D02*
X171533095Y-39878445D01*
X171533095Y-39878445D02*
X170961667Y-40449874D01*
X170961667Y-40449874D02*
X171580714Y-40449874D01*
X191763333Y-72650235D02*
X191763333Y-71935950D01*
X191763333Y-71935950D02*
X191810952Y-71793093D01*
X191810952Y-71793093D02*
X191906190Y-71697855D01*
X191906190Y-71697855D02*
X192049047Y-71650235D01*
X192049047Y-71650235D02*
X192144285Y-71650235D01*
X191334761Y-72554997D02*
X191287142Y-72602616D01*
X191287142Y-72602616D02*
X191191904Y-72650235D01*
X191191904Y-72650235D02*
X190953809Y-72650235D01*
X190953809Y-72650235D02*
X190858571Y-72602616D01*
X190858571Y-72602616D02*
X190810952Y-72554997D01*
X190810952Y-72554997D02*
X190763333Y-72459759D01*
X190763333Y-72459759D02*
X190763333Y-72364521D01*
X190763333Y-72364521D02*
X190810952Y-72221664D01*
X190810952Y-72221664D02*
X191382380Y-71650235D01*
X191382380Y-71650235D02*
X190763333Y-71650235D01*
X192854819Y-128071721D02*
X192378628Y-128405054D01*
X192854819Y-128643149D02*
X191854819Y-128643149D01*
X191854819Y-128643149D02*
X191854819Y-128262197D01*
X191854819Y-128262197D02*
X191902438Y-128166959D01*
X191902438Y-128166959D02*
X191950057Y-128119340D01*
X191950057Y-128119340D02*
X192045295Y-128071721D01*
X192045295Y-128071721D02*
X192188152Y-128071721D01*
X192188152Y-128071721D02*
X192283390Y-128119340D01*
X192283390Y-128119340D02*
X192331009Y-128166959D01*
X192331009Y-128166959D02*
X192378628Y-128262197D01*
X192378628Y-128262197D02*
X192378628Y-128643149D01*
X192854819Y-127119340D02*
X192854819Y-127690768D01*
X192854819Y-127405054D02*
X191854819Y-127405054D01*
X191854819Y-127405054D02*
X191997676Y-127500292D01*
X191997676Y-127500292D02*
X192092914Y-127595530D01*
X192092914Y-127595530D02*
X192140533Y-127690768D01*
X181983333Y-72550235D02*
X181983333Y-71835950D01*
X181983333Y-71835950D02*
X182030952Y-71693093D01*
X182030952Y-71693093D02*
X182126190Y-71597855D01*
X182126190Y-71597855D02*
X182269047Y-71550235D01*
X182269047Y-71550235D02*
X182364285Y-71550235D01*
X180983333Y-71550235D02*
X181554761Y-71550235D01*
X181269047Y-71550235D02*
X181269047Y-72550235D01*
X181269047Y-72550235D02*
X181364285Y-72407378D01*
X181364285Y-72407378D02*
X181459523Y-72312140D01*
X181459523Y-72312140D02*
X181554761Y-72264521D01*
X186954819Y-60421721D02*
X186478628Y-60755054D01*
X186954819Y-60993149D02*
X185954819Y-60993149D01*
X185954819Y-60993149D02*
X185954819Y-60612197D01*
X185954819Y-60612197D02*
X186002438Y-60516959D01*
X186002438Y-60516959D02*
X186050057Y-60469340D01*
X186050057Y-60469340D02*
X186145295Y-60421721D01*
X186145295Y-60421721D02*
X186288152Y-60421721D01*
X186288152Y-60421721D02*
X186383390Y-60469340D01*
X186383390Y-60469340D02*
X186431009Y-60516959D01*
X186431009Y-60516959D02*
X186478628Y-60612197D01*
X186478628Y-60612197D02*
X186478628Y-60993149D01*
X185954819Y-60088387D02*
X185954819Y-59469340D01*
X185954819Y-59469340D02*
X186335771Y-59802673D01*
X186335771Y-59802673D02*
X186335771Y-59659816D01*
X186335771Y-59659816D02*
X186383390Y-59564578D01*
X186383390Y-59564578D02*
X186431009Y-59516959D01*
X186431009Y-59516959D02*
X186526247Y-59469340D01*
X186526247Y-59469340D02*
X186764342Y-59469340D01*
X186764342Y-59469340D02*
X186859580Y-59516959D01*
X186859580Y-59516959D02*
X186907200Y-59564578D01*
X186907200Y-59564578D02*
X186954819Y-59659816D01*
X186954819Y-59659816D02*
X186954819Y-59945530D01*
X186954819Y-59945530D02*
X186907200Y-60040768D01*
X186907200Y-60040768D02*
X186859580Y-60088387D01*
X130983333Y-106395180D02*
X130983333Y-105680895D01*
X130983333Y-105680895D02*
X131030952Y-105538038D01*
X131030952Y-105538038D02*
X131126190Y-105442800D01*
X131126190Y-105442800D02*
X131269047Y-105395180D01*
X131269047Y-105395180D02*
X131364285Y-105395180D01*
X129983333Y-105395180D02*
X130554761Y-105395180D01*
X130269047Y-105395180D02*
X130269047Y-106395180D01*
X130269047Y-106395180D02*
X130364285Y-106252323D01*
X130364285Y-106252323D02*
X130459523Y-106157085D01*
X130459523Y-106157085D02*
X130554761Y-106109466D01*
X184004819Y-94221721D02*
X183528628Y-94555054D01*
X184004819Y-94793149D02*
X183004819Y-94793149D01*
X183004819Y-94793149D02*
X183004819Y-94412197D01*
X183004819Y-94412197D02*
X183052438Y-94316959D01*
X183052438Y-94316959D02*
X183100057Y-94269340D01*
X183100057Y-94269340D02*
X183195295Y-94221721D01*
X183195295Y-94221721D02*
X183338152Y-94221721D01*
X183338152Y-94221721D02*
X183433390Y-94269340D01*
X183433390Y-94269340D02*
X183481009Y-94316959D01*
X183481009Y-94316959D02*
X183528628Y-94412197D01*
X183528628Y-94412197D02*
X183528628Y-94793149D01*
X183338152Y-93364578D02*
X184004819Y-93364578D01*
X182957200Y-93602673D02*
X183671485Y-93840768D01*
X183671485Y-93840768D02*
X183671485Y-93221721D01*
D12*
%TO.C,R4*%
X130165000Y-59977991D02*
X130165000Y-60432119D01*
X131635000Y-59977991D02*
X131635000Y-60432119D01*
X181165000Y-60027991D02*
X181165000Y-60482119D01*
X182635000Y-60027991D02*
X182635000Y-60482119D01*
%TO.C,R1*%
X190015000Y-60027991D02*
X190015000Y-60482119D01*
X191485000Y-60027991D02*
X191485000Y-60482119D01*
%TO.C,C2*%
X199340113Y-84880055D02*
X199840113Y-84880055D01*
X199590113Y-84630055D02*
X199590113Y-85130055D01*
X202144888Y-83775055D02*
X202144888Y-88935055D01*
X202184888Y-83775055D02*
X202184888Y-88935055D01*
X202224888Y-83776055D02*
X202224888Y-88934055D01*
X202264888Y-83777055D02*
X202264888Y-88933055D01*
X202304888Y-83779055D02*
X202304888Y-88931055D01*
X202344888Y-83782055D02*
X202344888Y-88928055D01*
X202384888Y-83786055D02*
X202384888Y-85315055D01*
X202384888Y-87395055D02*
X202384888Y-88924055D01*
X202424888Y-83790055D02*
X202424888Y-85315055D01*
X202424888Y-87395055D02*
X202424888Y-88920055D01*
X202464888Y-83794055D02*
X202464888Y-85315055D01*
X202464888Y-87395055D02*
X202464888Y-88916055D01*
X202504888Y-83799055D02*
X202504888Y-85315055D01*
X202504888Y-87395055D02*
X202504888Y-88911055D01*
X202544888Y-83805055D02*
X202544888Y-85315055D01*
X202544888Y-87395055D02*
X202544888Y-88905055D01*
X202584888Y-83812055D02*
X202584888Y-85315055D01*
X202584888Y-87395055D02*
X202584888Y-88898055D01*
X202624888Y-83819055D02*
X202624888Y-85315055D01*
X202624888Y-87395055D02*
X202624888Y-88891055D01*
X202664888Y-83827055D02*
X202664888Y-85315055D01*
X202664888Y-87395055D02*
X202664888Y-88883055D01*
X202704888Y-83835055D02*
X202704888Y-85315055D01*
X202704888Y-87395055D02*
X202704888Y-88875055D01*
X202744888Y-83844055D02*
X202744888Y-85315055D01*
X202744888Y-87395055D02*
X202744888Y-88866055D01*
X202784888Y-83854055D02*
X202784888Y-85315055D01*
X202784888Y-87395055D02*
X202784888Y-88856055D01*
X202824888Y-83864055D02*
X202824888Y-85315055D01*
X202824888Y-87395055D02*
X202824888Y-88846055D01*
X202865888Y-83875055D02*
X202865888Y-85315055D01*
X202865888Y-87395055D02*
X202865888Y-88835055D01*
X202905888Y-83887055D02*
X202905888Y-85315055D01*
X202905888Y-87395055D02*
X202905888Y-88823055D01*
X202945888Y-83900055D02*
X202945888Y-85315055D01*
X202945888Y-87395055D02*
X202945888Y-88810055D01*
X202985888Y-83913055D02*
X202985888Y-85315055D01*
X202985888Y-87395055D02*
X202985888Y-88797055D01*
X203025888Y-83927055D02*
X203025888Y-85315055D01*
X203025888Y-87395055D02*
X203025888Y-88783055D01*
X203065888Y-83941055D02*
X203065888Y-85315055D01*
X203065888Y-87395055D02*
X203065888Y-88769055D01*
X203105888Y-83957055D02*
X203105888Y-85315055D01*
X203105888Y-87395055D02*
X203105888Y-88753055D01*
X203145888Y-83973055D02*
X203145888Y-85315055D01*
X203145888Y-87395055D02*
X203145888Y-88737055D01*
X203185888Y-83990055D02*
X203185888Y-85315055D01*
X203185888Y-87395055D02*
X203185888Y-88720055D01*
X203225888Y-84007055D02*
X203225888Y-85315055D01*
X203225888Y-87395055D02*
X203225888Y-88703055D01*
X203265888Y-84026055D02*
X203265888Y-85315055D01*
X203265888Y-87395055D02*
X203265888Y-88684055D01*
X203305888Y-84045055D02*
X203305888Y-85315055D01*
X203305888Y-87395055D02*
X203305888Y-88665055D01*
X203345888Y-84065055D02*
X203345888Y-85315055D01*
X203345888Y-87395055D02*
X203345888Y-88645055D01*
X203385888Y-84087055D02*
X203385888Y-85315055D01*
X203385888Y-87395055D02*
X203385888Y-88623055D01*
X203425888Y-84108055D02*
X203425888Y-85315055D01*
X203425888Y-87395055D02*
X203425888Y-88602055D01*
X203465888Y-84131055D02*
X203465888Y-85315055D01*
X203465888Y-87395055D02*
X203465888Y-88579055D01*
X203505888Y-84155055D02*
X203505888Y-85315055D01*
X203505888Y-87395055D02*
X203505888Y-88555055D01*
X203545888Y-84180055D02*
X203545888Y-85315055D01*
X203545888Y-87395055D02*
X203545888Y-88530055D01*
X203585888Y-84206055D02*
X203585888Y-85315055D01*
X203585888Y-87395055D02*
X203585888Y-88504055D01*
X203625888Y-84233055D02*
X203625888Y-85315055D01*
X203625888Y-87395055D02*
X203625888Y-88477055D01*
X203665888Y-84260055D02*
X203665888Y-85315055D01*
X203665888Y-87395055D02*
X203665888Y-88450055D01*
X203705888Y-84290055D02*
X203705888Y-85315055D01*
X203705888Y-87395055D02*
X203705888Y-88420055D01*
X203745888Y-84320055D02*
X203745888Y-85315055D01*
X203745888Y-87395055D02*
X203745888Y-88390055D01*
X203785888Y-84351055D02*
X203785888Y-85315055D01*
X203785888Y-87395055D02*
X203785888Y-88359055D01*
X203825888Y-84384055D02*
X203825888Y-85315055D01*
X203825888Y-87395055D02*
X203825888Y-88326055D01*
X203865888Y-84418055D02*
X203865888Y-85315055D01*
X203865888Y-87395055D02*
X203865888Y-88292055D01*
X203905888Y-84454055D02*
X203905888Y-85315055D01*
X203905888Y-87395055D02*
X203905888Y-88256055D01*
X203945888Y-84491055D02*
X203945888Y-85315055D01*
X203945888Y-87395055D02*
X203945888Y-88219055D01*
X203985888Y-84529055D02*
X203985888Y-85315055D01*
X203985888Y-87395055D02*
X203985888Y-88181055D01*
X204025888Y-84570055D02*
X204025888Y-85315055D01*
X204025888Y-87395055D02*
X204025888Y-88140055D01*
X204065888Y-84612055D02*
X204065888Y-85315055D01*
X204065888Y-87395055D02*
X204065888Y-88098055D01*
X204105888Y-84656055D02*
X204105888Y-85315055D01*
X204105888Y-87395055D02*
X204105888Y-88054055D01*
X204145888Y-84702055D02*
X204145888Y-85315055D01*
X204145888Y-87395055D02*
X204145888Y-88008055D01*
X204185888Y-84750055D02*
X204185888Y-85315055D01*
X204185888Y-87395055D02*
X204185888Y-87960055D01*
X204225888Y-84801055D02*
X204225888Y-85315055D01*
X204225888Y-87395055D02*
X204225888Y-87909055D01*
X204265888Y-84855055D02*
X204265888Y-85315055D01*
X204265888Y-87395055D02*
X204265888Y-87855055D01*
X204305888Y-84912055D02*
X204305888Y-85315055D01*
X204305888Y-87395055D02*
X204305888Y-87798055D01*
X204345888Y-84972055D02*
X204345888Y-85315055D01*
X204345888Y-87395055D02*
X204345888Y-87738055D01*
X204385888Y-85036055D02*
X204385888Y-85315055D01*
X204385888Y-87395055D02*
X204385888Y-87674055D01*
X204425888Y-85104055D02*
X204425888Y-85315055D01*
X204425888Y-87395055D02*
X204425888Y-87606055D01*
X204465888Y-85177055D02*
X204465888Y-87533055D01*
X204505888Y-85257055D02*
X204505888Y-87453055D01*
X204545888Y-85344055D02*
X204545888Y-87366055D01*
X204585888Y-85440055D02*
X204585888Y-87270055D01*
X204625888Y-85550055D02*
X204625888Y-87160055D01*
X204665888Y-85678055D02*
X204665888Y-87032055D01*
X204705888Y-85837055D02*
X204705888Y-86873055D01*
X204745888Y-86071055D02*
X204745888Y-86639055D01*
X204764888Y-86355055D02*
G75*
G02*
X199524888Y-86355055I-2620000J0D01*
G01*
X199524888Y-86355055D02*
G75*
G02*
X204764888Y-86355055I2620000J0D01*
G01*
%TO.C,FTSW1*%
D13*
X125700000Y-39605055D02*
X145300000Y-39605055D01*
X145300000Y-56805055D01*
X125700000Y-56805055D01*
X125700000Y-39605055D01*
D12*
%TO.C,R2*%
X136065000Y-93827991D02*
X136065000Y-94282119D01*
X137535000Y-93827991D02*
X137535000Y-94282119D01*
%TO.C,D1*%
X117235000Y-84810055D02*
X117235000Y-87900055D01*
X117235000Y-84810225D02*
G75*
G02*
X122785000Y-86355517I2560000J-1544830D01*
G01*
X122785000Y-86354593D02*
G75*
G02*
X117235000Y-87899885I-2990000J-462D01*
G01*
X122295000Y-86355055D02*
G75*
G02*
X117295000Y-86355055I-2500000J0D01*
G01*
X117295000Y-86355055D02*
G75*
G02*
X122295000Y-86355055I2500000J0D01*
G01*
%TO.C,C1*%
X148345225Y-42430055D02*
X148845225Y-42430055D01*
X148595225Y-42180055D02*
X148595225Y-42680055D01*
X151150000Y-41325055D02*
X151150000Y-46485055D01*
X151190000Y-41325055D02*
X151190000Y-46485055D01*
X151230000Y-41326055D02*
X151230000Y-46484055D01*
X151270000Y-41327055D02*
X151270000Y-46483055D01*
X151310000Y-41329055D02*
X151310000Y-46481055D01*
X151350000Y-41332055D02*
X151350000Y-46478055D01*
X151390000Y-41336055D02*
X151390000Y-42865055D01*
X151390000Y-44945055D02*
X151390000Y-46474055D01*
X151430000Y-41340055D02*
X151430000Y-42865055D01*
X151430000Y-44945055D02*
X151430000Y-46470055D01*
X151470000Y-41344055D02*
X151470000Y-42865055D01*
X151470000Y-44945055D02*
X151470000Y-46466055D01*
X151510000Y-41349055D02*
X151510000Y-42865055D01*
X151510000Y-44945055D02*
X151510000Y-46461055D01*
X151550000Y-41355055D02*
X151550000Y-42865055D01*
X151550000Y-44945055D02*
X151550000Y-46455055D01*
X151590000Y-41362055D02*
X151590000Y-42865055D01*
X151590000Y-44945055D02*
X151590000Y-46448055D01*
X151630000Y-41369055D02*
X151630000Y-42865055D01*
X151630000Y-44945055D02*
X151630000Y-46441055D01*
X151670000Y-41377055D02*
X151670000Y-42865055D01*
X151670000Y-44945055D02*
X151670000Y-46433055D01*
X151710000Y-41385055D02*
X151710000Y-42865055D01*
X151710000Y-44945055D02*
X151710000Y-46425055D01*
X151750000Y-41394055D02*
X151750000Y-42865055D01*
X151750000Y-44945055D02*
X151750000Y-46416055D01*
X151790000Y-41404055D02*
X151790000Y-42865055D01*
X151790000Y-44945055D02*
X151790000Y-46406055D01*
X151830000Y-41414055D02*
X151830000Y-42865055D01*
X151830000Y-44945055D02*
X151830000Y-46396055D01*
X151871000Y-41425055D02*
X151871000Y-42865055D01*
X151871000Y-44945055D02*
X151871000Y-46385055D01*
X151911000Y-41437055D02*
X151911000Y-42865055D01*
X151911000Y-44945055D02*
X151911000Y-46373055D01*
X151951000Y-41450055D02*
X151951000Y-42865055D01*
X151951000Y-44945055D02*
X151951000Y-46360055D01*
X151991000Y-41463055D02*
X151991000Y-42865055D01*
X151991000Y-44945055D02*
X151991000Y-46347055D01*
X152031000Y-41477055D02*
X152031000Y-42865055D01*
X152031000Y-44945055D02*
X152031000Y-46333055D01*
X152071000Y-41491055D02*
X152071000Y-42865055D01*
X152071000Y-44945055D02*
X152071000Y-46319055D01*
X152111000Y-41507055D02*
X152111000Y-42865055D01*
X152111000Y-44945055D02*
X152111000Y-46303055D01*
X152151000Y-41523055D02*
X152151000Y-42865055D01*
X152151000Y-44945055D02*
X152151000Y-46287055D01*
X152191000Y-41540055D02*
X152191000Y-42865055D01*
X152191000Y-44945055D02*
X152191000Y-46270055D01*
X152231000Y-41557055D02*
X152231000Y-42865055D01*
X152231000Y-44945055D02*
X152231000Y-46253055D01*
X152271000Y-41576055D02*
X152271000Y-42865055D01*
X152271000Y-44945055D02*
X152271000Y-46234055D01*
X152311000Y-41595055D02*
X152311000Y-42865055D01*
X152311000Y-44945055D02*
X152311000Y-46215055D01*
X152351000Y-41615055D02*
X152351000Y-42865055D01*
X152351000Y-44945055D02*
X152351000Y-46195055D01*
X152391000Y-41637055D02*
X152391000Y-42865055D01*
X152391000Y-44945055D02*
X152391000Y-46173055D01*
X152431000Y-41658055D02*
X152431000Y-42865055D01*
X152431000Y-44945055D02*
X152431000Y-46152055D01*
X152471000Y-41681055D02*
X152471000Y-42865055D01*
X152471000Y-44945055D02*
X152471000Y-46129055D01*
X152511000Y-41705055D02*
X152511000Y-42865055D01*
X152511000Y-44945055D02*
X152511000Y-46105055D01*
X152551000Y-41730055D02*
X152551000Y-42865055D01*
X152551000Y-44945055D02*
X152551000Y-46080055D01*
X152591000Y-41756055D02*
X152591000Y-42865055D01*
X152591000Y-44945055D02*
X152591000Y-46054055D01*
X152631000Y-41783055D02*
X152631000Y-42865055D01*
X152631000Y-44945055D02*
X152631000Y-46027055D01*
X152671000Y-41810055D02*
X152671000Y-42865055D01*
X152671000Y-44945055D02*
X152671000Y-46000055D01*
X152711000Y-41840055D02*
X152711000Y-42865055D01*
X152711000Y-44945055D02*
X152711000Y-45970055D01*
X152751000Y-41870055D02*
X152751000Y-42865055D01*
X152751000Y-44945055D02*
X152751000Y-45940055D01*
X152791000Y-41901055D02*
X152791000Y-42865055D01*
X152791000Y-44945055D02*
X152791000Y-45909055D01*
X152831000Y-41934055D02*
X152831000Y-42865055D01*
X152831000Y-44945055D02*
X152831000Y-45876055D01*
X152871000Y-41968055D02*
X152871000Y-42865055D01*
X152871000Y-44945055D02*
X152871000Y-45842055D01*
X152911000Y-42004055D02*
X152911000Y-42865055D01*
X152911000Y-44945055D02*
X152911000Y-45806055D01*
X152951000Y-42041055D02*
X152951000Y-42865055D01*
X152951000Y-44945055D02*
X152951000Y-45769055D01*
X152991000Y-42079055D02*
X152991000Y-42865055D01*
X152991000Y-44945055D02*
X152991000Y-45731055D01*
X153031000Y-42120055D02*
X153031000Y-42865055D01*
X153031000Y-44945055D02*
X153031000Y-45690055D01*
X153071000Y-42162055D02*
X153071000Y-42865055D01*
X153071000Y-44945055D02*
X153071000Y-45648055D01*
X153111000Y-42206055D02*
X153111000Y-42865055D01*
X153111000Y-44945055D02*
X153111000Y-45604055D01*
X153151000Y-42252055D02*
X153151000Y-42865055D01*
X153151000Y-44945055D02*
X153151000Y-45558055D01*
X153191000Y-42300055D02*
X153191000Y-42865055D01*
X153191000Y-44945055D02*
X153191000Y-45510055D01*
X153231000Y-42351055D02*
X153231000Y-42865055D01*
X153231000Y-44945055D02*
X153231000Y-45459055D01*
X153271000Y-42405055D02*
X153271000Y-42865055D01*
X153271000Y-44945055D02*
X153271000Y-45405055D01*
X153311000Y-42462055D02*
X153311000Y-42865055D01*
X153311000Y-44945055D02*
X153311000Y-45348055D01*
X153351000Y-42522055D02*
X153351000Y-42865055D01*
X153351000Y-44945055D02*
X153351000Y-45288055D01*
X153391000Y-42586055D02*
X153391000Y-42865055D01*
X153391000Y-44945055D02*
X153391000Y-45224055D01*
X153431000Y-42654055D02*
X153431000Y-42865055D01*
X153431000Y-44945055D02*
X153431000Y-45156055D01*
X153471000Y-42727055D02*
X153471000Y-45083055D01*
X153511000Y-42807055D02*
X153511000Y-45003055D01*
X153551000Y-42894055D02*
X153551000Y-44916055D01*
X153591000Y-42990055D02*
X153591000Y-44820055D01*
X153631000Y-43100055D02*
X153631000Y-44710055D01*
X153671000Y-43228055D02*
X153671000Y-44582055D01*
X153711000Y-43387055D02*
X153711000Y-44423055D01*
X153751000Y-43621055D02*
X153751000Y-44189055D01*
X153770000Y-43905055D02*
G75*
G02*
X148530000Y-43905055I-2620000J0D01*
G01*
X148530000Y-43905055D02*
G75*
G02*
X153770000Y-43905055I2620000J0D01*
G01*
X148345225Y-110125000D02*
X148845225Y-110125000D01*
X148595225Y-109875000D02*
X148595225Y-110375000D01*
X151150000Y-109020000D02*
X151150000Y-114180000D01*
X151190000Y-109020000D02*
X151190000Y-114180000D01*
X151230000Y-109021000D02*
X151230000Y-114179000D01*
X151270000Y-109022000D02*
X151270000Y-114178000D01*
X151310000Y-109024000D02*
X151310000Y-114176000D01*
X151350000Y-109027000D02*
X151350000Y-114173000D01*
X151390000Y-109031000D02*
X151390000Y-110560000D01*
X151390000Y-112640000D02*
X151390000Y-114169000D01*
X151430000Y-109035000D02*
X151430000Y-110560000D01*
X151430000Y-112640000D02*
X151430000Y-114165000D01*
X151470000Y-109039000D02*
X151470000Y-110560000D01*
X151470000Y-112640000D02*
X151470000Y-114161000D01*
X151510000Y-109044000D02*
X151510000Y-110560000D01*
X151510000Y-112640000D02*
X151510000Y-114156000D01*
X151550000Y-109050000D02*
X151550000Y-110560000D01*
X151550000Y-112640000D02*
X151550000Y-114150000D01*
X151590000Y-109057000D02*
X151590000Y-110560000D01*
X151590000Y-112640000D02*
X151590000Y-114143000D01*
X151630000Y-109064000D02*
X151630000Y-110560000D01*
X151630000Y-112640000D02*
X151630000Y-114136000D01*
X151670000Y-109072000D02*
X151670000Y-110560000D01*
X151670000Y-112640000D02*
X151670000Y-114128000D01*
X151710000Y-109080000D02*
X151710000Y-110560000D01*
X151710000Y-112640000D02*
X151710000Y-114120000D01*
X151750000Y-109089000D02*
X151750000Y-110560000D01*
X151750000Y-112640000D02*
X151750000Y-114111000D01*
X151790000Y-109099000D02*
X151790000Y-110560000D01*
X151790000Y-112640000D02*
X151790000Y-114101000D01*
X151830000Y-109109000D02*
X151830000Y-110560000D01*
X151830000Y-112640000D02*
X151830000Y-114091000D01*
X151871000Y-109120000D02*
X151871000Y-110560000D01*
X151871000Y-112640000D02*
X151871000Y-114080000D01*
X151911000Y-109132000D02*
X151911000Y-110560000D01*
X151911000Y-112640000D02*
X151911000Y-114068000D01*
X151951000Y-109145000D02*
X151951000Y-110560000D01*
X151951000Y-112640000D02*
X151951000Y-114055000D01*
X151991000Y-109158000D02*
X151991000Y-110560000D01*
X151991000Y-112640000D02*
X151991000Y-114042000D01*
X152031000Y-109172000D02*
X152031000Y-110560000D01*
X152031000Y-112640000D02*
X152031000Y-114028000D01*
X152071000Y-109186000D02*
X152071000Y-110560000D01*
X152071000Y-112640000D02*
X152071000Y-114014000D01*
X152111000Y-109202000D02*
X152111000Y-110560000D01*
X152111000Y-112640000D02*
X152111000Y-113998000D01*
X152151000Y-109218000D02*
X152151000Y-110560000D01*
X152151000Y-112640000D02*
X152151000Y-113982000D01*
X152191000Y-109235000D02*
X152191000Y-110560000D01*
X152191000Y-112640000D02*
X152191000Y-113965000D01*
X152231000Y-109252000D02*
X152231000Y-110560000D01*
X152231000Y-112640000D02*
X152231000Y-113948000D01*
X152271000Y-109271000D02*
X152271000Y-110560000D01*
X152271000Y-112640000D02*
X152271000Y-113929000D01*
X152311000Y-109290000D02*
X152311000Y-110560000D01*
X152311000Y-112640000D02*
X152311000Y-113910000D01*
X152351000Y-109310000D02*
X152351000Y-110560000D01*
X152351000Y-112640000D02*
X152351000Y-113890000D01*
X152391000Y-109332000D02*
X152391000Y-110560000D01*
X152391000Y-112640000D02*
X152391000Y-113868000D01*
X152431000Y-109353000D02*
X152431000Y-110560000D01*
X152431000Y-112640000D02*
X152431000Y-113847000D01*
X152471000Y-109376000D02*
X152471000Y-110560000D01*
X152471000Y-112640000D02*
X152471000Y-113824000D01*
X152511000Y-109400000D02*
X152511000Y-110560000D01*
X152511000Y-112640000D02*
X152511000Y-113800000D01*
X152551000Y-109425000D02*
X152551000Y-110560000D01*
X152551000Y-112640000D02*
X152551000Y-113775000D01*
X152591000Y-109451000D02*
X152591000Y-110560000D01*
X152591000Y-112640000D02*
X152591000Y-113749000D01*
X152631000Y-109478000D02*
X152631000Y-110560000D01*
X152631000Y-112640000D02*
X152631000Y-113722000D01*
X152671000Y-109505000D02*
X152671000Y-110560000D01*
X152671000Y-112640000D02*
X152671000Y-113695000D01*
X152711000Y-109535000D02*
X152711000Y-110560000D01*
X152711000Y-112640000D02*
X152711000Y-113665000D01*
X152751000Y-109565000D02*
X152751000Y-110560000D01*
X152751000Y-112640000D02*
X152751000Y-113635000D01*
X152791000Y-109596000D02*
X152791000Y-110560000D01*
X152791000Y-112640000D02*
X152791000Y-113604000D01*
X152831000Y-109629000D02*
X152831000Y-110560000D01*
X152831000Y-112640000D02*
X152831000Y-113571000D01*
X152871000Y-109663000D02*
X152871000Y-110560000D01*
X152871000Y-112640000D02*
X152871000Y-113537000D01*
X152911000Y-109699000D02*
X152911000Y-110560000D01*
X152911000Y-112640000D02*
X152911000Y-113501000D01*
X152951000Y-109736000D02*
X152951000Y-110560000D01*
X152951000Y-112640000D02*
X152951000Y-113464000D01*
X152991000Y-109774000D02*
X152991000Y-110560000D01*
X152991000Y-112640000D02*
X152991000Y-113426000D01*
X153031000Y-109815000D02*
X153031000Y-110560000D01*
X153031000Y-112640000D02*
X153031000Y-113385000D01*
X153071000Y-109857000D02*
X153071000Y-110560000D01*
X153071000Y-112640000D02*
X153071000Y-113343000D01*
X153111000Y-109901000D02*
X153111000Y-110560000D01*
X153111000Y-112640000D02*
X153111000Y-113299000D01*
X153151000Y-109947000D02*
X153151000Y-110560000D01*
X153151000Y-112640000D02*
X153151000Y-113253000D01*
X153191000Y-109995000D02*
X153191000Y-110560000D01*
X153191000Y-112640000D02*
X153191000Y-113205000D01*
X153231000Y-110046000D02*
X153231000Y-110560000D01*
X153231000Y-112640000D02*
X153231000Y-113154000D01*
X153271000Y-110100000D02*
X153271000Y-110560000D01*
X153271000Y-112640000D02*
X153271000Y-113100000D01*
X153311000Y-110157000D02*
X153311000Y-110560000D01*
X153311000Y-112640000D02*
X153311000Y-113043000D01*
X153351000Y-110217000D02*
X153351000Y-110560000D01*
X153351000Y-112640000D02*
X153351000Y-112983000D01*
X153391000Y-110281000D02*
X153391000Y-110560000D01*
X153391000Y-112640000D02*
X153391000Y-112919000D01*
X153431000Y-110349000D02*
X153431000Y-110560000D01*
X153431000Y-112640000D02*
X153431000Y-112851000D01*
X153471000Y-110422000D02*
X153471000Y-112778000D01*
X153511000Y-110502000D02*
X153511000Y-112698000D01*
X153551000Y-110589000D02*
X153551000Y-112611000D01*
X153591000Y-110685000D02*
X153591000Y-112515000D01*
X153631000Y-110795000D02*
X153631000Y-112405000D01*
X153671000Y-110923000D02*
X153671000Y-112277000D01*
X153711000Y-111082000D02*
X153711000Y-112118000D01*
X153751000Y-111316000D02*
X153751000Y-111884000D01*
X153770000Y-111600000D02*
G75*
G02*
X148530000Y-111600000I-2620000J0D01*
G01*
X148530000Y-111600000D02*
G75*
G02*
X153770000Y-111600000I2620000J0D01*
G01*
%TO.C,D2*%
X117235000Y-76210055D02*
X117235000Y-79300055D01*
X117235000Y-76210225D02*
G75*
G02*
X122785000Y-77755517I2560000J-1544830D01*
G01*
X122785000Y-77754593D02*
G75*
G02*
X117235000Y-79299885I-2990000J-462D01*
G01*
X122295000Y-77755055D02*
G75*
G02*
X117295000Y-77755055I-2500000J0D01*
G01*
X117295000Y-77755055D02*
G75*
G02*
X122295000Y-77755055I2500000J0D01*
G01*
%TO.C,D1*%
X117235000Y-50960055D02*
X117235000Y-54050055D01*
X117235000Y-50960225D02*
G75*
G02*
X122785000Y-52505517I2560000J-1544830D01*
G01*
X122785000Y-52504593D02*
G75*
G02*
X117235000Y-54049885I-2990000J-462D01*
G01*
X122295000Y-52505055D02*
G75*
G02*
X117295000Y-52505055I-2500000J0D01*
G01*
X117295000Y-52505055D02*
G75*
G02*
X122295000Y-52505055I2500000J0D01*
G01*
X117235000Y-118655000D02*
X117235000Y-121745000D01*
X117235000Y-118655170D02*
G75*
G02*
X122785000Y-120200462I2560000J-1544830D01*
G01*
X122785000Y-120199538D02*
G75*
G02*
X117235000Y-121744830I-2990000J-462D01*
G01*
X122295000Y-120200000D02*
G75*
G02*
X117295000Y-120200000I-2500000J0D01*
G01*
X117295000Y-120200000D02*
G75*
G02*
X122295000Y-120200000I2500000J0D01*
G01*
%TO.C,FTSW1*%
D13*
X176700000Y-107305055D02*
X196300000Y-107305055D01*
X196300000Y-124505055D01*
X176700000Y-124505055D01*
X176700000Y-107305055D01*
D12*
%TO.C,R1*%
X190015000Y-93827991D02*
X190015000Y-94282119D01*
X191485000Y-93827991D02*
X191485000Y-94282119D01*
%TO.C,J2*%
X136690000Y-35155055D02*
X136690000Y-37065055D01*
X136690000Y-37065055D02*
X138600000Y-37065055D01*
X137000000Y-33155055D02*
X137000000Y-36755055D01*
X137000000Y-34705055D02*
X137300000Y-34705055D01*
X137000000Y-35455055D02*
X137300000Y-35455055D01*
X137000000Y-36755055D02*
X143850000Y-36755055D01*
X137300000Y-33605055D02*
X137600000Y-33605055D01*
X137300000Y-34705055D02*
X137300000Y-33605055D01*
X137300000Y-35455055D02*
X137300000Y-36455055D01*
X137300000Y-36455055D02*
X143550000Y-36455055D01*
X137600000Y-33605055D02*
X137600000Y-33155055D01*
X137600000Y-33605055D02*
X138800000Y-33605055D01*
X138800000Y-33305055D02*
X139550000Y-33305055D01*
X138800000Y-33605055D02*
X138800000Y-33305055D01*
X139550000Y-33305055D02*
X139550000Y-33605055D01*
X139550000Y-33605055D02*
X141300000Y-33605055D01*
X141300000Y-33305055D02*
X142050000Y-33305055D01*
X141300000Y-33605055D02*
X141300000Y-33305055D01*
X142050000Y-33305055D02*
X142050000Y-33605055D01*
X142050000Y-33605055D02*
X143250000Y-33605055D01*
X143250000Y-33605055D02*
X143250000Y-33155055D01*
X143550000Y-33605055D02*
X143250000Y-33605055D01*
X143550000Y-34705055D02*
X143550000Y-33605055D01*
X143550000Y-35455055D02*
X143850000Y-35455055D01*
X143550000Y-36455055D02*
X143550000Y-35455055D01*
X143850000Y-33155055D02*
X137000000Y-33155055D01*
X143850000Y-34705055D02*
X143550000Y-34705055D01*
X143850000Y-36755055D02*
X143850000Y-33155055D01*
%TO.C,R1*%
X139015000Y-127672936D02*
X139015000Y-128127064D01*
X140485000Y-127672936D02*
X140485000Y-128127064D01*
%TO.C,J1*%
X177890000Y-35205055D02*
X177890000Y-37115055D01*
X177890000Y-37115055D02*
X179800000Y-37115055D01*
X178200000Y-33205055D02*
X178200000Y-36805055D01*
X178200000Y-34755055D02*
X178500000Y-34755055D01*
X178200000Y-35505055D02*
X178500000Y-35505055D01*
X178200000Y-36805055D02*
X185050000Y-36805055D01*
X178500000Y-33655055D02*
X178800000Y-33655055D01*
X178500000Y-34755055D02*
X178500000Y-33655055D01*
X178500000Y-35505055D02*
X178500000Y-36505055D01*
X178500000Y-36505055D02*
X184750000Y-36505055D01*
X178800000Y-33655055D02*
X178800000Y-33205055D01*
X178800000Y-33655055D02*
X180000000Y-33655055D01*
X180000000Y-33355055D02*
X180750000Y-33355055D01*
X180000000Y-33655055D02*
X180000000Y-33355055D01*
X180750000Y-33355055D02*
X180750000Y-33655055D01*
X180750000Y-33655055D02*
X182500000Y-33655055D01*
X182500000Y-33355055D02*
X183250000Y-33355055D01*
X182500000Y-33655055D02*
X182500000Y-33355055D01*
X183250000Y-33355055D02*
X183250000Y-33655055D01*
X183250000Y-33655055D02*
X184450000Y-33655055D01*
X184450000Y-33655055D02*
X184450000Y-33205055D01*
X184750000Y-33655055D02*
X184450000Y-33655055D01*
X184750000Y-34755055D02*
X184750000Y-33655055D01*
X184750000Y-35505055D02*
X185050000Y-35505055D01*
X184750000Y-36505055D02*
X184750000Y-35505055D01*
X185050000Y-33205055D02*
X178200000Y-33205055D01*
X185050000Y-34755055D02*
X184750000Y-34755055D01*
X185050000Y-36805055D02*
X185050000Y-33205055D01*
X126890000Y-35155055D02*
X126890000Y-37065055D01*
X126890000Y-37065055D02*
X128800000Y-37065055D01*
X127200000Y-33155055D02*
X127200000Y-36755055D01*
X127200000Y-34705055D02*
X127500000Y-34705055D01*
X127200000Y-35455055D02*
X127500000Y-35455055D01*
X127200000Y-36755055D02*
X134050000Y-36755055D01*
X127500000Y-33605055D02*
X127800000Y-33605055D01*
X127500000Y-34705055D02*
X127500000Y-33605055D01*
X127500000Y-35455055D02*
X127500000Y-36455055D01*
X127500000Y-36455055D02*
X133750000Y-36455055D01*
X127800000Y-33605055D02*
X127800000Y-33155055D01*
X127800000Y-33605055D02*
X129000000Y-33605055D01*
X129000000Y-33305055D02*
X129750000Y-33305055D01*
X129000000Y-33605055D02*
X129000000Y-33305055D01*
X129750000Y-33305055D02*
X129750000Y-33605055D01*
X129750000Y-33605055D02*
X131500000Y-33605055D01*
X131500000Y-33305055D02*
X132250000Y-33305055D01*
X131500000Y-33605055D02*
X131500000Y-33305055D01*
X132250000Y-33305055D02*
X132250000Y-33605055D01*
X132250000Y-33605055D02*
X133450000Y-33605055D01*
X133450000Y-33605055D02*
X133450000Y-33155055D01*
X133750000Y-33605055D02*
X133450000Y-33605055D01*
X133750000Y-34705055D02*
X133750000Y-33605055D01*
X133750000Y-35455055D02*
X134050000Y-35455055D01*
X133750000Y-36455055D02*
X133750000Y-35455055D01*
X134050000Y-33155055D02*
X127200000Y-33155055D01*
X134050000Y-34705055D02*
X133750000Y-34705055D01*
X134050000Y-36755055D02*
X134050000Y-33155055D01*
%TO.C,D1*%
X168235000Y-118660055D02*
X168235000Y-121750055D01*
X168235000Y-118660225D02*
G75*
G02*
X173785000Y-120205517I2560000J-1544830D01*
G01*
X173785000Y-120204593D02*
G75*
G02*
X168235000Y-121749885I-2990000J-462D01*
G01*
X173295000Y-120205055D02*
G75*
G02*
X168295000Y-120205055I-2500000J0D01*
G01*
X168295000Y-120205055D02*
G75*
G02*
X173295000Y-120205055I2500000J0D01*
G01*
%TO.C,J1*%
X177890000Y-102855055D02*
X177890000Y-104765055D01*
X177890000Y-104765055D02*
X179800000Y-104765055D01*
X178200000Y-100855055D02*
X178200000Y-104455055D01*
X178200000Y-102405055D02*
X178500000Y-102405055D01*
X178200000Y-103155055D02*
X178500000Y-103155055D01*
X178200000Y-104455055D02*
X185050000Y-104455055D01*
X178500000Y-101305055D02*
X178800000Y-101305055D01*
X178500000Y-102405055D02*
X178500000Y-101305055D01*
X178500000Y-103155055D02*
X178500000Y-104155055D01*
X178500000Y-104155055D02*
X184750000Y-104155055D01*
X178800000Y-101305055D02*
X178800000Y-100855055D01*
X178800000Y-101305055D02*
X180000000Y-101305055D01*
X180000000Y-101005055D02*
X180750000Y-101005055D01*
X180000000Y-101305055D02*
X180000000Y-101005055D01*
X180750000Y-101005055D02*
X180750000Y-101305055D01*
X180750000Y-101305055D02*
X182500000Y-101305055D01*
X182500000Y-101005055D02*
X183250000Y-101005055D01*
X182500000Y-101305055D02*
X182500000Y-101005055D01*
X183250000Y-101005055D02*
X183250000Y-101305055D01*
X183250000Y-101305055D02*
X184450000Y-101305055D01*
X184450000Y-101305055D02*
X184450000Y-100855055D01*
X184750000Y-101305055D02*
X184450000Y-101305055D01*
X184750000Y-102405055D02*
X184750000Y-101305055D01*
X184750000Y-103155055D02*
X185050000Y-103155055D01*
X184750000Y-104155055D02*
X184750000Y-103155055D01*
X185050000Y-100855055D02*
X178200000Y-100855055D01*
X185050000Y-102405055D02*
X184750000Y-102405055D01*
X185050000Y-104455055D02*
X185050000Y-100855055D01*
%TO.C,R2*%
X187065000Y-93827991D02*
X187065000Y-94282119D01*
X188535000Y-93827991D02*
X188535000Y-94282119D01*
%TO.C,D2*%
X117235000Y-42360055D02*
X117235000Y-45450055D01*
X117235000Y-42360225D02*
G75*
G02*
X122785000Y-43905517I2560000J-1544830D01*
G01*
X122785000Y-43904593D02*
G75*
G02*
X117235000Y-45449885I-2990000J-462D01*
G01*
X122295000Y-43905055D02*
G75*
G02*
X117295000Y-43905055I-2500000J0D01*
G01*
X117295000Y-43905055D02*
G75*
G02*
X122295000Y-43905055I2500000J0D01*
G01*
%TO.C,FTSW1*%
D13*
X125700000Y-107300000D02*
X145300000Y-107300000D01*
X145300000Y-124500000D01*
X125700000Y-124500000D01*
X125700000Y-107300000D01*
D12*
%TO.C,C1*%
X148345225Y-76280055D02*
X148845225Y-76280055D01*
X148595225Y-76030055D02*
X148595225Y-76530055D01*
X151150000Y-75175055D02*
X151150000Y-80335055D01*
X151190000Y-75175055D02*
X151190000Y-80335055D01*
X151230000Y-75176055D02*
X151230000Y-80334055D01*
X151270000Y-75177055D02*
X151270000Y-80333055D01*
X151310000Y-75179055D02*
X151310000Y-80331055D01*
X151350000Y-75182055D02*
X151350000Y-80328055D01*
X151390000Y-75186055D02*
X151390000Y-76715055D01*
X151390000Y-78795055D02*
X151390000Y-80324055D01*
X151430000Y-75190055D02*
X151430000Y-76715055D01*
X151430000Y-78795055D02*
X151430000Y-80320055D01*
X151470000Y-75194055D02*
X151470000Y-76715055D01*
X151470000Y-78795055D02*
X151470000Y-80316055D01*
X151510000Y-75199055D02*
X151510000Y-76715055D01*
X151510000Y-78795055D02*
X151510000Y-80311055D01*
X151550000Y-75205055D02*
X151550000Y-76715055D01*
X151550000Y-78795055D02*
X151550000Y-80305055D01*
X151590000Y-75212055D02*
X151590000Y-76715055D01*
X151590000Y-78795055D02*
X151590000Y-80298055D01*
X151630000Y-75219055D02*
X151630000Y-76715055D01*
X151630000Y-78795055D02*
X151630000Y-80291055D01*
X151670000Y-75227055D02*
X151670000Y-76715055D01*
X151670000Y-78795055D02*
X151670000Y-80283055D01*
X151710000Y-75235055D02*
X151710000Y-76715055D01*
X151710000Y-78795055D02*
X151710000Y-80275055D01*
X151750000Y-75244055D02*
X151750000Y-76715055D01*
X151750000Y-78795055D02*
X151750000Y-80266055D01*
X151790000Y-75254055D02*
X151790000Y-76715055D01*
X151790000Y-78795055D02*
X151790000Y-80256055D01*
X151830000Y-75264055D02*
X151830000Y-76715055D01*
X151830000Y-78795055D02*
X151830000Y-80246055D01*
X151871000Y-75275055D02*
X151871000Y-76715055D01*
X151871000Y-78795055D02*
X151871000Y-80235055D01*
X151911000Y-75287055D02*
X151911000Y-76715055D01*
X151911000Y-78795055D02*
X151911000Y-80223055D01*
X151951000Y-75300055D02*
X151951000Y-76715055D01*
X151951000Y-78795055D02*
X151951000Y-80210055D01*
X151991000Y-75313055D02*
X151991000Y-76715055D01*
X151991000Y-78795055D02*
X151991000Y-80197055D01*
X152031000Y-75327055D02*
X152031000Y-76715055D01*
X152031000Y-78795055D02*
X152031000Y-80183055D01*
X152071000Y-75341055D02*
X152071000Y-76715055D01*
X152071000Y-78795055D02*
X152071000Y-80169055D01*
X152111000Y-75357055D02*
X152111000Y-76715055D01*
X152111000Y-78795055D02*
X152111000Y-80153055D01*
X152151000Y-75373055D02*
X152151000Y-76715055D01*
X152151000Y-78795055D02*
X152151000Y-80137055D01*
X152191000Y-75390055D02*
X152191000Y-76715055D01*
X152191000Y-78795055D02*
X152191000Y-80120055D01*
X152231000Y-75407055D02*
X152231000Y-76715055D01*
X152231000Y-78795055D02*
X152231000Y-80103055D01*
X152271000Y-75426055D02*
X152271000Y-76715055D01*
X152271000Y-78795055D02*
X152271000Y-80084055D01*
X152311000Y-75445055D02*
X152311000Y-76715055D01*
X152311000Y-78795055D02*
X152311000Y-80065055D01*
X152351000Y-75465055D02*
X152351000Y-76715055D01*
X152351000Y-78795055D02*
X152351000Y-80045055D01*
X152391000Y-75487055D02*
X152391000Y-76715055D01*
X152391000Y-78795055D02*
X152391000Y-80023055D01*
X152431000Y-75508055D02*
X152431000Y-76715055D01*
X152431000Y-78795055D02*
X152431000Y-80002055D01*
X152471000Y-75531055D02*
X152471000Y-76715055D01*
X152471000Y-78795055D02*
X152471000Y-79979055D01*
X152511000Y-75555055D02*
X152511000Y-76715055D01*
X152511000Y-78795055D02*
X152511000Y-79955055D01*
X152551000Y-75580055D02*
X152551000Y-76715055D01*
X152551000Y-78795055D02*
X152551000Y-79930055D01*
X152591000Y-75606055D02*
X152591000Y-76715055D01*
X152591000Y-78795055D02*
X152591000Y-79904055D01*
X152631000Y-75633055D02*
X152631000Y-76715055D01*
X152631000Y-78795055D02*
X152631000Y-79877055D01*
X152671000Y-75660055D02*
X152671000Y-76715055D01*
X152671000Y-78795055D02*
X152671000Y-79850055D01*
X152711000Y-75690055D02*
X152711000Y-76715055D01*
X152711000Y-78795055D02*
X152711000Y-79820055D01*
X152751000Y-75720055D02*
X152751000Y-76715055D01*
X152751000Y-78795055D02*
X152751000Y-79790055D01*
X152791000Y-75751055D02*
X152791000Y-76715055D01*
X152791000Y-78795055D02*
X152791000Y-79759055D01*
X152831000Y-75784055D02*
X152831000Y-76715055D01*
X152831000Y-78795055D02*
X152831000Y-79726055D01*
X152871000Y-75818055D02*
X152871000Y-76715055D01*
X152871000Y-78795055D02*
X152871000Y-79692055D01*
X152911000Y-75854055D02*
X152911000Y-76715055D01*
X152911000Y-78795055D02*
X152911000Y-79656055D01*
X152951000Y-75891055D02*
X152951000Y-76715055D01*
X152951000Y-78795055D02*
X152951000Y-79619055D01*
X152991000Y-75929055D02*
X152991000Y-76715055D01*
X152991000Y-78795055D02*
X152991000Y-79581055D01*
X153031000Y-75970055D02*
X153031000Y-76715055D01*
X153031000Y-78795055D02*
X153031000Y-79540055D01*
X153071000Y-76012055D02*
X153071000Y-76715055D01*
X153071000Y-78795055D02*
X153071000Y-79498055D01*
X153111000Y-76056055D02*
X153111000Y-76715055D01*
X153111000Y-78795055D02*
X153111000Y-79454055D01*
X153151000Y-76102055D02*
X153151000Y-76715055D01*
X153151000Y-78795055D02*
X153151000Y-79408055D01*
X153191000Y-76150055D02*
X153191000Y-76715055D01*
X153191000Y-78795055D02*
X153191000Y-79360055D01*
X153231000Y-76201055D02*
X153231000Y-76715055D01*
X153231000Y-78795055D02*
X153231000Y-79309055D01*
X153271000Y-76255055D02*
X153271000Y-76715055D01*
X153271000Y-78795055D02*
X153271000Y-79255055D01*
X153311000Y-76312055D02*
X153311000Y-76715055D01*
X153311000Y-78795055D02*
X153311000Y-79198055D01*
X153351000Y-76372055D02*
X153351000Y-76715055D01*
X153351000Y-78795055D02*
X153351000Y-79138055D01*
X153391000Y-76436055D02*
X153391000Y-76715055D01*
X153391000Y-78795055D02*
X153391000Y-79074055D01*
X153431000Y-76504055D02*
X153431000Y-76715055D01*
X153431000Y-78795055D02*
X153431000Y-79006055D01*
X153471000Y-76577055D02*
X153471000Y-78933055D01*
X153511000Y-76657055D02*
X153511000Y-78853055D01*
X153551000Y-76744055D02*
X153551000Y-78766055D01*
X153591000Y-76840055D02*
X153591000Y-78670055D01*
X153631000Y-76950055D02*
X153631000Y-78560055D01*
X153671000Y-77078055D02*
X153671000Y-78432055D01*
X153711000Y-77237055D02*
X153711000Y-78273055D01*
X153751000Y-77471055D02*
X153751000Y-78039055D01*
X153770000Y-77755055D02*
G75*
G02*
X148530000Y-77755055I-2620000J0D01*
G01*
X148530000Y-77755055D02*
G75*
G02*
X153770000Y-77755055I2620000J0D01*
G01*
%TO.C,R2*%
X136065000Y-59977991D02*
X136065000Y-60432119D01*
X137535000Y-59977991D02*
X137535000Y-60432119D01*
%TO.C,R4*%
X181165000Y-127677991D02*
X181165000Y-128132119D01*
X182635000Y-127677991D02*
X182635000Y-128132119D01*
%TO.C,FTSW1*%
D13*
X176700000Y-39655055D02*
X196300000Y-39655055D01*
X196300000Y-56855055D01*
X176700000Y-56855055D01*
X176700000Y-39655055D01*
D12*
%TO.C,R3*%
X184115000Y-93827991D02*
X184115000Y-94282119D01*
X185585000Y-93827991D02*
X185585000Y-94282119D01*
%TO.C,C1*%
X199345225Y-110130055D02*
X199845225Y-110130055D01*
X199595225Y-109880055D02*
X199595225Y-110380055D01*
X202150000Y-109025055D02*
X202150000Y-114185055D01*
X202190000Y-109025055D02*
X202190000Y-114185055D01*
X202230000Y-109026055D02*
X202230000Y-114184055D01*
X202270000Y-109027055D02*
X202270000Y-114183055D01*
X202310000Y-109029055D02*
X202310000Y-114181055D01*
X202350000Y-109032055D02*
X202350000Y-114178055D01*
X202390000Y-109036055D02*
X202390000Y-110565055D01*
X202390000Y-112645055D02*
X202390000Y-114174055D01*
X202430000Y-109040055D02*
X202430000Y-110565055D01*
X202430000Y-112645055D02*
X202430000Y-114170055D01*
X202470000Y-109044055D02*
X202470000Y-110565055D01*
X202470000Y-112645055D02*
X202470000Y-114166055D01*
X202510000Y-109049055D02*
X202510000Y-110565055D01*
X202510000Y-112645055D02*
X202510000Y-114161055D01*
X202550000Y-109055055D02*
X202550000Y-110565055D01*
X202550000Y-112645055D02*
X202550000Y-114155055D01*
X202590000Y-109062055D02*
X202590000Y-110565055D01*
X202590000Y-112645055D02*
X202590000Y-114148055D01*
X202630000Y-109069055D02*
X202630000Y-110565055D01*
X202630000Y-112645055D02*
X202630000Y-114141055D01*
X202670000Y-109077055D02*
X202670000Y-110565055D01*
X202670000Y-112645055D02*
X202670000Y-114133055D01*
X202710000Y-109085055D02*
X202710000Y-110565055D01*
X202710000Y-112645055D02*
X202710000Y-114125055D01*
X202750000Y-109094055D02*
X202750000Y-110565055D01*
X202750000Y-112645055D02*
X202750000Y-114116055D01*
X202790000Y-109104055D02*
X202790000Y-110565055D01*
X202790000Y-112645055D02*
X202790000Y-114106055D01*
X202830000Y-109114055D02*
X202830000Y-110565055D01*
X202830000Y-112645055D02*
X202830000Y-114096055D01*
X202871000Y-109125055D02*
X202871000Y-110565055D01*
X202871000Y-112645055D02*
X202871000Y-114085055D01*
X202911000Y-109137055D02*
X202911000Y-110565055D01*
X202911000Y-112645055D02*
X202911000Y-114073055D01*
X202951000Y-109150055D02*
X202951000Y-110565055D01*
X202951000Y-112645055D02*
X202951000Y-114060055D01*
X202991000Y-109163055D02*
X202991000Y-110565055D01*
X202991000Y-112645055D02*
X202991000Y-114047055D01*
X203031000Y-109177055D02*
X203031000Y-110565055D01*
X203031000Y-112645055D02*
X203031000Y-114033055D01*
X203071000Y-109191055D02*
X203071000Y-110565055D01*
X203071000Y-112645055D02*
X203071000Y-114019055D01*
X203111000Y-109207055D02*
X203111000Y-110565055D01*
X203111000Y-112645055D02*
X203111000Y-114003055D01*
X203151000Y-109223055D02*
X203151000Y-110565055D01*
X203151000Y-112645055D02*
X203151000Y-113987055D01*
X203191000Y-109240055D02*
X203191000Y-110565055D01*
X203191000Y-112645055D02*
X203191000Y-113970055D01*
X203231000Y-109257055D02*
X203231000Y-110565055D01*
X203231000Y-112645055D02*
X203231000Y-113953055D01*
X203271000Y-109276055D02*
X203271000Y-110565055D01*
X203271000Y-112645055D02*
X203271000Y-113934055D01*
X203311000Y-109295055D02*
X203311000Y-110565055D01*
X203311000Y-112645055D02*
X203311000Y-113915055D01*
X203351000Y-109315055D02*
X203351000Y-110565055D01*
X203351000Y-112645055D02*
X203351000Y-113895055D01*
X203391000Y-109337055D02*
X203391000Y-110565055D01*
X203391000Y-112645055D02*
X203391000Y-113873055D01*
X203431000Y-109358055D02*
X203431000Y-110565055D01*
X203431000Y-112645055D02*
X203431000Y-113852055D01*
X203471000Y-109381055D02*
X203471000Y-110565055D01*
X203471000Y-112645055D02*
X203471000Y-113829055D01*
X203511000Y-109405055D02*
X203511000Y-110565055D01*
X203511000Y-112645055D02*
X203511000Y-113805055D01*
X203551000Y-109430055D02*
X203551000Y-110565055D01*
X203551000Y-112645055D02*
X203551000Y-113780055D01*
X203591000Y-109456055D02*
X203591000Y-110565055D01*
X203591000Y-112645055D02*
X203591000Y-113754055D01*
X203631000Y-109483055D02*
X203631000Y-110565055D01*
X203631000Y-112645055D02*
X203631000Y-113727055D01*
X203671000Y-109510055D02*
X203671000Y-110565055D01*
X203671000Y-112645055D02*
X203671000Y-113700055D01*
X203711000Y-109540055D02*
X203711000Y-110565055D01*
X203711000Y-112645055D02*
X203711000Y-113670055D01*
X203751000Y-109570055D02*
X203751000Y-110565055D01*
X203751000Y-112645055D02*
X203751000Y-113640055D01*
X203791000Y-109601055D02*
X203791000Y-110565055D01*
X203791000Y-112645055D02*
X203791000Y-113609055D01*
X203831000Y-109634055D02*
X203831000Y-110565055D01*
X203831000Y-112645055D02*
X203831000Y-113576055D01*
X203871000Y-109668055D02*
X203871000Y-110565055D01*
X203871000Y-112645055D02*
X203871000Y-113542055D01*
X203911000Y-109704055D02*
X203911000Y-110565055D01*
X203911000Y-112645055D02*
X203911000Y-113506055D01*
X203951000Y-109741055D02*
X203951000Y-110565055D01*
X203951000Y-112645055D02*
X203951000Y-113469055D01*
X203991000Y-109779055D02*
X203991000Y-110565055D01*
X203991000Y-112645055D02*
X203991000Y-113431055D01*
X204031000Y-109820055D02*
X204031000Y-110565055D01*
X204031000Y-112645055D02*
X204031000Y-113390055D01*
X204071000Y-109862055D02*
X204071000Y-110565055D01*
X204071000Y-112645055D02*
X204071000Y-113348055D01*
X204111000Y-109906055D02*
X204111000Y-110565055D01*
X204111000Y-112645055D02*
X204111000Y-113304055D01*
X204151000Y-109952055D02*
X204151000Y-110565055D01*
X204151000Y-112645055D02*
X204151000Y-113258055D01*
X204191000Y-110000055D02*
X204191000Y-110565055D01*
X204191000Y-112645055D02*
X204191000Y-113210055D01*
X204231000Y-110051055D02*
X204231000Y-110565055D01*
X204231000Y-112645055D02*
X204231000Y-113159055D01*
X204271000Y-110105055D02*
X204271000Y-110565055D01*
X204271000Y-112645055D02*
X204271000Y-113105055D01*
X204311000Y-110162055D02*
X204311000Y-110565055D01*
X204311000Y-112645055D02*
X204311000Y-113048055D01*
X204351000Y-110222055D02*
X204351000Y-110565055D01*
X204351000Y-112645055D02*
X204351000Y-112988055D01*
X204391000Y-110286055D02*
X204391000Y-110565055D01*
X204391000Y-112645055D02*
X204391000Y-112924055D01*
X204431000Y-110354055D02*
X204431000Y-110565055D01*
X204431000Y-112645055D02*
X204431000Y-112856055D01*
X204471000Y-110427055D02*
X204471000Y-112783055D01*
X204511000Y-110507055D02*
X204511000Y-112703055D01*
X204551000Y-110594055D02*
X204551000Y-112616055D01*
X204591000Y-110690055D02*
X204591000Y-112520055D01*
X204631000Y-110800055D02*
X204631000Y-112410055D01*
X204671000Y-110928055D02*
X204671000Y-112282055D01*
X204711000Y-111087055D02*
X204711000Y-112123055D01*
X204751000Y-111321055D02*
X204751000Y-111889055D01*
X204770000Y-111605055D02*
G75*
G02*
X199530000Y-111605055I-2620000J0D01*
G01*
X199530000Y-111605055D02*
G75*
G02*
X204770000Y-111605055I2620000J0D01*
G01*
%TO.C,R4*%
X130165000Y-93827991D02*
X130165000Y-94282119D01*
X131635000Y-93827991D02*
X131635000Y-94282119D01*
%TO.C,R2*%
X187065000Y-127677991D02*
X187065000Y-128132119D01*
X188535000Y-127677991D02*
X188535000Y-128132119D01*
%TO.C,J2*%
X187690000Y-35205055D02*
X187690000Y-37115055D01*
X187690000Y-37115055D02*
X189600000Y-37115055D01*
X188000000Y-33205055D02*
X188000000Y-36805055D01*
X188000000Y-34755055D02*
X188300000Y-34755055D01*
X188000000Y-35505055D02*
X188300000Y-35505055D01*
X188000000Y-36805055D02*
X194850000Y-36805055D01*
X188300000Y-33655055D02*
X188600000Y-33655055D01*
X188300000Y-34755055D02*
X188300000Y-33655055D01*
X188300000Y-35505055D02*
X188300000Y-36505055D01*
X188300000Y-36505055D02*
X194550000Y-36505055D01*
X188600000Y-33655055D02*
X188600000Y-33205055D01*
X188600000Y-33655055D02*
X189800000Y-33655055D01*
X189800000Y-33355055D02*
X190550000Y-33355055D01*
X189800000Y-33655055D02*
X189800000Y-33355055D01*
X190550000Y-33355055D02*
X190550000Y-33655055D01*
X190550000Y-33655055D02*
X192300000Y-33655055D01*
X192300000Y-33355055D02*
X193050000Y-33355055D01*
X192300000Y-33655055D02*
X192300000Y-33355055D01*
X193050000Y-33355055D02*
X193050000Y-33655055D01*
X193050000Y-33655055D02*
X194250000Y-33655055D01*
X194250000Y-33655055D02*
X194250000Y-33205055D01*
X194550000Y-33655055D02*
X194250000Y-33655055D01*
X194550000Y-34755055D02*
X194550000Y-33655055D01*
X194550000Y-35505055D02*
X194850000Y-35505055D01*
X194550000Y-36505055D02*
X194550000Y-35505055D01*
X194850000Y-33205055D02*
X188000000Y-33205055D01*
X194850000Y-34755055D02*
X194550000Y-34755055D01*
X194850000Y-36805055D02*
X194850000Y-33205055D01*
%TO.C,C1*%
X199345225Y-42480055D02*
X199845225Y-42480055D01*
X199595225Y-42230055D02*
X199595225Y-42730055D01*
X202150000Y-41375055D02*
X202150000Y-46535055D01*
X202190000Y-41375055D02*
X202190000Y-46535055D01*
X202230000Y-41376055D02*
X202230000Y-46534055D01*
X202270000Y-41377055D02*
X202270000Y-46533055D01*
X202310000Y-41379055D02*
X202310000Y-46531055D01*
X202350000Y-41382055D02*
X202350000Y-46528055D01*
X202390000Y-41386055D02*
X202390000Y-42915055D01*
X202390000Y-44995055D02*
X202390000Y-46524055D01*
X202430000Y-41390055D02*
X202430000Y-42915055D01*
X202430000Y-44995055D02*
X202430000Y-46520055D01*
X202470000Y-41394055D02*
X202470000Y-42915055D01*
X202470000Y-44995055D02*
X202470000Y-46516055D01*
X202510000Y-41399055D02*
X202510000Y-42915055D01*
X202510000Y-44995055D02*
X202510000Y-46511055D01*
X202550000Y-41405055D02*
X202550000Y-42915055D01*
X202550000Y-44995055D02*
X202550000Y-46505055D01*
X202590000Y-41412055D02*
X202590000Y-42915055D01*
X202590000Y-44995055D02*
X202590000Y-46498055D01*
X202630000Y-41419055D02*
X202630000Y-42915055D01*
X202630000Y-44995055D02*
X202630000Y-46491055D01*
X202670000Y-41427055D02*
X202670000Y-42915055D01*
X202670000Y-44995055D02*
X202670000Y-46483055D01*
X202710000Y-41435055D02*
X202710000Y-42915055D01*
X202710000Y-44995055D02*
X202710000Y-46475055D01*
X202750000Y-41444055D02*
X202750000Y-42915055D01*
X202750000Y-44995055D02*
X202750000Y-46466055D01*
X202790000Y-41454055D02*
X202790000Y-42915055D01*
X202790000Y-44995055D02*
X202790000Y-46456055D01*
X202830000Y-41464055D02*
X202830000Y-42915055D01*
X202830000Y-44995055D02*
X202830000Y-46446055D01*
X202871000Y-41475055D02*
X202871000Y-42915055D01*
X202871000Y-44995055D02*
X202871000Y-46435055D01*
X202911000Y-41487055D02*
X202911000Y-42915055D01*
X202911000Y-44995055D02*
X202911000Y-46423055D01*
X202951000Y-41500055D02*
X202951000Y-42915055D01*
X202951000Y-44995055D02*
X202951000Y-46410055D01*
X202991000Y-41513055D02*
X202991000Y-42915055D01*
X202991000Y-44995055D02*
X202991000Y-46397055D01*
X203031000Y-41527055D02*
X203031000Y-42915055D01*
X203031000Y-44995055D02*
X203031000Y-46383055D01*
X203071000Y-41541055D02*
X203071000Y-42915055D01*
X203071000Y-44995055D02*
X203071000Y-46369055D01*
X203111000Y-41557055D02*
X203111000Y-42915055D01*
X203111000Y-44995055D02*
X203111000Y-46353055D01*
X203151000Y-41573055D02*
X203151000Y-42915055D01*
X203151000Y-44995055D02*
X203151000Y-46337055D01*
X203191000Y-41590055D02*
X203191000Y-42915055D01*
X203191000Y-44995055D02*
X203191000Y-46320055D01*
X203231000Y-41607055D02*
X203231000Y-42915055D01*
X203231000Y-44995055D02*
X203231000Y-46303055D01*
X203271000Y-41626055D02*
X203271000Y-42915055D01*
X203271000Y-44995055D02*
X203271000Y-46284055D01*
X203311000Y-41645055D02*
X203311000Y-42915055D01*
X203311000Y-44995055D02*
X203311000Y-46265055D01*
X203351000Y-41665055D02*
X203351000Y-42915055D01*
X203351000Y-44995055D02*
X203351000Y-46245055D01*
X203391000Y-41687055D02*
X203391000Y-42915055D01*
X203391000Y-44995055D02*
X203391000Y-46223055D01*
X203431000Y-41708055D02*
X203431000Y-42915055D01*
X203431000Y-44995055D02*
X203431000Y-46202055D01*
X203471000Y-41731055D02*
X203471000Y-42915055D01*
X203471000Y-44995055D02*
X203471000Y-46179055D01*
X203511000Y-41755055D02*
X203511000Y-42915055D01*
X203511000Y-44995055D02*
X203511000Y-46155055D01*
X203551000Y-41780055D02*
X203551000Y-42915055D01*
X203551000Y-44995055D02*
X203551000Y-46130055D01*
X203591000Y-41806055D02*
X203591000Y-42915055D01*
X203591000Y-44995055D02*
X203591000Y-46104055D01*
X203631000Y-41833055D02*
X203631000Y-42915055D01*
X203631000Y-44995055D02*
X203631000Y-46077055D01*
X203671000Y-41860055D02*
X203671000Y-42915055D01*
X203671000Y-44995055D02*
X203671000Y-46050055D01*
X203711000Y-41890055D02*
X203711000Y-42915055D01*
X203711000Y-44995055D02*
X203711000Y-46020055D01*
X203751000Y-41920055D02*
X203751000Y-42915055D01*
X203751000Y-44995055D02*
X203751000Y-45990055D01*
X203791000Y-41951055D02*
X203791000Y-42915055D01*
X203791000Y-44995055D02*
X203791000Y-45959055D01*
X203831000Y-41984055D02*
X203831000Y-42915055D01*
X203831000Y-44995055D02*
X203831000Y-45926055D01*
X203871000Y-42018055D02*
X203871000Y-42915055D01*
X203871000Y-44995055D02*
X203871000Y-45892055D01*
X203911000Y-42054055D02*
X203911000Y-42915055D01*
X203911000Y-44995055D02*
X203911000Y-45856055D01*
X203951000Y-42091055D02*
X203951000Y-42915055D01*
X203951000Y-44995055D02*
X203951000Y-45819055D01*
X203991000Y-42129055D02*
X203991000Y-42915055D01*
X203991000Y-44995055D02*
X203991000Y-45781055D01*
X204031000Y-42170055D02*
X204031000Y-42915055D01*
X204031000Y-44995055D02*
X204031000Y-45740055D01*
X204071000Y-42212055D02*
X204071000Y-42915055D01*
X204071000Y-44995055D02*
X204071000Y-45698055D01*
X204111000Y-42256055D02*
X204111000Y-42915055D01*
X204111000Y-44995055D02*
X204111000Y-45654055D01*
X204151000Y-42302055D02*
X204151000Y-42915055D01*
X204151000Y-44995055D02*
X204151000Y-45608055D01*
X204191000Y-42350055D02*
X204191000Y-42915055D01*
X204191000Y-44995055D02*
X204191000Y-45560055D01*
X204231000Y-42401055D02*
X204231000Y-42915055D01*
X204231000Y-44995055D02*
X204231000Y-45509055D01*
X204271000Y-42455055D02*
X204271000Y-42915055D01*
X204271000Y-44995055D02*
X204271000Y-45455055D01*
X204311000Y-42512055D02*
X204311000Y-42915055D01*
X204311000Y-44995055D02*
X204311000Y-45398055D01*
X204351000Y-42572055D02*
X204351000Y-42915055D01*
X204351000Y-44995055D02*
X204351000Y-45338055D01*
X204391000Y-42636055D02*
X204391000Y-42915055D01*
X204391000Y-44995055D02*
X204391000Y-45274055D01*
X204431000Y-42704055D02*
X204431000Y-42915055D01*
X204431000Y-44995055D02*
X204431000Y-45206055D01*
X204471000Y-42777055D02*
X204471000Y-45133055D01*
X204511000Y-42857055D02*
X204511000Y-45053055D01*
X204551000Y-42944055D02*
X204551000Y-44966055D01*
X204591000Y-43040055D02*
X204591000Y-44870055D01*
X204631000Y-43150055D02*
X204631000Y-44760055D01*
X204671000Y-43278055D02*
X204671000Y-44632055D01*
X204711000Y-43437055D02*
X204711000Y-44473055D01*
X204751000Y-43671055D02*
X204751000Y-44239055D01*
X204770000Y-43955055D02*
G75*
G02*
X199530000Y-43955055I-2620000J0D01*
G01*
X199530000Y-43955055D02*
G75*
G02*
X204770000Y-43955055I2620000J0D01*
G01*
%TO.C,R2*%
X136065000Y-127672936D02*
X136065000Y-128127064D01*
X137535000Y-127672936D02*
X137535000Y-128127064D01*
%TO.C,R1*%
X139015000Y-93827991D02*
X139015000Y-94282119D01*
X140485000Y-93827991D02*
X140485000Y-94282119D01*
%TO.C,D2*%
X168235000Y-110060055D02*
X168235000Y-113150055D01*
X168235000Y-110060225D02*
G75*
G02*
X173785000Y-111605517I2560000J-1544830D01*
G01*
X173785000Y-111604593D02*
G75*
G02*
X168235000Y-113149885I-2990000J-462D01*
G01*
X173295000Y-111605055D02*
G75*
G02*
X168295000Y-111605055I-2500000J0D01*
G01*
X168295000Y-111605055D02*
G75*
G02*
X173295000Y-111605055I2500000J0D01*
G01*
%TO.C,J2*%
X136690000Y-69005055D02*
X136690000Y-70915055D01*
X136690000Y-70915055D02*
X138600000Y-70915055D01*
X137000000Y-67005055D02*
X137000000Y-70605055D01*
X137000000Y-68555055D02*
X137300000Y-68555055D01*
X137000000Y-69305055D02*
X137300000Y-69305055D01*
X137000000Y-70605055D02*
X143850000Y-70605055D01*
X137300000Y-67455055D02*
X137600000Y-67455055D01*
X137300000Y-68555055D02*
X137300000Y-67455055D01*
X137300000Y-69305055D02*
X137300000Y-70305055D01*
X137300000Y-70305055D02*
X143550000Y-70305055D01*
X137600000Y-67455055D02*
X137600000Y-67005055D01*
X137600000Y-67455055D02*
X138800000Y-67455055D01*
X138800000Y-67155055D02*
X139550000Y-67155055D01*
X138800000Y-67455055D02*
X138800000Y-67155055D01*
X139550000Y-67155055D02*
X139550000Y-67455055D01*
X139550000Y-67455055D02*
X141300000Y-67455055D01*
X141300000Y-67155055D02*
X142050000Y-67155055D01*
X141300000Y-67455055D02*
X141300000Y-67155055D01*
X142050000Y-67155055D02*
X142050000Y-67455055D01*
X142050000Y-67455055D02*
X143250000Y-67455055D01*
X143250000Y-67455055D02*
X143250000Y-67005055D01*
X143550000Y-67455055D02*
X143250000Y-67455055D01*
X143550000Y-68555055D02*
X143550000Y-67455055D01*
X143550000Y-69305055D02*
X143850000Y-69305055D01*
X143550000Y-70305055D02*
X143550000Y-69305055D01*
X143850000Y-67005055D02*
X137000000Y-67005055D01*
X143850000Y-68555055D02*
X143550000Y-68555055D01*
X143850000Y-70605055D02*
X143850000Y-67005055D01*
%TO.C,R3*%
X133115000Y-93827991D02*
X133115000Y-94282119D01*
X134585000Y-93827991D02*
X134585000Y-94282119D01*
%TO.C,D1*%
X168235000Y-84810055D02*
X168235000Y-87900055D01*
X168235000Y-84810225D02*
G75*
G02*
X173785000Y-86355517I2560000J-1544830D01*
G01*
X173785000Y-86354593D02*
G75*
G02*
X168235000Y-87899885I-2990000J-462D01*
G01*
X173295000Y-86355055D02*
G75*
G02*
X168295000Y-86355055I-2500000J0D01*
G01*
X168295000Y-86355055D02*
G75*
G02*
X173295000Y-86355055I2500000J0D01*
G01*
X168235000Y-51010055D02*
X168235000Y-54100055D01*
X168235000Y-51010225D02*
G75*
G02*
X173785000Y-52555517I2560000J-1544830D01*
G01*
X173785000Y-52554593D02*
G75*
G02*
X168235000Y-54099885I-2990000J-462D01*
G01*
X173295000Y-52555055D02*
G75*
G02*
X168295000Y-52555055I-2500000J0D01*
G01*
X168295000Y-52555055D02*
G75*
G02*
X173295000Y-52555055I2500000J0D01*
G01*
%TO.C,FTSW1*%
D13*
X176700000Y-73455055D02*
X196300000Y-73455055D01*
X196300000Y-90655055D01*
X176700000Y-90655055D01*
X176700000Y-73455055D01*
D12*
%TO.C,D2*%
X117235000Y-110055000D02*
X117235000Y-113145000D01*
X117235000Y-110055170D02*
G75*
G02*
X122785000Y-111600462I2560000J-1544830D01*
G01*
X122785000Y-111599538D02*
G75*
G02*
X117235000Y-113144830I-2990000J-462D01*
G01*
X122295000Y-111600000D02*
G75*
G02*
X117295000Y-111600000I-2500000J0D01*
G01*
X117295000Y-111600000D02*
G75*
G02*
X122295000Y-111600000I2500000J0D01*
G01*
%TO.C,R3*%
X184115000Y-127677991D02*
X184115000Y-128132119D01*
X185585000Y-127677991D02*
X185585000Y-128132119D01*
%TO.C,J1*%
X126890000Y-69005055D02*
X126890000Y-70915055D01*
X126890000Y-70915055D02*
X128800000Y-70915055D01*
X127200000Y-67005055D02*
X127200000Y-70605055D01*
X127200000Y-68555055D02*
X127500000Y-68555055D01*
X127200000Y-69305055D02*
X127500000Y-69305055D01*
X127200000Y-70605055D02*
X134050000Y-70605055D01*
X127500000Y-67455055D02*
X127800000Y-67455055D01*
X127500000Y-68555055D02*
X127500000Y-67455055D01*
X127500000Y-69305055D02*
X127500000Y-70305055D01*
X127500000Y-70305055D02*
X133750000Y-70305055D01*
X127800000Y-67455055D02*
X127800000Y-67005055D01*
X127800000Y-67455055D02*
X129000000Y-67455055D01*
X129000000Y-67155055D02*
X129750000Y-67155055D01*
X129000000Y-67455055D02*
X129000000Y-67155055D01*
X129750000Y-67155055D02*
X129750000Y-67455055D01*
X129750000Y-67455055D02*
X131500000Y-67455055D01*
X131500000Y-67155055D02*
X132250000Y-67155055D01*
X131500000Y-67455055D02*
X131500000Y-67155055D01*
X132250000Y-67155055D02*
X132250000Y-67455055D01*
X132250000Y-67455055D02*
X133450000Y-67455055D01*
X133450000Y-67455055D02*
X133450000Y-67005055D01*
X133750000Y-67455055D02*
X133450000Y-67455055D01*
X133750000Y-68555055D02*
X133750000Y-67455055D01*
X133750000Y-69305055D02*
X134050000Y-69305055D01*
X133750000Y-70305055D02*
X133750000Y-69305055D01*
X134050000Y-67005055D02*
X127200000Y-67005055D01*
X134050000Y-68555055D02*
X133750000Y-68555055D01*
X134050000Y-70605055D02*
X134050000Y-67005055D01*
%TO.C,C1*%
X199345225Y-76280055D02*
X199845225Y-76280055D01*
X199595225Y-76030055D02*
X199595225Y-76530055D01*
X202150000Y-75175055D02*
X202150000Y-80335055D01*
X202190000Y-75175055D02*
X202190000Y-80335055D01*
X202230000Y-75176055D02*
X202230000Y-80334055D01*
X202270000Y-75177055D02*
X202270000Y-80333055D01*
X202310000Y-75179055D02*
X202310000Y-80331055D01*
X202350000Y-75182055D02*
X202350000Y-80328055D01*
X202390000Y-75186055D02*
X202390000Y-76715055D01*
X202390000Y-78795055D02*
X202390000Y-80324055D01*
X202430000Y-75190055D02*
X202430000Y-76715055D01*
X202430000Y-78795055D02*
X202430000Y-80320055D01*
X202470000Y-75194055D02*
X202470000Y-76715055D01*
X202470000Y-78795055D02*
X202470000Y-80316055D01*
X202510000Y-75199055D02*
X202510000Y-76715055D01*
X202510000Y-78795055D02*
X202510000Y-80311055D01*
X202550000Y-75205055D02*
X202550000Y-76715055D01*
X202550000Y-78795055D02*
X202550000Y-80305055D01*
X202590000Y-75212055D02*
X202590000Y-76715055D01*
X202590000Y-78795055D02*
X202590000Y-80298055D01*
X202630000Y-75219055D02*
X202630000Y-76715055D01*
X202630000Y-78795055D02*
X202630000Y-80291055D01*
X202670000Y-75227055D02*
X202670000Y-76715055D01*
X202670000Y-78795055D02*
X202670000Y-80283055D01*
X202710000Y-75235055D02*
X202710000Y-76715055D01*
X202710000Y-78795055D02*
X202710000Y-80275055D01*
X202750000Y-75244055D02*
X202750000Y-76715055D01*
X202750000Y-78795055D02*
X202750000Y-80266055D01*
X202790000Y-75254055D02*
X202790000Y-76715055D01*
X202790000Y-78795055D02*
X202790000Y-80256055D01*
X202830000Y-75264055D02*
X202830000Y-76715055D01*
X202830000Y-78795055D02*
X202830000Y-80246055D01*
X202871000Y-75275055D02*
X202871000Y-76715055D01*
X202871000Y-78795055D02*
X202871000Y-80235055D01*
X202911000Y-75287055D02*
X202911000Y-76715055D01*
X202911000Y-78795055D02*
X202911000Y-80223055D01*
X202951000Y-75300055D02*
X202951000Y-76715055D01*
X202951000Y-78795055D02*
X202951000Y-80210055D01*
X202991000Y-75313055D02*
X202991000Y-76715055D01*
X202991000Y-78795055D02*
X202991000Y-80197055D01*
X203031000Y-75327055D02*
X203031000Y-76715055D01*
X203031000Y-78795055D02*
X203031000Y-80183055D01*
X203071000Y-75341055D02*
X203071000Y-76715055D01*
X203071000Y-78795055D02*
X203071000Y-80169055D01*
X203111000Y-75357055D02*
X203111000Y-76715055D01*
X203111000Y-78795055D02*
X203111000Y-80153055D01*
X203151000Y-75373055D02*
X203151000Y-76715055D01*
X203151000Y-78795055D02*
X203151000Y-80137055D01*
X203191000Y-75390055D02*
X203191000Y-76715055D01*
X203191000Y-78795055D02*
X203191000Y-80120055D01*
X203231000Y-75407055D02*
X203231000Y-76715055D01*
X203231000Y-78795055D02*
X203231000Y-80103055D01*
X203271000Y-75426055D02*
X203271000Y-76715055D01*
X203271000Y-78795055D02*
X203271000Y-80084055D01*
X203311000Y-75445055D02*
X203311000Y-76715055D01*
X203311000Y-78795055D02*
X203311000Y-80065055D01*
X203351000Y-75465055D02*
X203351000Y-76715055D01*
X203351000Y-78795055D02*
X203351000Y-80045055D01*
X203391000Y-75487055D02*
X203391000Y-76715055D01*
X203391000Y-78795055D02*
X203391000Y-80023055D01*
X203431000Y-75508055D02*
X203431000Y-76715055D01*
X203431000Y-78795055D02*
X203431000Y-80002055D01*
X203471000Y-75531055D02*
X203471000Y-76715055D01*
X203471000Y-78795055D02*
X203471000Y-79979055D01*
X203511000Y-75555055D02*
X203511000Y-76715055D01*
X203511000Y-78795055D02*
X203511000Y-79955055D01*
X203551000Y-75580055D02*
X203551000Y-76715055D01*
X203551000Y-78795055D02*
X203551000Y-79930055D01*
X203591000Y-75606055D02*
X203591000Y-76715055D01*
X203591000Y-78795055D02*
X203591000Y-79904055D01*
X203631000Y-75633055D02*
X203631000Y-76715055D01*
X203631000Y-78795055D02*
X203631000Y-79877055D01*
X203671000Y-75660055D02*
X203671000Y-76715055D01*
X203671000Y-78795055D02*
X203671000Y-79850055D01*
X203711000Y-75690055D02*
X203711000Y-76715055D01*
X203711000Y-78795055D02*
X203711000Y-79820055D01*
X203751000Y-75720055D02*
X203751000Y-76715055D01*
X203751000Y-78795055D02*
X203751000Y-79790055D01*
X203791000Y-75751055D02*
X203791000Y-76715055D01*
X203791000Y-78795055D02*
X203791000Y-79759055D01*
X203831000Y-75784055D02*
X203831000Y-76715055D01*
X203831000Y-78795055D02*
X203831000Y-79726055D01*
X203871000Y-75818055D02*
X203871000Y-76715055D01*
X203871000Y-78795055D02*
X203871000Y-79692055D01*
X203911000Y-75854055D02*
X203911000Y-76715055D01*
X203911000Y-78795055D02*
X203911000Y-79656055D01*
X203951000Y-75891055D02*
X203951000Y-76715055D01*
X203951000Y-78795055D02*
X203951000Y-79619055D01*
X203991000Y-75929055D02*
X203991000Y-76715055D01*
X203991000Y-78795055D02*
X203991000Y-79581055D01*
X204031000Y-75970055D02*
X204031000Y-76715055D01*
X204031000Y-78795055D02*
X204031000Y-79540055D01*
X204071000Y-76012055D02*
X204071000Y-76715055D01*
X204071000Y-78795055D02*
X204071000Y-79498055D01*
X204111000Y-76056055D02*
X204111000Y-76715055D01*
X204111000Y-78795055D02*
X204111000Y-79454055D01*
X204151000Y-76102055D02*
X204151000Y-76715055D01*
X204151000Y-78795055D02*
X204151000Y-79408055D01*
X204191000Y-76150055D02*
X204191000Y-76715055D01*
X204191000Y-78795055D02*
X204191000Y-79360055D01*
X204231000Y-76201055D02*
X204231000Y-76715055D01*
X204231000Y-78795055D02*
X204231000Y-79309055D01*
X204271000Y-76255055D02*
X204271000Y-76715055D01*
X204271000Y-78795055D02*
X204271000Y-79255055D01*
X204311000Y-76312055D02*
X204311000Y-76715055D01*
X204311000Y-78795055D02*
X204311000Y-79198055D01*
X204351000Y-76372055D02*
X204351000Y-76715055D01*
X204351000Y-78795055D02*
X204351000Y-79138055D01*
X204391000Y-76436055D02*
X204391000Y-76715055D01*
X204391000Y-78795055D02*
X204391000Y-79074055D01*
X204431000Y-76504055D02*
X204431000Y-76715055D01*
X204431000Y-78795055D02*
X204431000Y-79006055D01*
X204471000Y-76577055D02*
X204471000Y-78933055D01*
X204511000Y-76657055D02*
X204511000Y-78853055D01*
X204551000Y-76744055D02*
X204551000Y-78766055D01*
X204591000Y-76840055D02*
X204591000Y-78670055D01*
X204631000Y-76950055D02*
X204631000Y-78560055D01*
X204671000Y-77078055D02*
X204671000Y-78432055D01*
X204711000Y-77237055D02*
X204711000Y-78273055D01*
X204751000Y-77471055D02*
X204751000Y-78039055D01*
X204770000Y-77755055D02*
G75*
G02*
X199530000Y-77755055I-2620000J0D01*
G01*
X199530000Y-77755055D02*
G75*
G02*
X204770000Y-77755055I2620000J0D01*
G01*
%TO.C,R3*%
X133115000Y-127672936D02*
X133115000Y-128127064D01*
X134585000Y-127672936D02*
X134585000Y-128127064D01*
X133115000Y-59977991D02*
X133115000Y-60432119D01*
X134585000Y-59977991D02*
X134585000Y-60432119D01*
%TO.C,C2*%
X148340113Y-118725000D02*
X148840113Y-118725000D01*
X148590113Y-118475000D02*
X148590113Y-118975000D01*
X151144888Y-117620000D02*
X151144888Y-122780000D01*
X151184888Y-117620000D02*
X151184888Y-122780000D01*
X151224888Y-117621000D02*
X151224888Y-122779000D01*
X151264888Y-117622000D02*
X151264888Y-122778000D01*
X151304888Y-117624000D02*
X151304888Y-122776000D01*
X151344888Y-117627000D02*
X151344888Y-122773000D01*
X151384888Y-117631000D02*
X151384888Y-119160000D01*
X151384888Y-121240000D02*
X151384888Y-122769000D01*
X151424888Y-117635000D02*
X151424888Y-119160000D01*
X151424888Y-121240000D02*
X151424888Y-122765000D01*
X151464888Y-117639000D02*
X151464888Y-119160000D01*
X151464888Y-121240000D02*
X151464888Y-122761000D01*
X151504888Y-117644000D02*
X151504888Y-119160000D01*
X151504888Y-121240000D02*
X151504888Y-122756000D01*
X151544888Y-117650000D02*
X151544888Y-119160000D01*
X151544888Y-121240000D02*
X151544888Y-122750000D01*
X151584888Y-117657000D02*
X151584888Y-119160000D01*
X151584888Y-121240000D02*
X151584888Y-122743000D01*
X151624888Y-117664000D02*
X151624888Y-119160000D01*
X151624888Y-121240000D02*
X151624888Y-122736000D01*
X151664888Y-117672000D02*
X151664888Y-119160000D01*
X151664888Y-121240000D02*
X151664888Y-122728000D01*
X151704888Y-117680000D02*
X151704888Y-119160000D01*
X151704888Y-121240000D02*
X151704888Y-122720000D01*
X151744888Y-117689000D02*
X151744888Y-119160000D01*
X151744888Y-121240000D02*
X151744888Y-122711000D01*
X151784888Y-117699000D02*
X151784888Y-119160000D01*
X151784888Y-121240000D02*
X151784888Y-122701000D01*
X151824888Y-117709000D02*
X151824888Y-119160000D01*
X151824888Y-121240000D02*
X151824888Y-122691000D01*
X151865888Y-117720000D02*
X151865888Y-119160000D01*
X151865888Y-121240000D02*
X151865888Y-122680000D01*
X151905888Y-117732000D02*
X151905888Y-119160000D01*
X151905888Y-121240000D02*
X151905888Y-122668000D01*
X151945888Y-117745000D02*
X151945888Y-119160000D01*
X151945888Y-121240000D02*
X151945888Y-122655000D01*
X151985888Y-117758000D02*
X151985888Y-119160000D01*
X151985888Y-121240000D02*
X151985888Y-122642000D01*
X152025888Y-117772000D02*
X152025888Y-119160000D01*
X152025888Y-121240000D02*
X152025888Y-122628000D01*
X152065888Y-117786000D02*
X152065888Y-119160000D01*
X152065888Y-121240000D02*
X152065888Y-122614000D01*
X152105888Y-117802000D02*
X152105888Y-119160000D01*
X152105888Y-121240000D02*
X152105888Y-122598000D01*
X152145888Y-117818000D02*
X152145888Y-119160000D01*
X152145888Y-121240000D02*
X152145888Y-122582000D01*
X152185888Y-117835000D02*
X152185888Y-119160000D01*
X152185888Y-121240000D02*
X152185888Y-122565000D01*
X152225888Y-117852000D02*
X152225888Y-119160000D01*
X152225888Y-121240000D02*
X152225888Y-122548000D01*
X152265888Y-117871000D02*
X152265888Y-119160000D01*
X152265888Y-121240000D02*
X152265888Y-122529000D01*
X152305888Y-117890000D02*
X152305888Y-119160000D01*
X152305888Y-121240000D02*
X152305888Y-122510000D01*
X152345888Y-117910000D02*
X152345888Y-119160000D01*
X152345888Y-121240000D02*
X152345888Y-122490000D01*
X152385888Y-117932000D02*
X152385888Y-119160000D01*
X152385888Y-121240000D02*
X152385888Y-122468000D01*
X152425888Y-117953000D02*
X152425888Y-119160000D01*
X152425888Y-121240000D02*
X152425888Y-122447000D01*
X152465888Y-117976000D02*
X152465888Y-119160000D01*
X152465888Y-121240000D02*
X152465888Y-122424000D01*
X152505888Y-118000000D02*
X152505888Y-119160000D01*
X152505888Y-121240000D02*
X152505888Y-122400000D01*
X152545888Y-118025000D02*
X152545888Y-119160000D01*
X152545888Y-121240000D02*
X152545888Y-122375000D01*
X152585888Y-118051000D02*
X152585888Y-119160000D01*
X152585888Y-121240000D02*
X152585888Y-122349000D01*
X152625888Y-118078000D02*
X152625888Y-119160000D01*
X152625888Y-121240000D02*
X152625888Y-122322000D01*
X152665888Y-118105000D02*
X152665888Y-119160000D01*
X152665888Y-121240000D02*
X152665888Y-122295000D01*
X152705888Y-118135000D02*
X152705888Y-119160000D01*
X152705888Y-121240000D02*
X152705888Y-122265000D01*
X152745888Y-118165000D02*
X152745888Y-119160000D01*
X152745888Y-121240000D02*
X152745888Y-122235000D01*
X152785888Y-118196000D02*
X152785888Y-119160000D01*
X152785888Y-121240000D02*
X152785888Y-122204000D01*
X152825888Y-118229000D02*
X152825888Y-119160000D01*
X152825888Y-121240000D02*
X152825888Y-122171000D01*
X152865888Y-118263000D02*
X152865888Y-119160000D01*
X152865888Y-121240000D02*
X152865888Y-122137000D01*
X152905888Y-118299000D02*
X152905888Y-119160000D01*
X152905888Y-121240000D02*
X152905888Y-122101000D01*
X152945888Y-118336000D02*
X152945888Y-119160000D01*
X152945888Y-121240000D02*
X152945888Y-122064000D01*
X152985888Y-118374000D02*
X152985888Y-119160000D01*
X152985888Y-121240000D02*
X152985888Y-122026000D01*
X153025888Y-118415000D02*
X153025888Y-119160000D01*
X153025888Y-121240000D02*
X153025888Y-121985000D01*
X153065888Y-118457000D02*
X153065888Y-119160000D01*
X153065888Y-121240000D02*
X153065888Y-121943000D01*
X153105888Y-118501000D02*
X153105888Y-119160000D01*
X153105888Y-121240000D02*
X153105888Y-121899000D01*
X153145888Y-118547000D02*
X153145888Y-119160000D01*
X153145888Y-121240000D02*
X153145888Y-121853000D01*
X153185888Y-118595000D02*
X153185888Y-119160000D01*
X153185888Y-121240000D02*
X153185888Y-121805000D01*
X153225888Y-118646000D02*
X153225888Y-119160000D01*
X153225888Y-121240000D02*
X153225888Y-121754000D01*
X153265888Y-118700000D02*
X153265888Y-119160000D01*
X153265888Y-121240000D02*
X153265888Y-121700000D01*
X153305888Y-118757000D02*
X153305888Y-119160000D01*
X153305888Y-121240000D02*
X153305888Y-121643000D01*
X153345888Y-118817000D02*
X153345888Y-119160000D01*
X153345888Y-121240000D02*
X153345888Y-121583000D01*
X153385888Y-118881000D02*
X153385888Y-119160000D01*
X153385888Y-121240000D02*
X153385888Y-121519000D01*
X153425888Y-118949000D02*
X153425888Y-119160000D01*
X153425888Y-121240000D02*
X153425888Y-121451000D01*
X153465888Y-119022000D02*
X153465888Y-121378000D01*
X153505888Y-119102000D02*
X153505888Y-121298000D01*
X153545888Y-119189000D02*
X153545888Y-121211000D01*
X153585888Y-119285000D02*
X153585888Y-121115000D01*
X153625888Y-119395000D02*
X153625888Y-121005000D01*
X153665888Y-119523000D02*
X153665888Y-120877000D01*
X153705888Y-119682000D02*
X153705888Y-120718000D01*
X153745888Y-119916000D02*
X153745888Y-120484000D01*
X153764888Y-120200000D02*
G75*
G02*
X148524888Y-120200000I-2620000J0D01*
G01*
X148524888Y-120200000D02*
G75*
G02*
X153764888Y-120200000I2620000J0D01*
G01*
%TO.C,D2*%
X168235000Y-76210055D02*
X168235000Y-79300055D01*
X168235000Y-76210225D02*
G75*
G02*
X173785000Y-77755517I2560000J-1544830D01*
G01*
X173785000Y-77754593D02*
G75*
G02*
X168235000Y-79299885I-2990000J-462D01*
G01*
X173295000Y-77755055D02*
G75*
G02*
X168295000Y-77755055I-2500000J0D01*
G01*
X168295000Y-77755055D02*
G75*
G02*
X173295000Y-77755055I2500000J0D01*
G01*
%TO.C,R2*%
X187065000Y-60027991D02*
X187065000Y-60482119D01*
X188535000Y-60027991D02*
X188535000Y-60482119D01*
%TO.C,J2*%
X136690000Y-102850000D02*
X136690000Y-104760000D01*
X136690000Y-104760000D02*
X138600000Y-104760000D01*
X137000000Y-100850000D02*
X137000000Y-104450000D01*
X137000000Y-102400000D02*
X137300000Y-102400000D01*
X137000000Y-103150000D02*
X137300000Y-103150000D01*
X137000000Y-104450000D02*
X143850000Y-104450000D01*
X137300000Y-101300000D02*
X137600000Y-101300000D01*
X137300000Y-102400000D02*
X137300000Y-101300000D01*
X137300000Y-103150000D02*
X137300000Y-104150000D01*
X137300000Y-104150000D02*
X143550000Y-104150000D01*
X137600000Y-101300000D02*
X137600000Y-100850000D01*
X137600000Y-101300000D02*
X138800000Y-101300000D01*
X138800000Y-101000000D02*
X139550000Y-101000000D01*
X138800000Y-101300000D02*
X138800000Y-101000000D01*
X139550000Y-101000000D02*
X139550000Y-101300000D01*
X139550000Y-101300000D02*
X141300000Y-101300000D01*
X141300000Y-101000000D02*
X142050000Y-101000000D01*
X141300000Y-101300000D02*
X141300000Y-101000000D01*
X142050000Y-101000000D02*
X142050000Y-101300000D01*
X142050000Y-101300000D02*
X143250000Y-101300000D01*
X143250000Y-101300000D02*
X143250000Y-100850000D01*
X143550000Y-101300000D02*
X143250000Y-101300000D01*
X143550000Y-102400000D02*
X143550000Y-101300000D01*
X143550000Y-103150000D02*
X143850000Y-103150000D01*
X143550000Y-104150000D02*
X143550000Y-103150000D01*
X143850000Y-100850000D02*
X137000000Y-100850000D01*
X143850000Y-102400000D02*
X143550000Y-102400000D01*
X143850000Y-104450000D02*
X143850000Y-100850000D01*
%TO.C,R4*%
X130165000Y-127672936D02*
X130165000Y-128127064D01*
X131635000Y-127672936D02*
X131635000Y-128127064D01*
%TO.C,R1*%
X139015000Y-59977991D02*
X139015000Y-60432119D01*
X140485000Y-59977991D02*
X140485000Y-60432119D01*
%TO.C,C2*%
X148340113Y-51030055D02*
X148840113Y-51030055D01*
X148590113Y-50780055D02*
X148590113Y-51280055D01*
X151144888Y-49925055D02*
X151144888Y-55085055D01*
X151184888Y-49925055D02*
X151184888Y-55085055D01*
X151224888Y-49926055D02*
X151224888Y-55084055D01*
X151264888Y-49927055D02*
X151264888Y-55083055D01*
X151304888Y-49929055D02*
X151304888Y-55081055D01*
X151344888Y-49932055D02*
X151344888Y-55078055D01*
X151384888Y-49936055D02*
X151384888Y-51465055D01*
X151384888Y-53545055D02*
X151384888Y-55074055D01*
X151424888Y-49940055D02*
X151424888Y-51465055D01*
X151424888Y-53545055D02*
X151424888Y-55070055D01*
X151464888Y-49944055D02*
X151464888Y-51465055D01*
X151464888Y-53545055D02*
X151464888Y-55066055D01*
X151504888Y-49949055D02*
X151504888Y-51465055D01*
X151504888Y-53545055D02*
X151504888Y-55061055D01*
X151544888Y-49955055D02*
X151544888Y-51465055D01*
X151544888Y-53545055D02*
X151544888Y-55055055D01*
X151584888Y-49962055D02*
X151584888Y-51465055D01*
X151584888Y-53545055D02*
X151584888Y-55048055D01*
X151624888Y-49969055D02*
X151624888Y-51465055D01*
X151624888Y-53545055D02*
X151624888Y-55041055D01*
X151664888Y-49977055D02*
X151664888Y-51465055D01*
X151664888Y-53545055D02*
X151664888Y-55033055D01*
X151704888Y-49985055D02*
X151704888Y-51465055D01*
X151704888Y-53545055D02*
X151704888Y-55025055D01*
X151744888Y-49994055D02*
X151744888Y-51465055D01*
X151744888Y-53545055D02*
X151744888Y-55016055D01*
X151784888Y-50004055D02*
X151784888Y-51465055D01*
X151784888Y-53545055D02*
X151784888Y-55006055D01*
X151824888Y-50014055D02*
X151824888Y-51465055D01*
X151824888Y-53545055D02*
X151824888Y-54996055D01*
X151865888Y-50025055D02*
X151865888Y-51465055D01*
X151865888Y-53545055D02*
X151865888Y-54985055D01*
X151905888Y-50037055D02*
X151905888Y-51465055D01*
X151905888Y-53545055D02*
X151905888Y-54973055D01*
X151945888Y-50050055D02*
X151945888Y-51465055D01*
X151945888Y-53545055D02*
X151945888Y-54960055D01*
X151985888Y-50063055D02*
X151985888Y-51465055D01*
X151985888Y-53545055D02*
X151985888Y-54947055D01*
X152025888Y-50077055D02*
X152025888Y-51465055D01*
X152025888Y-53545055D02*
X152025888Y-54933055D01*
X152065888Y-50091055D02*
X152065888Y-51465055D01*
X152065888Y-53545055D02*
X152065888Y-54919055D01*
X152105888Y-50107055D02*
X152105888Y-51465055D01*
X152105888Y-53545055D02*
X152105888Y-54903055D01*
X152145888Y-50123055D02*
X152145888Y-51465055D01*
X152145888Y-53545055D02*
X152145888Y-54887055D01*
X152185888Y-50140055D02*
X152185888Y-51465055D01*
X152185888Y-53545055D02*
X152185888Y-54870055D01*
X152225888Y-50157055D02*
X152225888Y-51465055D01*
X152225888Y-53545055D02*
X152225888Y-54853055D01*
X152265888Y-50176055D02*
X152265888Y-51465055D01*
X152265888Y-53545055D02*
X152265888Y-54834055D01*
X152305888Y-50195055D02*
X152305888Y-51465055D01*
X152305888Y-53545055D02*
X152305888Y-54815055D01*
X152345888Y-50215055D02*
X152345888Y-51465055D01*
X152345888Y-53545055D02*
X152345888Y-54795055D01*
X152385888Y-50237055D02*
X152385888Y-51465055D01*
X152385888Y-53545055D02*
X152385888Y-54773055D01*
X152425888Y-50258055D02*
X152425888Y-51465055D01*
X152425888Y-53545055D02*
X152425888Y-54752055D01*
X152465888Y-50281055D02*
X152465888Y-51465055D01*
X152465888Y-53545055D02*
X152465888Y-54729055D01*
X152505888Y-50305055D02*
X152505888Y-51465055D01*
X152505888Y-53545055D02*
X152505888Y-54705055D01*
X152545888Y-50330055D02*
X152545888Y-51465055D01*
X152545888Y-53545055D02*
X152545888Y-54680055D01*
X152585888Y-50356055D02*
X152585888Y-51465055D01*
X152585888Y-53545055D02*
X152585888Y-54654055D01*
X152625888Y-50383055D02*
X152625888Y-51465055D01*
X152625888Y-53545055D02*
X152625888Y-54627055D01*
X152665888Y-50410055D02*
X152665888Y-51465055D01*
X152665888Y-53545055D02*
X152665888Y-54600055D01*
X152705888Y-50440055D02*
X152705888Y-51465055D01*
X152705888Y-53545055D02*
X152705888Y-54570055D01*
X152745888Y-50470055D02*
X152745888Y-51465055D01*
X152745888Y-53545055D02*
X152745888Y-54540055D01*
X152785888Y-50501055D02*
X152785888Y-51465055D01*
X152785888Y-53545055D02*
X152785888Y-54509055D01*
X152825888Y-50534055D02*
X152825888Y-51465055D01*
X152825888Y-53545055D02*
X152825888Y-54476055D01*
X152865888Y-50568055D02*
X152865888Y-51465055D01*
X152865888Y-53545055D02*
X152865888Y-54442055D01*
X152905888Y-50604055D02*
X152905888Y-51465055D01*
X152905888Y-53545055D02*
X152905888Y-54406055D01*
X152945888Y-50641055D02*
X152945888Y-51465055D01*
X152945888Y-53545055D02*
X152945888Y-54369055D01*
X152985888Y-50679055D02*
X152985888Y-51465055D01*
X152985888Y-53545055D02*
X152985888Y-54331055D01*
X153025888Y-50720055D02*
X153025888Y-51465055D01*
X153025888Y-53545055D02*
X153025888Y-54290055D01*
X153065888Y-50762055D02*
X153065888Y-51465055D01*
X153065888Y-53545055D02*
X153065888Y-54248055D01*
X153105888Y-50806055D02*
X153105888Y-51465055D01*
X153105888Y-53545055D02*
X153105888Y-54204055D01*
X153145888Y-50852055D02*
X153145888Y-51465055D01*
X153145888Y-53545055D02*
X153145888Y-54158055D01*
X153185888Y-50900055D02*
X153185888Y-51465055D01*
X153185888Y-53545055D02*
X153185888Y-54110055D01*
X153225888Y-50951055D02*
X153225888Y-51465055D01*
X153225888Y-53545055D02*
X153225888Y-54059055D01*
X153265888Y-51005055D02*
X153265888Y-51465055D01*
X153265888Y-53545055D02*
X153265888Y-54005055D01*
X153305888Y-51062055D02*
X153305888Y-51465055D01*
X153305888Y-53545055D02*
X153305888Y-53948055D01*
X153345888Y-51122055D02*
X153345888Y-51465055D01*
X153345888Y-53545055D02*
X153345888Y-53888055D01*
X153385888Y-51186055D02*
X153385888Y-51465055D01*
X153385888Y-53545055D02*
X153385888Y-53824055D01*
X153425888Y-51254055D02*
X153425888Y-51465055D01*
X153425888Y-53545055D02*
X153425888Y-53756055D01*
X153465888Y-51327055D02*
X153465888Y-53683055D01*
X153505888Y-51407055D02*
X153505888Y-53603055D01*
X153545888Y-51494055D02*
X153545888Y-53516055D01*
X153585888Y-51590055D02*
X153585888Y-53420055D01*
X153625888Y-51700055D02*
X153625888Y-53310055D01*
X153665888Y-51828055D02*
X153665888Y-53182055D01*
X153705888Y-51987055D02*
X153705888Y-53023055D01*
X153745888Y-52221055D02*
X153745888Y-52789055D01*
X153764888Y-52505055D02*
G75*
G02*
X148524888Y-52505055I-2620000J0D01*
G01*
X148524888Y-52505055D02*
G75*
G02*
X153764888Y-52505055I2620000J0D01*
G01*
%TO.C,FTSW1*%
D13*
X125700000Y-73455055D02*
X145300000Y-73455055D01*
X145300000Y-90655055D01*
X125700000Y-90655055D01*
X125700000Y-73455055D01*
D12*
%TO.C,C2*%
X148340113Y-84880055D02*
X148840113Y-84880055D01*
X148590113Y-84630055D02*
X148590113Y-85130055D01*
X151144888Y-83775055D02*
X151144888Y-88935055D01*
X151184888Y-83775055D02*
X151184888Y-88935055D01*
X151224888Y-83776055D02*
X151224888Y-88934055D01*
X151264888Y-83777055D02*
X151264888Y-88933055D01*
X151304888Y-83779055D02*
X151304888Y-88931055D01*
X151344888Y-83782055D02*
X151344888Y-88928055D01*
X151384888Y-83786055D02*
X151384888Y-85315055D01*
X151384888Y-87395055D02*
X151384888Y-88924055D01*
X151424888Y-83790055D02*
X151424888Y-85315055D01*
X151424888Y-87395055D02*
X151424888Y-88920055D01*
X151464888Y-83794055D02*
X151464888Y-85315055D01*
X151464888Y-87395055D02*
X151464888Y-88916055D01*
X151504888Y-83799055D02*
X151504888Y-85315055D01*
X151504888Y-87395055D02*
X151504888Y-88911055D01*
X151544888Y-83805055D02*
X151544888Y-85315055D01*
X151544888Y-87395055D02*
X151544888Y-88905055D01*
X151584888Y-83812055D02*
X151584888Y-85315055D01*
X151584888Y-87395055D02*
X151584888Y-88898055D01*
X151624888Y-83819055D02*
X151624888Y-85315055D01*
X151624888Y-87395055D02*
X151624888Y-88891055D01*
X151664888Y-83827055D02*
X151664888Y-85315055D01*
X151664888Y-87395055D02*
X151664888Y-88883055D01*
X151704888Y-83835055D02*
X151704888Y-85315055D01*
X151704888Y-87395055D02*
X151704888Y-88875055D01*
X151744888Y-83844055D02*
X151744888Y-85315055D01*
X151744888Y-87395055D02*
X151744888Y-88866055D01*
X151784888Y-83854055D02*
X151784888Y-85315055D01*
X151784888Y-87395055D02*
X151784888Y-88856055D01*
X151824888Y-83864055D02*
X151824888Y-85315055D01*
X151824888Y-87395055D02*
X151824888Y-88846055D01*
X151865888Y-83875055D02*
X151865888Y-85315055D01*
X151865888Y-87395055D02*
X151865888Y-88835055D01*
X151905888Y-83887055D02*
X151905888Y-85315055D01*
X151905888Y-87395055D02*
X151905888Y-88823055D01*
X151945888Y-83900055D02*
X151945888Y-85315055D01*
X151945888Y-87395055D02*
X151945888Y-88810055D01*
X151985888Y-83913055D02*
X151985888Y-85315055D01*
X151985888Y-87395055D02*
X151985888Y-88797055D01*
X152025888Y-83927055D02*
X152025888Y-85315055D01*
X152025888Y-87395055D02*
X152025888Y-88783055D01*
X152065888Y-83941055D02*
X152065888Y-85315055D01*
X152065888Y-87395055D02*
X152065888Y-88769055D01*
X152105888Y-83957055D02*
X152105888Y-85315055D01*
X152105888Y-87395055D02*
X152105888Y-88753055D01*
X152145888Y-83973055D02*
X152145888Y-85315055D01*
X152145888Y-87395055D02*
X152145888Y-88737055D01*
X152185888Y-83990055D02*
X152185888Y-85315055D01*
X152185888Y-87395055D02*
X152185888Y-88720055D01*
X152225888Y-84007055D02*
X152225888Y-85315055D01*
X152225888Y-87395055D02*
X152225888Y-88703055D01*
X152265888Y-84026055D02*
X152265888Y-85315055D01*
X152265888Y-87395055D02*
X152265888Y-88684055D01*
X152305888Y-84045055D02*
X152305888Y-85315055D01*
X152305888Y-87395055D02*
X152305888Y-88665055D01*
X152345888Y-84065055D02*
X152345888Y-85315055D01*
X152345888Y-87395055D02*
X152345888Y-88645055D01*
X152385888Y-84087055D02*
X152385888Y-85315055D01*
X152385888Y-87395055D02*
X152385888Y-88623055D01*
X152425888Y-84108055D02*
X152425888Y-85315055D01*
X152425888Y-87395055D02*
X152425888Y-88602055D01*
X152465888Y-84131055D02*
X152465888Y-85315055D01*
X152465888Y-87395055D02*
X152465888Y-88579055D01*
X152505888Y-84155055D02*
X152505888Y-85315055D01*
X152505888Y-87395055D02*
X152505888Y-88555055D01*
X152545888Y-84180055D02*
X152545888Y-85315055D01*
X152545888Y-87395055D02*
X152545888Y-88530055D01*
X152585888Y-84206055D02*
X152585888Y-85315055D01*
X152585888Y-87395055D02*
X152585888Y-88504055D01*
X152625888Y-84233055D02*
X152625888Y-85315055D01*
X152625888Y-87395055D02*
X152625888Y-88477055D01*
X152665888Y-84260055D02*
X152665888Y-85315055D01*
X152665888Y-87395055D02*
X152665888Y-88450055D01*
X152705888Y-84290055D02*
X152705888Y-85315055D01*
X152705888Y-87395055D02*
X152705888Y-88420055D01*
X152745888Y-84320055D02*
X152745888Y-85315055D01*
X152745888Y-87395055D02*
X152745888Y-88390055D01*
X152785888Y-84351055D02*
X152785888Y-85315055D01*
X152785888Y-87395055D02*
X152785888Y-88359055D01*
X152825888Y-84384055D02*
X152825888Y-85315055D01*
X152825888Y-87395055D02*
X152825888Y-88326055D01*
X152865888Y-84418055D02*
X152865888Y-85315055D01*
X152865888Y-87395055D02*
X152865888Y-88292055D01*
X152905888Y-84454055D02*
X152905888Y-85315055D01*
X152905888Y-87395055D02*
X152905888Y-88256055D01*
X152945888Y-84491055D02*
X152945888Y-85315055D01*
X152945888Y-87395055D02*
X152945888Y-88219055D01*
X152985888Y-84529055D02*
X152985888Y-85315055D01*
X152985888Y-87395055D02*
X152985888Y-88181055D01*
X153025888Y-84570055D02*
X153025888Y-85315055D01*
X153025888Y-87395055D02*
X153025888Y-88140055D01*
X153065888Y-84612055D02*
X153065888Y-85315055D01*
X153065888Y-87395055D02*
X153065888Y-88098055D01*
X153105888Y-84656055D02*
X153105888Y-85315055D01*
X153105888Y-87395055D02*
X153105888Y-88054055D01*
X153145888Y-84702055D02*
X153145888Y-85315055D01*
X153145888Y-87395055D02*
X153145888Y-88008055D01*
X153185888Y-84750055D02*
X153185888Y-85315055D01*
X153185888Y-87395055D02*
X153185888Y-87960055D01*
X153225888Y-84801055D02*
X153225888Y-85315055D01*
X153225888Y-87395055D02*
X153225888Y-87909055D01*
X153265888Y-84855055D02*
X153265888Y-85315055D01*
X153265888Y-87395055D02*
X153265888Y-87855055D01*
X153305888Y-84912055D02*
X153305888Y-85315055D01*
X153305888Y-87395055D02*
X153305888Y-87798055D01*
X153345888Y-84972055D02*
X153345888Y-85315055D01*
X153345888Y-87395055D02*
X153345888Y-87738055D01*
X153385888Y-85036055D02*
X153385888Y-85315055D01*
X153385888Y-87395055D02*
X153385888Y-87674055D01*
X153425888Y-85104055D02*
X153425888Y-85315055D01*
X153425888Y-87395055D02*
X153425888Y-87606055D01*
X153465888Y-85177055D02*
X153465888Y-87533055D01*
X153505888Y-85257055D02*
X153505888Y-87453055D01*
X153545888Y-85344055D02*
X153545888Y-87366055D01*
X153585888Y-85440055D02*
X153585888Y-87270055D01*
X153625888Y-85550055D02*
X153625888Y-87160055D01*
X153665888Y-85678055D02*
X153665888Y-87032055D01*
X153705888Y-85837055D02*
X153705888Y-86873055D01*
X153745888Y-86071055D02*
X153745888Y-86639055D01*
X153764888Y-86355055D02*
G75*
G02*
X148524888Y-86355055I-2620000J0D01*
G01*
X148524888Y-86355055D02*
G75*
G02*
X153764888Y-86355055I2620000J0D01*
G01*
X199340113Y-118730055D02*
X199840113Y-118730055D01*
X199590113Y-118480055D02*
X199590113Y-118980055D01*
X202144888Y-117625055D02*
X202144888Y-122785055D01*
X202184888Y-117625055D02*
X202184888Y-122785055D01*
X202224888Y-117626055D02*
X202224888Y-122784055D01*
X202264888Y-117627055D02*
X202264888Y-122783055D01*
X202304888Y-117629055D02*
X202304888Y-122781055D01*
X202344888Y-117632055D02*
X202344888Y-122778055D01*
X202384888Y-117636055D02*
X202384888Y-119165055D01*
X202384888Y-121245055D02*
X202384888Y-122774055D01*
X202424888Y-117640055D02*
X202424888Y-119165055D01*
X202424888Y-121245055D02*
X202424888Y-122770055D01*
X202464888Y-117644055D02*
X202464888Y-119165055D01*
X202464888Y-121245055D02*
X202464888Y-122766055D01*
X202504888Y-117649055D02*
X202504888Y-119165055D01*
X202504888Y-121245055D02*
X202504888Y-122761055D01*
X202544888Y-117655055D02*
X202544888Y-119165055D01*
X202544888Y-121245055D02*
X202544888Y-122755055D01*
X202584888Y-117662055D02*
X202584888Y-119165055D01*
X202584888Y-121245055D02*
X202584888Y-122748055D01*
X202624888Y-117669055D02*
X202624888Y-119165055D01*
X202624888Y-121245055D02*
X202624888Y-122741055D01*
X202664888Y-117677055D02*
X202664888Y-119165055D01*
X202664888Y-121245055D02*
X202664888Y-122733055D01*
X202704888Y-117685055D02*
X202704888Y-119165055D01*
X202704888Y-121245055D02*
X202704888Y-122725055D01*
X202744888Y-117694055D02*
X202744888Y-119165055D01*
X202744888Y-121245055D02*
X202744888Y-122716055D01*
X202784888Y-117704055D02*
X202784888Y-119165055D01*
X202784888Y-121245055D02*
X202784888Y-122706055D01*
X202824888Y-117714055D02*
X202824888Y-119165055D01*
X202824888Y-121245055D02*
X202824888Y-122696055D01*
X202865888Y-117725055D02*
X202865888Y-119165055D01*
X202865888Y-121245055D02*
X202865888Y-122685055D01*
X202905888Y-117737055D02*
X202905888Y-119165055D01*
X202905888Y-121245055D02*
X202905888Y-122673055D01*
X202945888Y-117750055D02*
X202945888Y-119165055D01*
X202945888Y-121245055D02*
X202945888Y-122660055D01*
X202985888Y-117763055D02*
X202985888Y-119165055D01*
X202985888Y-121245055D02*
X202985888Y-122647055D01*
X203025888Y-117777055D02*
X203025888Y-119165055D01*
X203025888Y-121245055D02*
X203025888Y-122633055D01*
X203065888Y-117791055D02*
X203065888Y-119165055D01*
X203065888Y-121245055D02*
X203065888Y-122619055D01*
X203105888Y-117807055D02*
X203105888Y-119165055D01*
X203105888Y-121245055D02*
X203105888Y-122603055D01*
X203145888Y-117823055D02*
X203145888Y-119165055D01*
X203145888Y-121245055D02*
X203145888Y-122587055D01*
X203185888Y-117840055D02*
X203185888Y-119165055D01*
X203185888Y-121245055D02*
X203185888Y-122570055D01*
X203225888Y-117857055D02*
X203225888Y-119165055D01*
X203225888Y-121245055D02*
X203225888Y-122553055D01*
X203265888Y-117876055D02*
X203265888Y-119165055D01*
X203265888Y-121245055D02*
X203265888Y-122534055D01*
X203305888Y-117895055D02*
X203305888Y-119165055D01*
X203305888Y-121245055D02*
X203305888Y-122515055D01*
X203345888Y-117915055D02*
X203345888Y-119165055D01*
X203345888Y-121245055D02*
X203345888Y-122495055D01*
X203385888Y-117937055D02*
X203385888Y-119165055D01*
X203385888Y-121245055D02*
X203385888Y-122473055D01*
X203425888Y-117958055D02*
X203425888Y-119165055D01*
X203425888Y-121245055D02*
X203425888Y-122452055D01*
X203465888Y-117981055D02*
X203465888Y-119165055D01*
X203465888Y-121245055D02*
X203465888Y-122429055D01*
X203505888Y-118005055D02*
X203505888Y-119165055D01*
X203505888Y-121245055D02*
X203505888Y-122405055D01*
X203545888Y-118030055D02*
X203545888Y-119165055D01*
X203545888Y-121245055D02*
X203545888Y-122380055D01*
X203585888Y-118056055D02*
X203585888Y-119165055D01*
X203585888Y-121245055D02*
X203585888Y-122354055D01*
X203625888Y-118083055D02*
X203625888Y-119165055D01*
X203625888Y-121245055D02*
X203625888Y-122327055D01*
X203665888Y-118110055D02*
X203665888Y-119165055D01*
X203665888Y-121245055D02*
X203665888Y-122300055D01*
X203705888Y-118140055D02*
X203705888Y-119165055D01*
X203705888Y-121245055D02*
X203705888Y-122270055D01*
X203745888Y-118170055D02*
X203745888Y-119165055D01*
X203745888Y-121245055D02*
X203745888Y-122240055D01*
X203785888Y-118201055D02*
X203785888Y-119165055D01*
X203785888Y-121245055D02*
X203785888Y-122209055D01*
X203825888Y-118234055D02*
X203825888Y-119165055D01*
X203825888Y-121245055D02*
X203825888Y-122176055D01*
X203865888Y-118268055D02*
X203865888Y-119165055D01*
X203865888Y-121245055D02*
X203865888Y-122142055D01*
X203905888Y-118304055D02*
X203905888Y-119165055D01*
X203905888Y-121245055D02*
X203905888Y-122106055D01*
X203945888Y-118341055D02*
X203945888Y-119165055D01*
X203945888Y-121245055D02*
X203945888Y-122069055D01*
X203985888Y-118379055D02*
X203985888Y-119165055D01*
X203985888Y-121245055D02*
X203985888Y-122031055D01*
X204025888Y-118420055D02*
X204025888Y-119165055D01*
X204025888Y-121245055D02*
X204025888Y-121990055D01*
X204065888Y-118462055D02*
X204065888Y-119165055D01*
X204065888Y-121245055D02*
X204065888Y-121948055D01*
X204105888Y-118506055D02*
X204105888Y-119165055D01*
X204105888Y-121245055D02*
X204105888Y-121904055D01*
X204145888Y-118552055D02*
X204145888Y-119165055D01*
X204145888Y-121245055D02*
X204145888Y-121858055D01*
X204185888Y-118600055D02*
X204185888Y-119165055D01*
X204185888Y-121245055D02*
X204185888Y-121810055D01*
X204225888Y-118651055D02*
X204225888Y-119165055D01*
X204225888Y-121245055D02*
X204225888Y-121759055D01*
X204265888Y-118705055D02*
X204265888Y-119165055D01*
X204265888Y-121245055D02*
X204265888Y-121705055D01*
X204305888Y-118762055D02*
X204305888Y-119165055D01*
X204305888Y-121245055D02*
X204305888Y-121648055D01*
X204345888Y-118822055D02*
X204345888Y-119165055D01*
X204345888Y-121245055D02*
X204345888Y-121588055D01*
X204385888Y-118886055D02*
X204385888Y-119165055D01*
X204385888Y-121245055D02*
X204385888Y-121524055D01*
X204425888Y-118954055D02*
X204425888Y-119165055D01*
X204425888Y-121245055D02*
X204425888Y-121456055D01*
X204465888Y-119027055D02*
X204465888Y-121383055D01*
X204505888Y-119107055D02*
X204505888Y-121303055D01*
X204545888Y-119194055D02*
X204545888Y-121216055D01*
X204585888Y-119290055D02*
X204585888Y-121120055D01*
X204625888Y-119400055D02*
X204625888Y-121010055D01*
X204665888Y-119528055D02*
X204665888Y-120882055D01*
X204705888Y-119687055D02*
X204705888Y-120723055D01*
X204745888Y-119921055D02*
X204745888Y-120489055D01*
X204764888Y-120205055D02*
G75*
G02*
X199524888Y-120205055I-2620000J0D01*
G01*
X199524888Y-120205055D02*
G75*
G02*
X204764888Y-120205055I2620000J0D01*
G01*
X199340113Y-51080055D02*
X199840113Y-51080055D01*
X199590113Y-50830055D02*
X199590113Y-51330055D01*
X202144888Y-49975055D02*
X202144888Y-55135055D01*
X202184888Y-49975055D02*
X202184888Y-55135055D01*
X202224888Y-49976055D02*
X202224888Y-55134055D01*
X202264888Y-49977055D02*
X202264888Y-55133055D01*
X202304888Y-49979055D02*
X202304888Y-55131055D01*
X202344888Y-49982055D02*
X202344888Y-55128055D01*
X202384888Y-49986055D02*
X202384888Y-51515055D01*
X202384888Y-53595055D02*
X202384888Y-55124055D01*
X202424888Y-49990055D02*
X202424888Y-51515055D01*
X202424888Y-53595055D02*
X202424888Y-55120055D01*
X202464888Y-49994055D02*
X202464888Y-51515055D01*
X202464888Y-53595055D02*
X202464888Y-55116055D01*
X202504888Y-49999055D02*
X202504888Y-51515055D01*
X202504888Y-53595055D02*
X202504888Y-55111055D01*
X202544888Y-50005055D02*
X202544888Y-51515055D01*
X202544888Y-53595055D02*
X202544888Y-55105055D01*
X202584888Y-50012055D02*
X202584888Y-51515055D01*
X202584888Y-53595055D02*
X202584888Y-55098055D01*
X202624888Y-50019055D02*
X202624888Y-51515055D01*
X202624888Y-53595055D02*
X202624888Y-55091055D01*
X202664888Y-50027055D02*
X202664888Y-51515055D01*
X202664888Y-53595055D02*
X202664888Y-55083055D01*
X202704888Y-50035055D02*
X202704888Y-51515055D01*
X202704888Y-53595055D02*
X202704888Y-55075055D01*
X202744888Y-50044055D02*
X202744888Y-51515055D01*
X202744888Y-53595055D02*
X202744888Y-55066055D01*
X202784888Y-50054055D02*
X202784888Y-51515055D01*
X202784888Y-53595055D02*
X202784888Y-55056055D01*
X202824888Y-50064055D02*
X202824888Y-51515055D01*
X202824888Y-53595055D02*
X202824888Y-55046055D01*
X202865888Y-50075055D02*
X202865888Y-51515055D01*
X202865888Y-53595055D02*
X202865888Y-55035055D01*
X202905888Y-50087055D02*
X202905888Y-51515055D01*
X202905888Y-53595055D02*
X202905888Y-55023055D01*
X202945888Y-50100055D02*
X202945888Y-51515055D01*
X202945888Y-53595055D02*
X202945888Y-55010055D01*
X202985888Y-50113055D02*
X202985888Y-51515055D01*
X202985888Y-53595055D02*
X202985888Y-54997055D01*
X203025888Y-50127055D02*
X203025888Y-51515055D01*
X203025888Y-53595055D02*
X203025888Y-54983055D01*
X203065888Y-50141055D02*
X203065888Y-51515055D01*
X203065888Y-53595055D02*
X203065888Y-54969055D01*
X203105888Y-50157055D02*
X203105888Y-51515055D01*
X203105888Y-53595055D02*
X203105888Y-54953055D01*
X203145888Y-50173055D02*
X203145888Y-51515055D01*
X203145888Y-53595055D02*
X203145888Y-54937055D01*
X203185888Y-50190055D02*
X203185888Y-51515055D01*
X203185888Y-53595055D02*
X203185888Y-54920055D01*
X203225888Y-50207055D02*
X203225888Y-51515055D01*
X203225888Y-53595055D02*
X203225888Y-54903055D01*
X203265888Y-50226055D02*
X203265888Y-51515055D01*
X203265888Y-53595055D02*
X203265888Y-54884055D01*
X203305888Y-50245055D02*
X203305888Y-51515055D01*
X203305888Y-53595055D02*
X203305888Y-54865055D01*
X203345888Y-50265055D02*
X203345888Y-51515055D01*
X203345888Y-53595055D02*
X203345888Y-54845055D01*
X203385888Y-50287055D02*
X203385888Y-51515055D01*
X203385888Y-53595055D02*
X203385888Y-54823055D01*
X203425888Y-50308055D02*
X203425888Y-51515055D01*
X203425888Y-53595055D02*
X203425888Y-54802055D01*
X203465888Y-50331055D02*
X203465888Y-51515055D01*
X203465888Y-53595055D02*
X203465888Y-54779055D01*
X203505888Y-50355055D02*
X203505888Y-51515055D01*
X203505888Y-53595055D02*
X203505888Y-54755055D01*
X203545888Y-50380055D02*
X203545888Y-51515055D01*
X203545888Y-53595055D02*
X203545888Y-54730055D01*
X203585888Y-50406055D02*
X203585888Y-51515055D01*
X203585888Y-53595055D02*
X203585888Y-54704055D01*
X203625888Y-50433055D02*
X203625888Y-51515055D01*
X203625888Y-53595055D02*
X203625888Y-54677055D01*
X203665888Y-50460055D02*
X203665888Y-51515055D01*
X203665888Y-53595055D02*
X203665888Y-54650055D01*
X203705888Y-50490055D02*
X203705888Y-51515055D01*
X203705888Y-53595055D02*
X203705888Y-54620055D01*
X203745888Y-50520055D02*
X203745888Y-51515055D01*
X203745888Y-53595055D02*
X203745888Y-54590055D01*
X203785888Y-50551055D02*
X203785888Y-51515055D01*
X203785888Y-53595055D02*
X203785888Y-54559055D01*
X203825888Y-50584055D02*
X203825888Y-51515055D01*
X203825888Y-53595055D02*
X203825888Y-54526055D01*
X203865888Y-50618055D02*
X203865888Y-51515055D01*
X203865888Y-53595055D02*
X203865888Y-54492055D01*
X203905888Y-50654055D02*
X203905888Y-51515055D01*
X203905888Y-53595055D02*
X203905888Y-54456055D01*
X203945888Y-50691055D02*
X203945888Y-51515055D01*
X203945888Y-53595055D02*
X203945888Y-54419055D01*
X203985888Y-50729055D02*
X203985888Y-51515055D01*
X203985888Y-53595055D02*
X203985888Y-54381055D01*
X204025888Y-50770055D02*
X204025888Y-51515055D01*
X204025888Y-53595055D02*
X204025888Y-54340055D01*
X204065888Y-50812055D02*
X204065888Y-51515055D01*
X204065888Y-53595055D02*
X204065888Y-54298055D01*
X204105888Y-50856055D02*
X204105888Y-51515055D01*
X204105888Y-53595055D02*
X204105888Y-54254055D01*
X204145888Y-50902055D02*
X204145888Y-51515055D01*
X204145888Y-53595055D02*
X204145888Y-54208055D01*
X204185888Y-50950055D02*
X204185888Y-51515055D01*
X204185888Y-53595055D02*
X204185888Y-54160055D01*
X204225888Y-51001055D02*
X204225888Y-51515055D01*
X204225888Y-53595055D02*
X204225888Y-54109055D01*
X204265888Y-51055055D02*
X204265888Y-51515055D01*
X204265888Y-53595055D02*
X204265888Y-54055055D01*
X204305888Y-51112055D02*
X204305888Y-51515055D01*
X204305888Y-53595055D02*
X204305888Y-53998055D01*
X204345888Y-51172055D02*
X204345888Y-51515055D01*
X204345888Y-53595055D02*
X204345888Y-53938055D01*
X204385888Y-51236055D02*
X204385888Y-51515055D01*
X204385888Y-53595055D02*
X204385888Y-53874055D01*
X204425888Y-51304055D02*
X204425888Y-51515055D01*
X204425888Y-53595055D02*
X204425888Y-53806055D01*
X204465888Y-51377055D02*
X204465888Y-53733055D01*
X204505888Y-51457055D02*
X204505888Y-53653055D01*
X204545888Y-51544055D02*
X204545888Y-53566055D01*
X204585888Y-51640055D02*
X204585888Y-53470055D01*
X204625888Y-51750055D02*
X204625888Y-53360055D01*
X204665888Y-51878055D02*
X204665888Y-53232055D01*
X204705888Y-52037055D02*
X204705888Y-53073055D01*
X204745888Y-52271055D02*
X204745888Y-52839055D01*
X204764888Y-52555055D02*
G75*
G02*
X199524888Y-52555055I-2620000J0D01*
G01*
X199524888Y-52555055D02*
G75*
G02*
X204764888Y-52555055I2620000J0D01*
G01*
%TO.C,J2*%
X187690000Y-102855055D02*
X187690000Y-104765055D01*
X187690000Y-104765055D02*
X189600000Y-104765055D01*
X188000000Y-100855055D02*
X188000000Y-104455055D01*
X188000000Y-102405055D02*
X188300000Y-102405055D01*
X188000000Y-103155055D02*
X188300000Y-103155055D01*
X188000000Y-104455055D02*
X194850000Y-104455055D01*
X188300000Y-101305055D02*
X188600000Y-101305055D01*
X188300000Y-102405055D02*
X188300000Y-101305055D01*
X188300000Y-103155055D02*
X188300000Y-104155055D01*
X188300000Y-104155055D02*
X194550000Y-104155055D01*
X188600000Y-101305055D02*
X188600000Y-100855055D01*
X188600000Y-101305055D02*
X189800000Y-101305055D01*
X189800000Y-101005055D02*
X190550000Y-101005055D01*
X189800000Y-101305055D02*
X189800000Y-101005055D01*
X190550000Y-101005055D02*
X190550000Y-101305055D01*
X190550000Y-101305055D02*
X192300000Y-101305055D01*
X192300000Y-101005055D02*
X193050000Y-101005055D01*
X192300000Y-101305055D02*
X192300000Y-101005055D01*
X193050000Y-101005055D02*
X193050000Y-101305055D01*
X193050000Y-101305055D02*
X194250000Y-101305055D01*
X194250000Y-101305055D02*
X194250000Y-100855055D01*
X194550000Y-101305055D02*
X194250000Y-101305055D01*
X194550000Y-102405055D02*
X194550000Y-101305055D01*
X194550000Y-103155055D02*
X194850000Y-103155055D01*
X194550000Y-104155055D02*
X194550000Y-103155055D01*
X194850000Y-100855055D02*
X188000000Y-100855055D01*
X194850000Y-102405055D02*
X194550000Y-102405055D01*
X194850000Y-104455055D02*
X194850000Y-100855055D01*
%TO.C,D2*%
X168235000Y-42410055D02*
X168235000Y-45500055D01*
X168235000Y-42410225D02*
G75*
G02*
X173785000Y-43955517I2560000J-1544830D01*
G01*
X173785000Y-43954593D02*
G75*
G02*
X168235000Y-45499885I-2990000J-462D01*
G01*
X173295000Y-43955055D02*
G75*
G02*
X168295000Y-43955055I-2500000J0D01*
G01*
X168295000Y-43955055D02*
G75*
G02*
X173295000Y-43955055I2500000J0D01*
G01*
%TO.C,J2*%
X187690000Y-69005055D02*
X187690000Y-70915055D01*
X187690000Y-70915055D02*
X189600000Y-70915055D01*
X188000000Y-67005055D02*
X188000000Y-70605055D01*
X188000000Y-68555055D02*
X188300000Y-68555055D01*
X188000000Y-69305055D02*
X188300000Y-69305055D01*
X188000000Y-70605055D02*
X194850000Y-70605055D01*
X188300000Y-67455055D02*
X188600000Y-67455055D01*
X188300000Y-68555055D02*
X188300000Y-67455055D01*
X188300000Y-69305055D02*
X188300000Y-70305055D01*
X188300000Y-70305055D02*
X194550000Y-70305055D01*
X188600000Y-67455055D02*
X188600000Y-67005055D01*
X188600000Y-67455055D02*
X189800000Y-67455055D01*
X189800000Y-67155055D02*
X190550000Y-67155055D01*
X189800000Y-67455055D02*
X189800000Y-67155055D01*
X190550000Y-67155055D02*
X190550000Y-67455055D01*
X190550000Y-67455055D02*
X192300000Y-67455055D01*
X192300000Y-67155055D02*
X193050000Y-67155055D01*
X192300000Y-67455055D02*
X192300000Y-67155055D01*
X193050000Y-67155055D02*
X193050000Y-67455055D01*
X193050000Y-67455055D02*
X194250000Y-67455055D01*
X194250000Y-67455055D02*
X194250000Y-67005055D01*
X194550000Y-67455055D02*
X194250000Y-67455055D01*
X194550000Y-68555055D02*
X194550000Y-67455055D01*
X194550000Y-69305055D02*
X194850000Y-69305055D01*
X194550000Y-70305055D02*
X194550000Y-69305055D01*
X194850000Y-67005055D02*
X188000000Y-67005055D01*
X194850000Y-68555055D02*
X194550000Y-68555055D01*
X194850000Y-70605055D02*
X194850000Y-67005055D01*
%TO.C,R1*%
X190015000Y-127677991D02*
X190015000Y-128132119D01*
X191485000Y-127677991D02*
X191485000Y-128132119D01*
%TO.C,J1*%
X177890000Y-69005055D02*
X177890000Y-70915055D01*
X177890000Y-70915055D02*
X179800000Y-70915055D01*
X178200000Y-67005055D02*
X178200000Y-70605055D01*
X178200000Y-68555055D02*
X178500000Y-68555055D01*
X178200000Y-69305055D02*
X178500000Y-69305055D01*
X178200000Y-70605055D02*
X185050000Y-70605055D01*
X178500000Y-67455055D02*
X178800000Y-67455055D01*
X178500000Y-68555055D02*
X178500000Y-67455055D01*
X178500000Y-69305055D02*
X178500000Y-70305055D01*
X178500000Y-70305055D02*
X184750000Y-70305055D01*
X178800000Y-67455055D02*
X178800000Y-67005055D01*
X178800000Y-67455055D02*
X180000000Y-67455055D01*
X180000000Y-67155055D02*
X180750000Y-67155055D01*
X180000000Y-67455055D02*
X180000000Y-67155055D01*
X180750000Y-67155055D02*
X180750000Y-67455055D01*
X180750000Y-67455055D02*
X182500000Y-67455055D01*
X182500000Y-67155055D02*
X183250000Y-67155055D01*
X182500000Y-67455055D02*
X182500000Y-67155055D01*
X183250000Y-67155055D02*
X183250000Y-67455055D01*
X183250000Y-67455055D02*
X184450000Y-67455055D01*
X184450000Y-67455055D02*
X184450000Y-67005055D01*
X184750000Y-67455055D02*
X184450000Y-67455055D01*
X184750000Y-68555055D02*
X184750000Y-67455055D01*
X184750000Y-69305055D02*
X185050000Y-69305055D01*
X184750000Y-70305055D02*
X184750000Y-69305055D01*
X185050000Y-67005055D02*
X178200000Y-67005055D01*
X185050000Y-68555055D02*
X184750000Y-68555055D01*
X185050000Y-70605055D02*
X185050000Y-67005055D01*
%TO.C,R3*%
X184115000Y-60027991D02*
X184115000Y-60482119D01*
X185585000Y-60027991D02*
X185585000Y-60482119D01*
%TO.C,J1*%
X126890000Y-102850000D02*
X126890000Y-104760000D01*
X126890000Y-104760000D02*
X128800000Y-104760000D01*
X127200000Y-100850000D02*
X127200000Y-104450000D01*
X127200000Y-102400000D02*
X127500000Y-102400000D01*
X127200000Y-103150000D02*
X127500000Y-103150000D01*
X127200000Y-104450000D02*
X134050000Y-104450000D01*
X127500000Y-101300000D02*
X127800000Y-101300000D01*
X127500000Y-102400000D02*
X127500000Y-101300000D01*
X127500000Y-103150000D02*
X127500000Y-104150000D01*
X127500000Y-104150000D02*
X133750000Y-104150000D01*
X127800000Y-101300000D02*
X127800000Y-100850000D01*
X127800000Y-101300000D02*
X129000000Y-101300000D01*
X129000000Y-101000000D02*
X129750000Y-101000000D01*
X129000000Y-101300000D02*
X129000000Y-101000000D01*
X129750000Y-101000000D02*
X129750000Y-101300000D01*
X129750000Y-101300000D02*
X131500000Y-101300000D01*
X131500000Y-101000000D02*
X132250000Y-101000000D01*
X131500000Y-101300000D02*
X131500000Y-101000000D01*
X132250000Y-101000000D02*
X132250000Y-101300000D01*
X132250000Y-101300000D02*
X133450000Y-101300000D01*
X133450000Y-101300000D02*
X133450000Y-100850000D01*
X133750000Y-101300000D02*
X133450000Y-101300000D01*
X133750000Y-102400000D02*
X133750000Y-101300000D01*
X133750000Y-103150000D02*
X134050000Y-103150000D01*
X133750000Y-104150000D02*
X133750000Y-103150000D01*
X134050000Y-100850000D02*
X127200000Y-100850000D01*
X134050000Y-102400000D02*
X133750000Y-102400000D01*
X134050000Y-104450000D02*
X134050000Y-100850000D01*
%TO.C,R4*%
X181165000Y-93827991D02*
X181165000Y-94282119D01*
X182635000Y-93827991D02*
X182635000Y-94282119D01*
%TD*%
M02*
