%TF.GenerationSoftware,KiCad,Pcbnew,8.0.3*%
%TF.CreationDate,2025-01-13T20:47:07+02:00*%
%TF.ProjectId,TMF,544d462e-6b69-4636-9164-5f7063625858,rev?*%
%TF.SameCoordinates,Original*%
%TF.FileFunction,Profile,NP*%
%FSLAX46Y46*%
G04 Gerber Fmt 4.6, Leading zero omitted, Abs format (unit mm)*
G04 Created by KiCad (PCBNEW 8.0.3) date 2025-01-13 20:47:07*
%MOMM*%
%LPD*%
G01*
G04 APERTURE LIST*
%TA.AperFunction,Profile*%
%ADD10C,0.050000*%
%TD*%
G04 APERTURE END LIST*
D10*
X116000000Y-97155055D02*
G75*
G02*
X110999945Y-92155055I0J5000055D01*
G01*
X155000000Y-31455055D02*
G75*
G02*
X159999945Y-36455055I0J-4999945D01*
G01*
X160000000Y-92155055D02*
G75*
G02*
X155000000Y-97155060I-5000000J-5D01*
G01*
X116000000Y-131000000D02*
G75*
G02*
X111000000Y-126000000I0J5000000D01*
G01*
X167000000Y-31505055D02*
X206000000Y-31505055D01*
X211000000Y-126005055D02*
G75*
G02*
X206000000Y-131005100I-5000000J-45D01*
G01*
X116000000Y-63305055D02*
G75*
G02*
X110999945Y-58305055I0J5000055D01*
G01*
X162000000Y-104155055D02*
G75*
G02*
X167000000Y-99155050I4999990J15D01*
G01*
X160000000Y-70305055D02*
X162000000Y-70305055D01*
X160000000Y-92155055D02*
X162000000Y-92155055D01*
X167000000Y-63355055D02*
X167000000Y-65305055D01*
X211000000Y-70305055D02*
X211000000Y-92155055D01*
X111000000Y-92155055D02*
X111000000Y-70305055D01*
X155000000Y-65305055D02*
G75*
G02*
X159999945Y-70305055I0J-4999945D01*
G01*
X162000000Y-70305055D02*
G75*
G02*
X167000000Y-65305050I4999990J15D01*
G01*
X116000000Y-97155055D02*
X116000000Y-99150000D01*
X116000000Y-63305055D02*
X116000000Y-65305055D01*
X206000000Y-99155055D02*
G75*
G02*
X210999945Y-104155055I0J-4999945D01*
G01*
X116000000Y-31455055D02*
X155000000Y-31455055D01*
X155000000Y-99150000D02*
G75*
G02*
X160000000Y-104150000I0J-5000000D01*
G01*
X111000000Y-36455055D02*
G75*
G02*
X116000000Y-31455050I4999990J15D01*
G01*
X160000000Y-58305055D02*
G75*
G02*
X155000000Y-63305060I-5000000J-5D01*
G01*
X206000000Y-65305055D02*
G75*
G02*
X210999945Y-70305055I0J-4999945D01*
G01*
X111000000Y-126000000D02*
X111000000Y-104150000D01*
X160000000Y-36455055D02*
X162000000Y-36505055D01*
X167000000Y-97155055D02*
X167000000Y-99155055D01*
X155000000Y-131000000D02*
X116000000Y-131000000D01*
X211000000Y-104155055D02*
X211000000Y-126005055D01*
X206000000Y-31505055D02*
G75*
G02*
X210999945Y-36505055I0J-4999945D01*
G01*
X206000000Y-63355055D02*
X206000000Y-65305055D01*
X111000000Y-70305055D02*
G75*
G02*
X116000000Y-65305050I4999990J15D01*
G01*
X211000000Y-58355055D02*
G75*
G02*
X206000000Y-63355100I-5000000J-45D01*
G01*
X160000000Y-58305055D02*
X162000000Y-58355055D01*
X160000000Y-104150000D02*
X162000000Y-104155055D01*
X211000000Y-36505055D02*
X211000000Y-58355055D01*
X211000000Y-92155055D02*
G75*
G02*
X206000000Y-97155100I-5000000J-45D01*
G01*
X155000000Y-63305055D02*
X155000000Y-65305055D01*
X206000000Y-131005055D02*
X167000000Y-131005055D01*
X167000000Y-131005055D02*
G75*
G02*
X161999945Y-126005055I0J5000055D01*
G01*
X167000000Y-63355055D02*
G75*
G02*
X161999945Y-58355055I0J5000055D01*
G01*
X160000000Y-126000000D02*
X162000000Y-126005055D01*
X160000000Y-126000000D02*
G75*
G02*
X155000000Y-131000000I-5000000J0D01*
G01*
X111000000Y-58305055D02*
X111000000Y-36455055D01*
X111000000Y-104150000D02*
G75*
G02*
X116000000Y-99150000I5000000J0D01*
G01*
X155000000Y-97155055D02*
X155000000Y-99150000D01*
X167000000Y-97155055D02*
G75*
G02*
X161999945Y-92155055I0J5000055D01*
G01*
X162000000Y-36505055D02*
G75*
G02*
X167000000Y-31505050I4999990J15D01*
G01*
X206000000Y-97155055D02*
X206000000Y-99155055D01*
M02*
