%TF.GenerationSoftware,KiCad,Pcbnew,8.0.3*%
%TF.CreationDate,2025-01-13T20:57:31+02:00*%
%TF.ProjectId,TMF,544d462e-6b69-4636-9164-5f7063625858,rev?*%
%TF.SameCoordinates,Original*%
%TF.FileFunction,Soldermask,Top*%
%TF.FilePolarity,Negative*%
%FSLAX46Y46*%
G04 Gerber Fmt 4.6, Leading zero omitted, Abs format (unit mm)*
G04 Created by KiCad (PCBNEW 8.0.3) date 2025-01-13 20:57:31*
%MOMM*%
%LPD*%
G01*
G04 APERTURE LIST*
G04 Aperture macros list*
%AMRoundRect*
0 Rectangle with rounded corners*
0 $1 Rounding radius*
0 $2 $3 $4 $5 $6 $7 $8 $9 X,Y pos of 4 corners*
0 Add a 4 corners polygon primitive as box body*
4,1,4,$2,$3,$4,$5,$6,$7,$8,$9,$2,$3,0*
0 Add four circle primitives for the rounded corners*
1,1,$1+$1,$2,$3*
1,1,$1+$1,$4,$5*
1,1,$1+$1,$6,$7*
1,1,$1+$1,$8,$9*
0 Add four rect primitives between the rounded corners*
20,1,$1+$1,$2,$3,$4,$5,0*
20,1,$1+$1,$4,$5,$6,$7,0*
20,1,$1+$1,$6,$7,$8,$9,0*
20,1,$1+$1,$8,$9,$2,$3,0*%
G04 Aperture macros list end*
%ADD10RoundRect,0.250000X-0.450000X0.350000X-0.450000X-0.350000X0.450000X-0.350000X0.450000X0.350000X0*%
%ADD11C,5.500000*%
%ADD12R,1.600000X1.600000*%
%ADD13C,1.600000*%
%ADD14RoundRect,0.656168X-1.093832X-0.343832X1.093832X-0.343832X1.093832X0.343832X-1.093832X0.343832X0*%
%ADD15R,1.800000X1.800000*%
%ADD16C,1.800000*%
%ADD17RoundRect,0.225000X-0.225000X-0.475000X0.225000X-0.475000X0.225000X0.475000X-0.225000X0.475000X0*%
%ADD18O,0.900000X1.400000*%
G04 APERTURE END LIST*
D10*
%TO.C,R4*%
X130900000Y-59205055D03*
X130900000Y-61205055D03*
%TD*%
%TO.C,R4*%
X181900000Y-59255055D03*
X181900000Y-61255055D03*
%TD*%
D11*
%TO.C,*%
X167000000Y-126005055D03*
%TD*%
D10*
%TO.C,R1*%
X190750000Y-59255055D03*
X190750000Y-61255055D03*
%TD*%
D11*
%TO.C,REF\u002A\u002A*%
X206000000Y-70305100D03*
%TD*%
%TO.C,*%
X167000000Y-104155050D03*
%TD*%
D12*
%TO.C,C2*%
X200894888Y-86355055D03*
D13*
X203394888Y-86355055D03*
%TD*%
D14*
%TO.C,FTSW1*%
X130200000Y-48205055D03*
X130200000Y-43505055D03*
X130200000Y-52905055D03*
X135500000Y-48205055D03*
X135500000Y-43505055D03*
X135500000Y-52905055D03*
X140800000Y-48205055D03*
X140800000Y-43505055D03*
X140800000Y-52905055D03*
%TD*%
D10*
%TO.C,R2*%
X136800000Y-93055055D03*
X136800000Y-95055055D03*
%TD*%
D15*
%TO.C,D1*%
X118525000Y-86355055D03*
D16*
X121065000Y-86355055D03*
%TD*%
D12*
%TO.C,C1*%
X149900000Y-43905055D03*
D13*
X152400000Y-43905055D03*
%TD*%
D11*
%TO.C,*%
X116000000Y-70305050D03*
%TD*%
D12*
%TO.C,C1*%
X149900000Y-111600000D03*
D13*
X152400000Y-111600000D03*
%TD*%
D15*
%TO.C,D2*%
X118525000Y-77755055D03*
D16*
X121065000Y-77755055D03*
%TD*%
D11*
%TO.C,REF\u002A\u002A*%
X155000000Y-126000000D03*
%TD*%
D15*
%TO.C,D1*%
X118525000Y-52505055D03*
D16*
X121065000Y-52505055D03*
%TD*%
D11*
%TO.C,*%
X116000000Y-92155055D03*
%TD*%
D15*
%TO.C,D1*%
X118525000Y-120200000D03*
D16*
X121065000Y-120200000D03*
%TD*%
D14*
%TO.C,FTSW1*%
X181200000Y-115905055D03*
X181200000Y-111205055D03*
X181200000Y-120605055D03*
X186500000Y-115905055D03*
X186500000Y-111205055D03*
X186500000Y-120605055D03*
X191800000Y-115905055D03*
X191800000Y-111205055D03*
X191800000Y-120605055D03*
%TD*%
D10*
%TO.C,R1*%
X190750000Y-93055055D03*
X190750000Y-95055055D03*
%TD*%
D17*
%TO.C,J2*%
X138550000Y-35455055D03*
D18*
X139800000Y-35455055D03*
X141050000Y-35455055D03*
X142300000Y-35455055D03*
%TD*%
D11*
%TO.C,*%
X116000000Y-126000000D03*
%TD*%
%TO.C,*%
X116000000Y-36455050D03*
%TD*%
D10*
%TO.C,R1*%
X139750000Y-126900000D03*
X139750000Y-128900000D03*
%TD*%
D11*
%TO.C,REF\u002A\u002A*%
X206000000Y-104155100D03*
%TD*%
%TO.C,REF\u002A\u002A*%
X155000000Y-58305055D03*
%TD*%
D17*
%TO.C,J1*%
X179750000Y-35505055D03*
D18*
X181000000Y-35505055D03*
X182250000Y-35505055D03*
X183500000Y-35505055D03*
%TD*%
D17*
%TO.C,J1*%
X128750000Y-35455055D03*
D18*
X130000000Y-35455055D03*
X131250000Y-35455055D03*
X132500000Y-35455055D03*
%TD*%
D15*
%TO.C,D1*%
X169525000Y-120205055D03*
D16*
X172065000Y-120205055D03*
%TD*%
D17*
%TO.C,J1*%
X179750000Y-103155055D03*
D18*
X181000000Y-103155055D03*
X182250000Y-103155055D03*
X183500000Y-103155055D03*
%TD*%
D10*
%TO.C,R2*%
X187800000Y-93055055D03*
X187800000Y-95055055D03*
%TD*%
D15*
%TO.C,D2*%
X118525000Y-43905055D03*
D16*
X121065000Y-43905055D03*
%TD*%
D14*
%TO.C,FTSW1*%
X130200000Y-115900000D03*
X130200000Y-111200000D03*
X130200000Y-120600000D03*
X135500000Y-115900000D03*
X135500000Y-111200000D03*
X135500000Y-120600000D03*
X140800000Y-115900000D03*
X140800000Y-111200000D03*
X140800000Y-120600000D03*
%TD*%
D12*
%TO.C,C1*%
X149900000Y-77755055D03*
D13*
X152400000Y-77755055D03*
%TD*%
D10*
%TO.C,R2*%
X136800000Y-59205055D03*
X136800000Y-61205055D03*
%TD*%
%TO.C,R4*%
X181900000Y-126905055D03*
X181900000Y-128905055D03*
%TD*%
D11*
%TO.C,*%
X167000000Y-58355055D03*
%TD*%
%TO.C,REF\u002A\u002A*%
X206000000Y-92155055D03*
%TD*%
D14*
%TO.C,FTSW1*%
X181200000Y-48255055D03*
X181200000Y-43555055D03*
X181200000Y-52955055D03*
X186500000Y-48255055D03*
X186500000Y-43555055D03*
X186500000Y-52955055D03*
X191800000Y-48255055D03*
X191800000Y-43555055D03*
X191800000Y-52955055D03*
%TD*%
D10*
%TO.C,R3*%
X184850000Y-93055055D03*
X184850000Y-95055055D03*
%TD*%
D12*
%TO.C,C1*%
X200900000Y-111605055D03*
D13*
X203400000Y-111605055D03*
%TD*%
D10*
%TO.C,R4*%
X130900000Y-93055055D03*
X130900000Y-95055055D03*
%TD*%
D11*
%TO.C,*%
X167000000Y-70305050D03*
%TD*%
%TO.C,*%
X167000000Y-36505050D03*
%TD*%
D10*
%TO.C,R2*%
X187800000Y-126905055D03*
X187800000Y-128905055D03*
%TD*%
D17*
%TO.C,J2*%
X189550000Y-35505055D03*
D18*
X190800000Y-35505055D03*
X192050000Y-35505055D03*
X193300000Y-35505055D03*
%TD*%
D12*
%TO.C,C1*%
X200900000Y-43955055D03*
D13*
X203400000Y-43955055D03*
%TD*%
D11*
%TO.C,REF\u002A\u002A*%
X206000000Y-58355055D03*
%TD*%
D10*
%TO.C,R2*%
X136800000Y-126900000D03*
X136800000Y-128900000D03*
%TD*%
%TO.C,R1*%
X139750000Y-93055055D03*
X139750000Y-95055055D03*
%TD*%
D15*
%TO.C,D2*%
X169525000Y-111605055D03*
D16*
X172065000Y-111605055D03*
%TD*%
D17*
%TO.C,J2*%
X138550000Y-69305055D03*
D18*
X139800000Y-69305055D03*
X141050000Y-69305055D03*
X142300000Y-69305055D03*
%TD*%
D10*
%TO.C,R3*%
X133850000Y-93055055D03*
X133850000Y-95055055D03*
%TD*%
D11*
%TO.C,*%
X167000000Y-92155055D03*
%TD*%
D15*
%TO.C,D1*%
X169525000Y-86355055D03*
D16*
X172065000Y-86355055D03*
%TD*%
D15*
%TO.C,D1*%
X169525000Y-52555055D03*
D16*
X172065000Y-52555055D03*
%TD*%
D11*
%TO.C,*%
X116000000Y-58305055D03*
%TD*%
D14*
%TO.C,FTSW1*%
X181200000Y-82055055D03*
X181200000Y-77355055D03*
X181200000Y-86755055D03*
X186500000Y-82055055D03*
X186500000Y-77355055D03*
X186500000Y-86755055D03*
X191800000Y-82055055D03*
X191800000Y-77355055D03*
X191800000Y-86755055D03*
%TD*%
D15*
%TO.C,D2*%
X118525000Y-111600000D03*
D16*
X121065000Y-111600000D03*
%TD*%
D10*
%TO.C,R3*%
X184850000Y-126905055D03*
X184850000Y-128905055D03*
%TD*%
D17*
%TO.C,J1*%
X128750000Y-69305055D03*
D18*
X130000000Y-69305055D03*
X131250000Y-69305055D03*
X132500000Y-69305055D03*
%TD*%
D12*
%TO.C,C1*%
X200900000Y-77755055D03*
D13*
X203400000Y-77755055D03*
%TD*%
D10*
%TO.C,R3*%
X133850000Y-126900000D03*
X133850000Y-128900000D03*
%TD*%
%TO.C,R3*%
X133850000Y-59205055D03*
X133850000Y-61205055D03*
%TD*%
D12*
%TO.C,C2*%
X149894888Y-120200000D03*
D13*
X152394888Y-120200000D03*
%TD*%
D15*
%TO.C,D2*%
X169525000Y-77755055D03*
D16*
X172065000Y-77755055D03*
%TD*%
D11*
%TO.C,REF\u002A\u002A*%
X206000000Y-36505100D03*
%TD*%
D10*
%TO.C,R2*%
X187800000Y-59255055D03*
X187800000Y-61255055D03*
%TD*%
D11*
%TO.C,REF\u002A\u002A*%
X155000000Y-36455100D03*
%TD*%
%TO.C,REF\u002A\u002A*%
X206000000Y-126005055D03*
%TD*%
D17*
%TO.C,J2*%
X138550000Y-103150000D03*
D18*
X139800000Y-103150000D03*
X141050000Y-103150000D03*
X142300000Y-103150000D03*
%TD*%
D11*
%TO.C,REF\u002A\u002A*%
X155000000Y-104150045D03*
%TD*%
D10*
%TO.C,R4*%
X130900000Y-126900000D03*
X130900000Y-128900000D03*
%TD*%
%TO.C,R1*%
X139750000Y-59205055D03*
X139750000Y-61205055D03*
%TD*%
D12*
%TO.C,C2*%
X149894888Y-52505055D03*
D13*
X152394888Y-52505055D03*
%TD*%
D14*
%TO.C,FTSW1*%
X130200000Y-82055055D03*
X130200000Y-77355055D03*
X130200000Y-86755055D03*
X135500000Y-82055055D03*
X135500000Y-77355055D03*
X135500000Y-86755055D03*
X140800000Y-82055055D03*
X140800000Y-77355055D03*
X140800000Y-86755055D03*
%TD*%
D12*
%TO.C,C2*%
X149894888Y-86355055D03*
D13*
X152394888Y-86355055D03*
%TD*%
D12*
%TO.C,C2*%
X200894888Y-120205055D03*
D13*
X203394888Y-120205055D03*
%TD*%
D12*
%TO.C,C2*%
X200894888Y-52555055D03*
D13*
X203394888Y-52555055D03*
%TD*%
D17*
%TO.C,J2*%
X189550000Y-103155055D03*
D18*
X190800000Y-103155055D03*
X192050000Y-103155055D03*
X193300000Y-103155055D03*
%TD*%
D15*
%TO.C,D2*%
X169525000Y-43955055D03*
D16*
X172065000Y-43955055D03*
%TD*%
D17*
%TO.C,J2*%
X189550000Y-69305055D03*
D18*
X190800000Y-69305055D03*
X192050000Y-69305055D03*
X193300000Y-69305055D03*
%TD*%
D10*
%TO.C,R1*%
X190750000Y-126905055D03*
X190750000Y-128905055D03*
%TD*%
D11*
%TO.C,*%
X116000000Y-104149995D03*
%TD*%
D17*
%TO.C,J1*%
X179750000Y-69305055D03*
D18*
X181000000Y-69305055D03*
X182250000Y-69305055D03*
X183500000Y-69305055D03*
%TD*%
D10*
%TO.C,R3*%
X184850000Y-59255055D03*
X184850000Y-61255055D03*
%TD*%
D17*
%TO.C,J1*%
X128750000Y-103150000D03*
D18*
X130000000Y-103150000D03*
X131250000Y-103150000D03*
X132500000Y-103150000D03*
%TD*%
D10*
%TO.C,R4*%
X181900000Y-93055055D03*
X181900000Y-95055055D03*
%TD*%
D11*
%TO.C,REF\u002A\u002A*%
X155000000Y-92155055D03*
%TD*%
%TO.C,REF\u002A\u002A*%
X155000000Y-70305100D03*
%TD*%
M02*
