%TF.GenerationSoftware,KiCad,Pcbnew,8.0.3*%
%TF.CreationDate,2025-01-04T22:53:39+02:00*%
%TF.ProjectId,TMF,544d462e-6b69-4636-9164-5f7063625858,rev?*%
%TF.SameCoordinates,Original*%
%TF.FileFunction,Profile,NP*%
%FSLAX46Y46*%
G04 Gerber Fmt 4.6, Leading zero omitted, Abs format (unit mm)*
G04 Created by KiCad (PCBNEW 8.0.3) date 2025-01-04 22:53:39*
%MOMM*%
%LPD*%
G01*
G04 APERTURE LIST*
%TA.AperFunction,Profile*%
%ADD10C,0.050000*%
%TD*%
G04 APERTURE END LIST*
D10*
X144300000Y-139905055D02*
X142300000Y-139905055D01*
X93300000Y-69905055D02*
X93300000Y-46905055D01*
X98300000Y-144905055D02*
G75*
G02*
X93300045Y-139905055I0J4999955D01*
G01*
X142300000Y-69905055D02*
X144300000Y-69905055D01*
X193300000Y-139905055D02*
G75*
G02*
X188300000Y-144905100I-5000000J-45D01*
G01*
X188300000Y-144905055D02*
X149300000Y-144905055D01*
X149300000Y-109905055D02*
G75*
G02*
X144300045Y-104905055I0J4999955D01*
G01*
X149300000Y-41905055D02*
X188300000Y-41905055D01*
X137300000Y-109905055D02*
X137300000Y-111905055D01*
X142300000Y-69905055D02*
G75*
G02*
X137300000Y-74905060I-5000000J-5D01*
G01*
X149300000Y-74905055D02*
G75*
G02*
X144300045Y-69905055I0J4999955D01*
G01*
X188300000Y-76905055D02*
G75*
G02*
X193300045Y-81905055I0J-5000045D01*
G01*
X98300000Y-109905055D02*
G75*
G02*
X93300045Y-104905055I0J4999955D01*
G01*
X193300000Y-46905055D02*
X193300000Y-69905055D01*
X137300000Y-74905055D02*
X137300000Y-76905055D01*
X93300000Y-104905055D02*
X93300000Y-81905055D01*
X142300000Y-104905055D02*
X144300000Y-104905055D01*
X188300000Y-41905055D02*
G75*
G02*
X193300045Y-46905055I0J-5000045D01*
G01*
X93300000Y-81905055D02*
G75*
G02*
X98300000Y-76905050I5000000J5D01*
G01*
X142300000Y-139905055D02*
G75*
G02*
X137300000Y-144905060I-5000000J-5D01*
G01*
X144300000Y-116900000D02*
X142300000Y-116905055D01*
X98300000Y-41905055D02*
X137300000Y-41905055D01*
X142300000Y-81905055D02*
X144300000Y-81905055D01*
X93300000Y-139905055D02*
X93300000Y-116905055D01*
X188300000Y-109905055D02*
X188300000Y-111905055D01*
X193300000Y-116905055D02*
X193300000Y-139905055D01*
X137300000Y-76905055D02*
G75*
G02*
X142300045Y-81905055I0J-5000045D01*
G01*
X137300000Y-144905055D02*
X98300000Y-144905055D01*
X193300000Y-104905055D02*
G75*
G02*
X188300000Y-109905100I-5000000J-45D01*
G01*
X142300000Y-46905055D02*
X144300000Y-46905055D01*
X149300000Y-109905055D02*
X149300000Y-111900000D01*
X144300000Y-81905055D02*
G75*
G02*
X149300000Y-76905050I5000000J5D01*
G01*
X193300000Y-81905055D02*
X193300000Y-104905055D01*
X149300000Y-144905055D02*
G75*
G02*
X144300045Y-139905055I0J4999955D01*
G01*
X193300000Y-69905055D02*
G75*
G02*
X188300000Y-74905100I-5000000J-45D01*
G01*
X98300000Y-74905055D02*
G75*
G02*
X93300045Y-69905055I0J4999955D01*
G01*
X98300000Y-74905055D02*
X98300000Y-76905055D01*
X93300000Y-116905055D02*
G75*
G02*
X98300000Y-111905050I5000000J5D01*
G01*
X188300000Y-74905055D02*
X188300000Y-76905055D01*
X149300000Y-74905055D02*
X149300000Y-76905055D01*
X98300000Y-111905055D02*
X98300000Y-109905055D01*
X93300000Y-46905055D02*
G75*
G02*
X98300000Y-41905050I5000000J5D01*
G01*
X137300000Y-111905055D02*
G75*
G02*
X142300045Y-116905055I0J-5000045D01*
G01*
X188300000Y-111905055D02*
G75*
G02*
X193300045Y-116905055I0J-5000045D01*
G01*
X144300000Y-46905055D02*
G75*
G02*
X149300000Y-41905050I5000000J5D01*
G01*
X144300000Y-116900000D02*
G75*
G02*
X149300000Y-111900000I5000000J0D01*
G01*
X142300000Y-104905055D02*
G75*
G02*
X137300000Y-109905060I-5000000J-5D01*
G01*
X137300000Y-41905055D02*
G75*
G02*
X142300045Y-46905055I0J-5000045D01*
G01*
M02*
