M48
; DRILL file {KiCad 8.0.3} date 2025-01-04T22:53:41+0200
; FORMAT={-:-/ absolute / inch / decimal}
; #@! TF.CreationDate,2025-01-04T22:53:41+02:00
; #@! TF.GenerationSoftware,Kicad,Pcbnew,8.0.3
; #@! TF.FileFunction,Plated,1,2,PTH
FMAT,2
INCH
; #@! TA.AperFunction,Plated,PTH,ComponentDrill
T1C0.0236
; #@! TA.AperFunction,Plated,PTH,ComponentDrill
T2C0.0315
; #@! TA.AperFunction,Plated,PTH,ComponentDrill
T3C0.0354
; #@! TA.AperFunction,Plated,PTH,ComponentDrill
T4C0.0394
; #@! TA.AperFunction,Plated,PTH,ComponentDrill
T5C0.1260
%
G90
G05
T1
X4.372Y-1.8033
X4.372Y-3.1813
X4.372Y-4.5593
X4.4213Y-1.8033
X4.4213Y-3.1813
X4.4213Y-4.5593
X4.4705Y-1.8033
X4.4705Y-3.1813
X4.4705Y-4.5593
X4.5197Y-1.8033
X4.5197Y-3.1813
X4.5197Y-4.5593
X4.7579Y-1.8033
X4.7579Y-3.1813
X4.7579Y-4.5593
X4.8071Y-1.8033
X4.8071Y-3.1813
X4.8071Y-4.5593
X4.8563Y-1.8033
X4.8563Y-3.1813
X4.8563Y-4.5593
X4.9055Y-1.8033
X4.9055Y-3.1813
X4.9055Y-4.5593
X6.3799Y-1.8033
X6.3799Y-3.1813
X6.3799Y-4.5593
X6.4291Y-1.8033
X6.4291Y-3.1813
X6.4291Y-4.5593
X6.4783Y-1.8033
X6.4783Y-3.1813
X6.4783Y-4.5593
X6.5276Y-1.8033
X6.5276Y-3.1813
X6.5276Y-4.5593
X6.7657Y-1.8033
X6.7657Y-3.1813
X6.7657Y-4.5593
X6.815Y-1.8033
X6.815Y-3.1813
X6.815Y-4.5593
X6.8642Y-1.8033
X6.8642Y-3.1813
X6.8642Y-4.5593
X6.9134Y-1.8033
X6.9134Y-3.1813
X6.9134Y-4.5593
T2
X5.2045Y-2.5238
X5.2045Y-3.9018
X5.2045Y-5.2797
X5.2047Y-2.1852
X5.2047Y-3.5632
X5.2047Y-4.9411
X5.3029Y-2.5238
X5.3029Y-3.9018
X5.3029Y-5.2797
X5.3031Y-2.1852
X5.3031Y-3.5632
X5.3031Y-4.9411
X7.2124Y-2.5238
X7.2124Y-3.9018
X7.2124Y-5.2797
X7.2126Y-2.1852
X7.2126Y-3.5632
X7.2126Y-4.9411
X7.3108Y-2.5238
X7.3108Y-3.9018
X7.3108Y-5.2797
X7.311Y-2.1852
X7.311Y-3.5632
X7.311Y-4.9411
T3
X3.9695Y-2.1852
X3.9695Y-2.5238
X3.9695Y-3.5632
X3.9695Y-3.9018
X3.9695Y-4.9411
X3.9695Y-5.2797
X4.0695Y-2.1852
X4.0695Y-2.5238
X4.0695Y-3.5632
X4.0695Y-3.9018
X4.0695Y-4.9411
X4.0695Y-5.2797
X5.9774Y-2.1852
X5.9774Y-2.5238
X5.9774Y-3.5632
X5.9774Y-3.9018
X5.9774Y-4.9411
X5.9774Y-5.2797
X6.0774Y-2.1852
X6.0774Y-2.5238
X6.0774Y-3.5632
X6.0774Y-3.9018
X6.0774Y-4.9411
X6.0774Y-5.2797
T5
X3.8701Y-1.8467
X3.8701Y-2.7522
X3.8701Y-3.2246
X3.8701Y-4.1301
X3.8701Y-4.6026
X3.8701Y-5.5081
X5.4055Y-1.8467
X5.4055Y-2.7522
X5.4055Y-3.2246
X5.4055Y-4.1301
X5.4055Y-4.6026
X5.4055Y-5.5081
X5.878Y-1.8467
X5.878Y-2.7522
X5.878Y-3.2246
X5.878Y-4.1301
X5.878Y-4.6026
X5.878Y-5.5081
X7.4134Y-1.8467
X7.4134Y-2.7522
X7.4134Y-3.2246
X7.4134Y-4.1301
X7.4134Y-4.6026
X7.4134Y-5.5081
T4
G00X4.4035Y-2.1695
M15
G01X4.4547Y-2.1695
M16
G05
G00X4.4035Y-2.3545
M15
G01X4.4547Y-2.3545
M16
G05
G00X4.4035Y-2.5396
M15
G01X4.4547Y-2.5396
M16
G05
G00X4.4035Y-3.5474
M15
G01X4.4547Y-3.5474
M16
G05
G00X4.4035Y-3.7325
M15
G01X4.4547Y-3.7325
M16
G05
G00X4.4035Y-3.9175
M15
G01X4.4547Y-3.9175
M16
G05
G00X4.4035Y-4.9254
M15
G01X4.4547Y-4.9254
M16
G05
G00X4.4035Y-5.1104
M15
G01X4.4547Y-5.1104
M16
G05
G00X4.4035Y-5.2955
M15
G01X4.4547Y-5.2955
M16
G05
G00X4.6122Y-2.1695
M15
G01X4.6634Y-2.1695
M16
G05
G00X4.6122Y-2.3545
M15
G01X4.6634Y-2.3545
M16
G05
G00X4.6122Y-2.5396
M15
G01X4.6634Y-2.5396
M16
G05
G00X4.6122Y-3.5474
M15
G01X4.6634Y-3.5474
M16
G05
G00X4.6122Y-3.7325
M15
G01X4.6634Y-3.7325
M16
G05
G00X4.6122Y-3.9175
M15
G01X4.6634Y-3.9175
M16
G05
G00X4.6122Y-4.9254
M15
G01X4.6634Y-4.9254
M16
G05
G00X4.6122Y-5.1104
M15
G01X4.6634Y-5.1104
M16
G05
G00X4.6122Y-5.2955
M15
G01X4.6634Y-5.2955
M16
G05
G00X4.8209Y-2.1695
M15
G01X4.872Y-2.1695
M16
G05
G00X4.8209Y-2.3545
M15
G01X4.872Y-2.3545
M16
G05
G00X4.8209Y-2.5396
M15
G01X4.872Y-2.5396
M16
G05
G00X4.8209Y-3.5474
M15
G01X4.872Y-3.5474
M16
G05
G00X4.8209Y-3.7325
M15
G01X4.872Y-3.7325
M16
G05
G00X4.8209Y-3.9175
M15
G01X4.872Y-3.9175
M16
G05
G00X4.8209Y-4.9254
M15
G01X4.872Y-4.9254
M16
G05
G00X4.8209Y-5.1104
M15
G01X4.872Y-5.1104
M16
G05
G00X4.8209Y-5.2955
M15
G01X4.872Y-5.2955
M16
G05
G00X6.4114Y-2.1695
M15
G01X6.4626Y-2.1695
M16
G05
G00X6.4114Y-2.3545
M15
G01X6.4626Y-2.3545
M16
G05
G00X6.4114Y-2.5396
M15
G01X6.4626Y-2.5396
M16
G05
G00X6.4114Y-3.5474
M15
G01X6.4626Y-3.5474
M16
G05
G00X6.4114Y-3.7325
M15
G01X6.4626Y-3.7325
M16
G05
G00X6.4114Y-3.9175
M15
G01X6.4626Y-3.9175
M16
G05
G00X6.4114Y-4.9254
M15
G01X6.4626Y-4.9254
M16
G05
G00X6.4114Y-5.1104
M15
G01X6.4626Y-5.1104
M16
G05
G00X6.4114Y-5.2955
M15
G01X6.4626Y-5.2955
M16
G05
G00X6.6201Y-2.1695
M15
G01X6.6713Y-2.1695
M16
G05
G00X6.6201Y-2.3545
M15
G01X6.6713Y-2.3545
M16
G05
G00X6.6201Y-2.5396
M15
G01X6.6713Y-2.5396
M16
G05
G00X6.6201Y-3.5474
M15
G01X6.6713Y-3.5474
M16
G05
G00X6.6201Y-3.7325
M15
G01X6.6713Y-3.7325
M16
G05
G00X6.6201Y-3.9175
M15
G01X6.6713Y-3.9175
M16
G05
G00X6.6201Y-4.9254
M15
G01X6.6713Y-4.9254
M16
G05
G00X6.6201Y-5.1104
M15
G01X6.6713Y-5.1104
M16
G05
G00X6.6201Y-5.2955
M15
G01X6.6713Y-5.2955
M16
G05
G00X6.8287Y-2.1695
M15
G01X6.8799Y-2.1695
M16
G05
G00X6.8287Y-2.3545
M15
G01X6.8799Y-2.3545
M16
G05
G00X6.8287Y-2.5396
M15
G01X6.8799Y-2.5396
M16
G05
G00X6.8287Y-3.5474
M15
G01X6.8799Y-3.5474
M16
G05
G00X6.8287Y-3.7325
M15
G01X6.8799Y-3.7325
M16
G05
G00X6.8287Y-3.9175
M15
G01X6.8799Y-3.9175
M16
G05
G00X6.8287Y-4.9254
M15
G01X6.8799Y-4.9254
M16
G05
G00X6.8287Y-5.1104
M15
G01X6.8799Y-5.1104
M16
G05
G00X6.8287Y-5.2955
M15
G01X6.8799Y-5.2955
M16
G05
M30
