%TF.GenerationSoftware,KiCad,Pcbnew,8.0.3*%
%TF.CreationDate,2025-01-13T20:47:07+02:00*%
%TF.ProjectId,TMF,544d462e-6b69-4636-9164-5f7063625858,rev?*%
%TF.SameCoordinates,Original*%
%TF.FileFunction,Paste,Top*%
%TF.FilePolarity,Positive*%
%FSLAX46Y46*%
G04 Gerber Fmt 4.6, Leading zero omitted, Abs format (unit mm)*
G04 Created by KiCad (PCBNEW 8.0.3) date 2025-01-13 20:47:07*
%MOMM*%
%LPD*%
G01*
G04 APERTURE LIST*
G04 Aperture macros list*
%AMRoundRect*
0 Rectangle with rounded corners*
0 $1 Rounding radius*
0 $2 $3 $4 $5 $6 $7 $8 $9 X,Y pos of 4 corners*
0 Add a 4 corners polygon primitive as box body*
4,1,4,$2,$3,$4,$5,$6,$7,$8,$9,$2,$3,0*
0 Add four circle primitives for the rounded corners*
1,1,$1+$1,$2,$3*
1,1,$1+$1,$4,$5*
1,1,$1+$1,$6,$7*
1,1,$1+$1,$8,$9*
0 Add four rect primitives between the rounded corners*
20,1,$1+$1,$2,$3,$4,$5,0*
20,1,$1+$1,$4,$5,$6,$7,0*
20,1,$1+$1,$6,$7,$8,$9,0*
20,1,$1+$1,$8,$9,$2,$3,0*%
G04 Aperture macros list end*
%ADD10RoundRect,0.250000X-0.450000X0.350000X-0.450000X-0.350000X0.450000X-0.350000X0.450000X0.350000X0*%
G04 APERTURE END LIST*
D10*
%TO.C,R4*%
X130900000Y-59205055D03*
X130900000Y-61205055D03*
%TD*%
%TO.C,R4*%
X181900000Y-59255055D03*
X181900000Y-61255055D03*
%TD*%
%TO.C,R1*%
X190750000Y-59255055D03*
X190750000Y-61255055D03*
%TD*%
%TO.C,R2*%
X136800000Y-93055055D03*
X136800000Y-95055055D03*
%TD*%
%TO.C,R1*%
X190750000Y-93055055D03*
X190750000Y-95055055D03*
%TD*%
%TO.C,R1*%
X139750000Y-126900000D03*
X139750000Y-128900000D03*
%TD*%
%TO.C,R2*%
X187800000Y-93055055D03*
X187800000Y-95055055D03*
%TD*%
%TO.C,R2*%
X136800000Y-59205055D03*
X136800000Y-61205055D03*
%TD*%
%TO.C,R4*%
X181900000Y-126905055D03*
X181900000Y-128905055D03*
%TD*%
%TO.C,R3*%
X184850000Y-93055055D03*
X184850000Y-95055055D03*
%TD*%
%TO.C,R4*%
X130900000Y-93055055D03*
X130900000Y-95055055D03*
%TD*%
%TO.C,R2*%
X187800000Y-126905055D03*
X187800000Y-128905055D03*
%TD*%
%TO.C,R2*%
X136800000Y-126900000D03*
X136800000Y-128900000D03*
%TD*%
%TO.C,R1*%
X139750000Y-93055055D03*
X139750000Y-95055055D03*
%TD*%
%TO.C,R3*%
X133850000Y-93055055D03*
X133850000Y-95055055D03*
%TD*%
%TO.C,R3*%
X184850000Y-126905055D03*
X184850000Y-128905055D03*
%TD*%
%TO.C,R3*%
X133850000Y-126900000D03*
X133850000Y-128900000D03*
%TD*%
%TO.C,R3*%
X133850000Y-59205055D03*
X133850000Y-61205055D03*
%TD*%
%TO.C,R2*%
X187800000Y-59255055D03*
X187800000Y-61255055D03*
%TD*%
%TO.C,R4*%
X130900000Y-126900000D03*
X130900000Y-128900000D03*
%TD*%
%TO.C,R1*%
X139750000Y-59205055D03*
X139750000Y-61205055D03*
%TD*%
%TO.C,R1*%
X190750000Y-126905055D03*
X190750000Y-128905055D03*
%TD*%
%TO.C,R3*%
X184850000Y-59255055D03*
X184850000Y-61255055D03*
%TD*%
%TO.C,R4*%
X181900000Y-93055055D03*
X181900000Y-95055055D03*
%TD*%
M02*
