%TF.GenerationSoftware,KiCad,Pcbnew,8.0.3*%
%TF.CreationDate,2025-01-04T22:53:39+02:00*%
%TF.ProjectId,TMF,544d462e-6b69-4636-9164-5f7063625858,rev?*%
%TF.SameCoordinates,Original*%
%TF.FileFunction,Soldermask,Bot*%
%TF.FilePolarity,Negative*%
%FSLAX46Y46*%
G04 Gerber Fmt 4.6, Leading zero omitted, Abs format (unit mm)*
G04 Created by KiCad (PCBNEW 8.0.3) date 2025-01-04 22:53:39*
%MOMM*%
%LPD*%
G01*
G04 APERTURE LIST*
G04 Aperture macros list*
%AMRoundRect*
0 Rectangle with rounded corners*
0 $1 Rounding radius*
0 $2 $3 $4 $5 $6 $7 $8 $9 X,Y pos of 4 corners*
0 Add a 4 corners polygon primitive as box body*
4,1,4,$2,$3,$4,$5,$6,$7,$8,$9,$2,$3,0*
0 Add four circle primitives for the rounded corners*
1,1,$1+$1,$2,$3*
1,1,$1+$1,$4,$5*
1,1,$1+$1,$6,$7*
1,1,$1+$1,$8,$9*
0 Add four rect primitives between the rounded corners*
20,1,$1+$1,$2,$3,$4,$5,0*
20,1,$1+$1,$4,$5,$6,$7,0*
20,1,$1+$1,$6,$7,$8,$9,0*
20,1,$1+$1,$8,$9,$2,$3,0*%
G04 Aperture macros list end*
%ADD10R,1.600000X1.600000*%
%ADD11C,1.600000*%
%ADD12C,5.500000*%
%ADD13R,1.800000X1.800000*%
%ADD14C,1.800000*%
%ADD15RoundRect,0.225000X-0.225000X-0.475000X0.225000X-0.475000X0.225000X0.475000X-0.225000X0.475000X0*%
%ADD16O,0.900000X1.400000*%
%ADD17RoundRect,0.656168X-1.093832X-0.343832X1.093832X-0.343832X1.093832X0.343832X-1.093832X0.343832X0*%
G04 APERTURE END LIST*
D10*
%TO.C,C1*%
X183200000Y-55505055D03*
D11*
X185700000Y-55505055D03*
%TD*%
D12*
%TO.C,*%
X188300000Y-139905055D03*
%TD*%
D13*
%TO.C,D2*%
X100825000Y-90505055D03*
D14*
X103365000Y-90505055D03*
%TD*%
D10*
%TO.C,C1*%
X183200000Y-125505055D03*
D11*
X185700000Y-125505055D03*
%TD*%
D12*
%TO.C,REF\u002A\u002A*%
X137300000Y-139905055D03*
%TD*%
D15*
%TO.C,J2*%
X171850000Y-45805055D03*
D16*
X173100000Y-45805055D03*
X174350000Y-45805055D03*
X175600000Y-45805055D03*
%TD*%
D10*
%TO.C,C2*%
X132194888Y-64105055D03*
D11*
X134694888Y-64105055D03*
%TD*%
D15*
%TO.C,J1*%
X111050000Y-80805055D03*
D16*
X112300000Y-80805055D03*
X113550000Y-80805055D03*
X114800000Y-80805055D03*
%TD*%
D12*
%TO.C,*%
X149300000Y-139905055D03*
%TD*%
D15*
%TO.C,J2*%
X171850000Y-80805055D03*
D16*
X173100000Y-80805055D03*
X174350000Y-80805055D03*
X175600000Y-80805055D03*
%TD*%
D15*
%TO.C,J1*%
X162050000Y-45805055D03*
D16*
X163300000Y-45805055D03*
X164550000Y-45805055D03*
X165800000Y-45805055D03*
%TD*%
D12*
%TO.C,REF\u002A\u002A*%
X137300000Y-116905055D03*
%TD*%
%TO.C,*%
X149300000Y-81905055D03*
%TD*%
%TO.C,*%
X98300000Y-46905055D03*
%TD*%
%TO.C,REF\u002A\u002A*%
X188300000Y-116905055D03*
%TD*%
D17*
%TO.C,FTSW1*%
X163500000Y-59805055D03*
X163500000Y-55105055D03*
X163500000Y-64505055D03*
X168800000Y-59805055D03*
X168800000Y-55105055D03*
X168800000Y-64505055D03*
X174100000Y-59805055D03*
X174100000Y-55105055D03*
X174100000Y-64505055D03*
%TD*%
D10*
%TO.C,C1*%
X183200000Y-90505055D03*
D11*
X185700000Y-90505055D03*
%TD*%
D12*
%TO.C,*%
X98300000Y-69905055D03*
%TD*%
D10*
%TO.C,C1*%
X132200000Y-90505055D03*
D11*
X134700000Y-90505055D03*
%TD*%
D12*
%TO.C,*%
X98300000Y-81905055D03*
%TD*%
%TO.C,REF\u002A\u002A*%
X137300000Y-46905055D03*
%TD*%
%TO.C,*%
X98300000Y-116905055D03*
%TD*%
D17*
%TO.C,FTSW1*%
X163500000Y-94805055D03*
X163500000Y-90105055D03*
X163500000Y-99505055D03*
X168800000Y-94805055D03*
X168800000Y-90105055D03*
X168800000Y-99505055D03*
X174100000Y-94805055D03*
X174100000Y-90105055D03*
X174100000Y-99505055D03*
%TD*%
D12*
%TO.C,*%
X98300000Y-104905055D03*
%TD*%
D17*
%TO.C,FTSW1*%
X112500000Y-129805055D03*
X112500000Y-125105055D03*
X112500000Y-134505055D03*
X117800000Y-129805055D03*
X117800000Y-125105055D03*
X117800000Y-134505055D03*
X123100000Y-129805055D03*
X123100000Y-125105055D03*
X123100000Y-134505055D03*
%TD*%
D12*
%TO.C,*%
X137300000Y-69905055D03*
%TD*%
%TO.C,*%
X98300000Y-139905055D03*
%TD*%
D10*
%TO.C,C2*%
X132194888Y-99105055D03*
D11*
X134694888Y-99105055D03*
%TD*%
D15*
%TO.C,J2*%
X120850000Y-45805055D03*
D16*
X122100000Y-45805055D03*
X123350000Y-45805055D03*
X124600000Y-45805055D03*
%TD*%
D13*
%TO.C,D2*%
X151825000Y-55505055D03*
D14*
X154365000Y-55505055D03*
%TD*%
D15*
%TO.C,J1*%
X111050000Y-115805055D03*
D16*
X112300000Y-115805055D03*
X113550000Y-115805055D03*
X114800000Y-115805055D03*
%TD*%
D15*
%TO.C,J2*%
X171850000Y-115805055D03*
D16*
X173100000Y-115805055D03*
X174350000Y-115805055D03*
X175600000Y-115805055D03*
%TD*%
D12*
%TO.C,*%
X188300000Y-104905055D03*
%TD*%
D10*
%TO.C,C1*%
X132200000Y-125505055D03*
D11*
X134700000Y-125505055D03*
%TD*%
D10*
%TO.C,C2*%
X183194888Y-99105055D03*
D11*
X185694888Y-99105055D03*
%TD*%
D10*
%TO.C,C2*%
X183194888Y-64105055D03*
D11*
X185694888Y-64105055D03*
%TD*%
D10*
%TO.C,C1*%
X132200000Y-55505055D03*
D11*
X134700000Y-55505055D03*
%TD*%
D10*
%TO.C,C2*%
X132194888Y-134105055D03*
D11*
X134694888Y-134105055D03*
%TD*%
D13*
%TO.C,D2*%
X151825000Y-90505055D03*
D14*
X154365000Y-90505055D03*
%TD*%
D17*
%TO.C,FTSW1*%
X112500000Y-94805055D03*
X112500000Y-90105055D03*
X112500000Y-99505055D03*
X117800000Y-94805055D03*
X117800000Y-90105055D03*
X117800000Y-99505055D03*
X123100000Y-94805055D03*
X123100000Y-90105055D03*
X123100000Y-99505055D03*
%TD*%
D12*
%TO.C,*%
X149300000Y-46905055D03*
%TD*%
%TO.C,REF\u002A\u002A*%
X149300000Y-69905055D03*
%TD*%
%TO.C,*%
X137300000Y-104905055D03*
%TD*%
D10*
%TO.C,C2*%
X183194888Y-134105055D03*
D11*
X185694888Y-134105055D03*
%TD*%
D13*
%TO.C,D2*%
X100825000Y-125505055D03*
D14*
X103365000Y-125505055D03*
%TD*%
D15*
%TO.C,J1*%
X162050000Y-80805055D03*
D16*
X163300000Y-80805055D03*
X164550000Y-80805055D03*
X165800000Y-80805055D03*
%TD*%
D13*
%TO.C,D1*%
X151825000Y-134105055D03*
D14*
X154365000Y-134105055D03*
%TD*%
D13*
%TO.C,D1*%
X151825000Y-99105055D03*
D14*
X154365000Y-99105055D03*
%TD*%
D12*
%TO.C,REF\u002A\u002A*%
X188300000Y-46905055D03*
%TD*%
D17*
%TO.C,FTSW1*%
X112500000Y-59805055D03*
X112500000Y-55105055D03*
X112500000Y-64505055D03*
X117800000Y-59805055D03*
X117800000Y-55105055D03*
X117800000Y-64505055D03*
X123100000Y-59805055D03*
X123100000Y-55105055D03*
X123100000Y-64505055D03*
%TD*%
D13*
%TO.C,D1*%
X100825000Y-134105055D03*
D14*
X103365000Y-134105055D03*
%TD*%
D12*
%TO.C,*%
X149300000Y-116905055D03*
%TD*%
%TO.C,REF\u002A\u002A*%
X137300000Y-81905055D03*
%TD*%
%TO.C,REF\u002A\u002A*%
X149300000Y-104905055D03*
%TD*%
D13*
%TO.C,D1*%
X100825000Y-64105055D03*
D14*
X103365000Y-64105055D03*
%TD*%
D13*
%TO.C,D1*%
X100825000Y-99105055D03*
D14*
X103365000Y-99105055D03*
%TD*%
D13*
%TO.C,D2*%
X100825000Y-55505055D03*
D14*
X103365000Y-55505055D03*
%TD*%
D12*
%TO.C,*%
X188300000Y-69905055D03*
%TD*%
%TO.C,REF\u002A\u002A*%
X188300000Y-81905055D03*
%TD*%
D13*
%TO.C,D2*%
X151825000Y-125505055D03*
D14*
X154365000Y-125505055D03*
%TD*%
D15*
%TO.C,J2*%
X120850000Y-80805055D03*
D16*
X122100000Y-80805055D03*
X123350000Y-80805055D03*
X124600000Y-80805055D03*
%TD*%
D15*
%TO.C,J1*%
X162050000Y-115805055D03*
D16*
X163300000Y-115805055D03*
X164550000Y-115805055D03*
X165800000Y-115805055D03*
%TD*%
D15*
%TO.C,J2*%
X120850000Y-115805055D03*
D16*
X122100000Y-115805055D03*
X123350000Y-115805055D03*
X124600000Y-115805055D03*
%TD*%
D17*
%TO.C,FTSW1*%
X163500000Y-129805055D03*
X163500000Y-125105055D03*
X163500000Y-134505055D03*
X168800000Y-129805055D03*
X168800000Y-125105055D03*
X168800000Y-134505055D03*
X174100000Y-129805055D03*
X174100000Y-125105055D03*
X174100000Y-134505055D03*
%TD*%
D15*
%TO.C,J1*%
X111050000Y-45805055D03*
D16*
X112300000Y-45805055D03*
X113550000Y-45805055D03*
X114800000Y-45805055D03*
%TD*%
D13*
%TO.C,D1*%
X151825000Y-64105055D03*
D14*
X154365000Y-64105055D03*
%TD*%
M02*
