M48
; DRILL file {KiCad 8.0.3} date 2025-01-13T20:57:33+0200
; FORMAT={-:-/ absolute / inch / decimal}
; #@! TF.CreationDate,2025-01-13T20:57:33+02:00
; #@! TF.GenerationSoftware,Kicad,Pcbnew,8.0.3
; #@! TF.FileFunction,Plated,1,2,PTH
FMAT,2
INCH
; #@! TA.AperFunction,Plated,PTH,ViaDrill
T1C0.0118
; #@! TA.AperFunction,Plated,PTH,ComponentDrill
T2C0.0236
; #@! TA.AperFunction,Plated,PTH,ComponentDrill
T3C0.0315
; #@! TA.AperFunction,Plated,PTH,ComponentDrill
T4C0.0354
; #@! TA.AperFunction,Plated,PTH,ComponentDrill
T5C0.0394
; #@! TA.AperFunction,Plated,PTH,ComponentDrill
T6C0.1260
%
G90
G05
T1
X4.7244Y-2.3031
X4.7244Y-2.4016
X4.7244Y-3.6417
X4.7244Y-3.7402
X4.7244Y-4.9803
X4.7244Y-5.0787
X4.7441Y-1.3386
X4.7441Y-1.4764
X4.7441Y-2.6772
X4.7441Y-2.815
X4.7441Y-4.0157
X4.7441Y-4.1535
X4.8425Y-2.3031
X4.8425Y-3.6417
X4.8425Y-4.9803
X4.8622Y-2.4016
X4.8622Y-3.7402
X4.8622Y-5.0787
X4.8819Y-1.3386
X4.8819Y-1.7126
X4.8819Y-2.6772
X4.8819Y-3.0512
X4.8819Y-4.0157
X4.8819Y-4.3898
X4.9016Y-2.0669
X4.9016Y-3.4055
X4.9016Y-4.7441
X4.9803Y-1.8898
X4.9803Y-2.0669
X4.9803Y-2.2835
X4.9803Y-3.2283
X4.9803Y-3.4055
X4.9803Y-3.622
X4.9803Y-4.5669
X4.9803Y-4.7441
X4.9803Y-4.9606
X5.0Y-1.7126
X5.0Y-3.0512
X5.0Y-4.3898
X5.0787Y-1.6339
X5.0787Y-2.9724
X5.0787Y-4.311
X5.1181Y-1.811
X5.1181Y-1.9882
X5.1181Y-2.185
X5.1181Y-3.1496
X5.1181Y-3.3268
X5.1181Y-3.5236
X5.1181Y-4.4882
X5.1181Y-4.6654
X5.1181Y-4.8622
X5.2953Y-1.6339
X5.2953Y-2.9724
X5.2953Y-4.311
X5.3346Y-1.811
X5.3346Y-1.9882
X5.3346Y-2.185
X5.3346Y-3.1496
X5.3346Y-3.3268
X5.3346Y-3.5236
X5.3346Y-4.4882
X5.3346Y-4.6654
X5.3346Y-4.8622
X5.5118Y-1.6339
X5.5118Y-2.9724
X5.5118Y-4.311
X5.5512Y-1.811
X5.5512Y-1.9882
X5.5512Y-2.185
X5.5512Y-3.1496
X5.5512Y-3.3268
X5.5512Y-3.5236
X5.5512Y-4.4882
X5.5512Y-4.6654
X5.5512Y-4.8622
X5.5906Y-2.2835
X5.5906Y-3.622
X5.5906Y-4.9606
X5.6693Y-1.6929
X5.6693Y-1.8898
X5.6693Y-2.0866
X5.6693Y-3.0315
X5.6693Y-3.2283
X5.6693Y-3.4252
X5.6693Y-4.3701
X5.6693Y-4.5669
X5.6693Y-4.7638
X5.8071Y-1.3189
X5.8071Y-1.4567
X5.8071Y-1.5945
X5.8071Y-2.1063
X5.8071Y-2.2047
X5.8071Y-2.6575
X5.8071Y-2.7953
X5.8071Y-2.9331
X5.8071Y-3.1102
X5.8071Y-3.248
X5.8071Y-3.4449
X5.8071Y-3.5433
X5.8071Y-3.9961
X5.8071Y-4.1339
X5.8071Y-4.2717
X5.8071Y-4.7835
X5.8071Y-4.8819
X5.8465Y-2.4016
X5.8465Y-3.7402
X5.8465Y-5.0787
X5.9449Y-1.3189
X5.9449Y-1.4567
X5.9449Y-2.3228
X5.9449Y-2.4016
X5.9449Y-2.6575
X5.9449Y-2.7953
X5.9449Y-3.6614
X5.9449Y-3.7402
X5.9449Y-3.9961
X5.9449Y-4.1339
X5.9449Y-5.0
X5.9449Y-5.0787
X6.1417Y-1.6535
X6.1417Y-1.752
X6.1417Y-1.8504
X6.1417Y-1.9488
X6.1417Y-2.0472
X6.1417Y-2.9921
X6.1417Y-3.0906
X6.1417Y-3.189
X6.1417Y-3.2874
X6.1417Y-3.3858
X6.1417Y-4.3504
X6.1417Y-4.4488
X6.1417Y-4.5472
X6.1417Y-4.6457
X6.1417Y-4.7441
X6.2402Y-1.6535
X6.2402Y-1.752
X6.2402Y-1.8504
X6.2402Y-1.9488
X6.2402Y-2.0472
X6.2402Y-2.9921
X6.2402Y-3.0906
X6.2402Y-3.189
X6.2402Y-3.2874
X6.2402Y-3.3858
X6.2402Y-4.3504
X6.2402Y-4.4488
X6.2402Y-4.5472
X6.2402Y-4.6457
X6.2402Y-4.7441
X6.3386Y-1.6535
X6.3386Y-1.752
X6.3386Y-1.8504
X6.3386Y-1.9488
X6.3386Y-2.0472
X6.3386Y-2.9921
X6.3386Y-3.0906
X6.3386Y-3.189
X6.3386Y-3.2874
X6.3386Y-3.3858
X6.3386Y-4.3504
X6.3386Y-4.4488
X6.3386Y-4.5472
X6.3386Y-4.6457
X6.3386Y-4.7441
X6.437Y-1.6535
X6.437Y-1.752
X6.437Y-1.8504
X6.437Y-1.9488
X6.437Y-2.0472
X6.437Y-2.9921
X6.437Y-3.0906
X6.437Y-3.189
X6.437Y-3.2874
X6.437Y-3.3858
X6.437Y-4.3504
X6.437Y-4.4488
X6.437Y-4.5472
X6.437Y-4.6457
X6.437Y-4.7441
X6.5354Y-1.6535
X6.5354Y-1.752
X6.5354Y-1.8504
X6.5354Y-1.9488
X6.5354Y-2.0472
X6.5354Y-2.9921
X6.5354Y-3.0906
X6.5354Y-3.189
X6.5354Y-3.2874
X6.5354Y-3.3858
X6.5354Y-4.3504
X6.5354Y-4.4488
X6.5354Y-4.5472
X6.5354Y-4.6457
X6.5354Y-4.7441
X6.7323Y-2.3031
X6.7323Y-2.4016
X6.7323Y-3.6417
X6.7323Y-3.7402
X6.7323Y-4.9803
X6.7323Y-5.0787
X6.752Y-1.3386
X6.752Y-1.4764
X6.752Y-2.6772
X6.752Y-2.815
X6.752Y-4.0157
X6.752Y-4.1535
X6.8504Y-2.3031
X6.8504Y-3.6417
X6.8504Y-4.9803
X6.8701Y-2.4016
X6.8701Y-3.7402
X6.8701Y-5.0787
X6.8898Y-1.3386
X6.8898Y-1.7126
X6.8898Y-2.6772
X6.8898Y-3.0512
X6.8898Y-4.0157
X6.8898Y-4.3898
X6.9094Y-2.0669
X6.9094Y-3.4055
X6.9094Y-4.7441
X6.9882Y-1.8898
X6.9882Y-2.0669
X6.9882Y-2.2835
X6.9882Y-3.2283
X6.9882Y-3.4055
X6.9882Y-3.622
X6.9882Y-4.5669
X6.9882Y-4.7441
X6.9882Y-4.9606
X7.0079Y-1.7126
X7.0079Y-3.0512
X7.0079Y-4.3898
X7.0866Y-1.6339
X7.0866Y-2.9724
X7.0866Y-4.311
X7.126Y-1.811
X7.126Y-1.9882
X7.126Y-2.185
X7.126Y-3.1496
X7.126Y-3.3268
X7.126Y-3.5236
X7.126Y-4.4882
X7.126Y-4.6654
X7.126Y-4.8622
X7.3031Y-1.6339
X7.3031Y-2.9724
X7.3031Y-4.311
X7.3425Y-1.811
X7.3425Y-1.9882
X7.3425Y-2.185
X7.3425Y-3.1496
X7.3425Y-3.3268
X7.3425Y-3.5236
X7.3425Y-4.4882
X7.3425Y-4.6654
X7.3425Y-4.8622
X7.5197Y-1.6339
X7.5197Y-2.9724
X7.5197Y-4.311
X7.5591Y-1.811
X7.5591Y-1.9882
X7.5591Y-2.185
X7.5591Y-3.1496
X7.5591Y-3.3268
X7.5591Y-3.5236
X7.5591Y-4.4882
X7.5591Y-4.6654
X7.5591Y-4.8622
X7.5984Y-2.2835
X7.5984Y-3.622
X7.5984Y-4.9606
X7.6772Y-1.6929
X7.6772Y-1.8898
X7.6772Y-2.0866
X7.6772Y-3.0315
X7.6772Y-3.2283
X7.6772Y-3.4252
X7.6772Y-4.3701
X7.6772Y-4.5669
X7.6772Y-4.7638
X7.815Y-1.3189
X7.815Y-1.4567
X7.815Y-1.5945
X7.815Y-2.1063
X7.815Y-2.2047
X7.815Y-2.6575
X7.815Y-2.7953
X7.815Y-2.9331
X7.815Y-3.4449
X7.815Y-3.5433
X7.815Y-3.9961
X7.815Y-4.1339
X7.815Y-4.2717
X7.815Y-4.7835
X7.815Y-4.8819
X7.8543Y-2.4016
X7.8543Y-3.7402
X7.8543Y-5.0787
X7.9528Y-1.3189
X7.9528Y-1.4567
X7.9528Y-2.3228
X7.9528Y-2.4016
X7.9528Y-2.6575
X7.9528Y-2.7953
X7.9528Y-3.6614
X7.9528Y-3.7402
X7.9528Y-3.9961
X7.9528Y-4.1339
X7.9528Y-5.0
X7.9528Y-5.0787
T2
X5.0689Y-1.3959
X5.0689Y-2.7285
X5.0689Y-4.061
X5.1181Y-1.3959
X5.1181Y-2.7285
X5.1181Y-4.061
X5.1673Y-1.3959
X5.1673Y-2.7285
X5.1673Y-4.061
X5.2165Y-1.3959
X5.2165Y-2.7285
X5.2165Y-4.061
X5.4547Y-1.3959
X5.4547Y-2.7285
X5.4547Y-4.061
X5.5039Y-1.3959
X5.5039Y-2.7285
X5.5039Y-4.061
X5.5531Y-1.3959
X5.5531Y-2.7285
X5.5531Y-4.061
X5.6024Y-1.3959
X5.6024Y-2.7285
X5.6024Y-4.061
X7.0768Y-1.3978
X7.0768Y-2.7285
X7.0768Y-4.0612
X7.126Y-1.3978
X7.126Y-2.7285
X7.126Y-4.0612
X7.1752Y-1.3978
X7.1752Y-2.7285
X7.1752Y-4.0612
X7.2244Y-1.3978
X7.2244Y-2.7285
X7.2244Y-4.0612
X7.4626Y-1.3978
X7.4626Y-2.7285
X7.4626Y-4.0612
X7.5118Y-1.3978
X7.5118Y-2.7285
X7.5118Y-4.0612
X7.561Y-1.3978
X7.561Y-2.7285
X7.561Y-4.0612
X7.6102Y-1.3978
X7.6102Y-2.7285
X7.6102Y-4.0612
T3
X5.9014Y-2.0671
X5.9014Y-3.3998
X5.9014Y-4.7323
X5.9016Y-1.7285
X5.9016Y-3.0612
X5.9016Y-4.3937
X5.9998Y-2.0671
X5.9998Y-3.3998
X5.9998Y-4.7323
X6.0Y-1.7285
X6.0Y-3.0612
X6.0Y-4.3937
X7.9092Y-2.0691
X7.9092Y-3.3998
X7.9092Y-4.7325
X7.9094Y-1.7305
X7.9094Y-3.0612
X7.9094Y-4.3939
X8.0077Y-2.0691
X8.0077Y-3.3998
X8.0077Y-4.7325
X8.0079Y-1.7305
X8.0079Y-3.0612
X8.0079Y-4.3939
T4
X4.6663Y-1.7285
X4.6663Y-2.0671
X4.6663Y-3.0612
X4.6663Y-3.3998
X4.6663Y-4.3937
X4.6663Y-4.7323
X4.7663Y-1.7285
X4.7663Y-2.0671
X4.7663Y-3.0612
X4.7663Y-3.3998
X4.7663Y-4.3937
X4.7663Y-4.7323
X6.6742Y-1.7305
X6.6742Y-2.0691
X6.6742Y-3.0612
X6.6742Y-3.3998
X6.6742Y-4.3939
X6.6742Y-4.7325
X6.7742Y-1.7305
X6.7742Y-2.0691
X6.7742Y-3.0612
X6.7742Y-3.3998
X6.7742Y-4.3939
X6.7742Y-4.7325
T6
X4.5669Y-1.4352
X4.5669Y-2.2955
X4.5669Y-2.7679
X4.5669Y-3.6282
X4.5669Y-4.1004
X4.5669Y-4.9606
X6.1024Y-1.4352
X6.1024Y-2.2955
X6.1024Y-2.7679
X6.1024Y-3.6282
X6.1024Y-4.1004
X6.1024Y-4.9606
X6.5748Y-1.4372
X6.5748Y-2.2974
X6.5748Y-2.7679
X6.5748Y-3.6282
X6.5748Y-4.1006
X6.5748Y-4.9608
X8.1102Y-1.4372
X8.1102Y-2.2974
X8.1102Y-2.7679
X8.1102Y-3.6282
X8.1102Y-4.1006
X8.1102Y-4.9608
T5
G00X5.1004Y-1.7128
M15
G01X5.1516Y-1.7128
M16
G05
G00X5.1004Y-1.8978
M15
G01X5.1516Y-1.8978
M16
G05
G00X5.1004Y-2.0829
M15
G01X5.1516Y-2.0829
M16
G05
G00X5.1004Y-3.0455
M15
G01X5.1516Y-3.0455
M16
G05
G00X5.1004Y-3.2305
M15
G01X5.1516Y-3.2305
M16
G05
G00X5.1004Y-3.4156
M15
G01X5.1516Y-3.4156
M16
G05
G00X5.1004Y-4.378
M15
G01X5.1516Y-4.378
M16
G05
G00X5.1004Y-4.563
M15
G01X5.1516Y-4.563
M16
G05
G00X5.1004Y-4.748
M15
G01X5.1516Y-4.748
M16
G05
G00X5.3091Y-1.7128
M15
G01X5.3602Y-1.7128
M16
G05
G00X5.3091Y-1.8978
M15
G01X5.3602Y-1.8978
M16
G05
G00X5.3091Y-2.0829
M15
G01X5.3602Y-2.0829
M16
G05
G00X5.3091Y-3.0455
M15
G01X5.3602Y-3.0455
M16
G05
G00X5.3091Y-3.2305
M15
G01X5.3602Y-3.2305
M16
G05
G00X5.3091Y-3.4156
M15
G01X5.3602Y-3.4156
M16
G05
G00X5.3091Y-4.378
M15
G01X5.3602Y-4.378
M16
G05
G00X5.3091Y-4.563
M15
G01X5.3602Y-4.563
M16
G05
G00X5.3091Y-4.748
M15
G01X5.3602Y-4.748
M16
G05
G00X5.5177Y-1.7128
M15
G01X5.5689Y-1.7128
M16
G05
G00X5.5177Y-1.8978
M15
G01X5.5689Y-1.8978
M16
G05
G00X5.5177Y-2.0829
M15
G01X5.5689Y-2.0829
M16
G05
G00X5.5177Y-3.0455
M15
G01X5.5689Y-3.0455
M16
G05
G00X5.5177Y-3.2305
M15
G01X5.5689Y-3.2305
M16
G05
G00X5.5177Y-3.4156
M15
G01X5.5689Y-3.4156
M16
G05
G00X5.5177Y-4.378
M15
G01X5.5689Y-4.378
M16
G05
G00X5.5177Y-4.563
M15
G01X5.5689Y-4.563
M16
G05
G00X5.5177Y-4.748
M15
G01X5.5689Y-4.748
M16
G05
G00X7.1083Y-1.7148
M15
G01X7.1594Y-1.7148
M16
G05
G00X7.1083Y-1.8998
M15
G01X7.1594Y-1.8998
M16
G05
G00X7.1083Y-2.0848
M15
G01X7.1594Y-2.0848
M16
G05
G00X7.1083Y-3.0455
M15
G01X7.1594Y-3.0455
M16
G05
G00X7.1083Y-3.2305
M15
G01X7.1594Y-3.2305
M16
G05
G00X7.1083Y-3.4156
M15
G01X7.1594Y-3.4156
M16
G05
G00X7.1083Y-4.3782
M15
G01X7.1594Y-4.3782
M16
G05
G00X7.1083Y-4.5632
M15
G01X7.1594Y-4.5632
M16
G05
G00X7.1083Y-4.7482
M15
G01X7.1594Y-4.7482
M16
G05
G00X7.3169Y-1.7148
M15
G01X7.3681Y-1.7148
M16
G05
G00X7.3169Y-1.8998
M15
G01X7.3681Y-1.8998
M16
G05
G00X7.3169Y-2.0848
M15
G01X7.3681Y-2.0848
M16
G05
G00X7.3169Y-3.0455
M15
G01X7.3681Y-3.0455
M16
G05
G00X7.3169Y-3.2305
M15
G01X7.3681Y-3.2305
M16
G05
G00X7.3169Y-3.4156
M15
G01X7.3681Y-3.4156
M16
G05
G00X7.3169Y-4.3782
M15
G01X7.3681Y-4.3782
M16
G05
G00X7.3169Y-4.5632
M15
G01X7.3681Y-4.5632
M16
G05
G00X7.3169Y-4.7482
M15
G01X7.3681Y-4.7482
M16
G05
G00X7.5256Y-1.7148
M15
G01X7.5768Y-1.7148
M16
G05
G00X7.5256Y-1.8998
M15
G01X7.5768Y-1.8998
M16
G05
G00X7.5256Y-2.0848
M15
G01X7.5768Y-2.0848
M16
G05
G00X7.5256Y-3.0455
M15
G01X7.5768Y-3.0455
M16
G05
G00X7.5256Y-3.2305
M15
G01X7.5768Y-3.2305
M16
G05
G00X7.5256Y-3.4156
M15
G01X7.5768Y-3.4156
M16
G05
G00X7.5256Y-4.3782
M15
G01X7.5768Y-4.3782
M16
G05
G00X7.5256Y-4.5632
M15
G01X7.5768Y-4.5632
M16
G05
G00X7.5256Y-4.7482
M15
G01X7.5768Y-4.7482
M16
G05
M30
