M48
; DRILL file {KiCad 8.0.3} date 2025-04-01T21:09:28+0300
; FORMAT={-:-/ absolute / inch / decimal}
; #@! TF.CreationDate,2025-04-01T21:09:28+03:00
; #@! TF.GenerationSoftware,Kicad,Pcbnew,8.0.3
; #@! TF.FileFunction,Plated,1,2,PTH
FMAT,2
INCH
; #@! TA.AperFunction,Plated,PTH,ViaDrill
T1C0.0118
; #@! TA.AperFunction,Plated,PTH,ComponentDrill
T2C0.0315
; #@! TA.AperFunction,Plated,PTH,ComponentDrill
T3C0.0354
; #@! TA.AperFunction,Plated,PTH,ComponentDrill
T4C0.0374
; #@! TA.AperFunction,Plated,PTH,ComponentDrill
T5C0.0394
; #@! TA.AperFunction,Plated,PTH,ComponentDrill
T6C0.1260
%
G90
G05
T1
X5.2309Y-2.038
X5.2323Y-3.3307
X5.2402Y-4.626
X5.6482Y-1.0655
X5.6496Y-2.3583
X5.6561Y-1.8214
X5.6575Y-3.1142
X5.6575Y-3.6535
X5.6654Y-4.4094
X5.7348Y-1.8214
X5.7362Y-3.1142
X5.7441Y-4.4094
X7.2047Y-2.0354
X7.2047Y-3.3307
X7.2047Y-4.626
X7.622Y-1.063
X7.622Y-2.3583
X7.622Y-3.6535
X7.6299Y-1.8189
X7.6299Y-3.1142
X7.6299Y-4.4094
X7.7087Y-1.8189
X7.7087Y-3.1142
X7.7087Y-4.4094
T2
X5.6878Y-1.5813
X5.6892Y-2.874
X5.6913Y-1.3529
X5.6927Y-2.6457
X5.6971Y-4.1693
X5.7006Y-3.9409
X5.7862Y-1.5813
X5.7876Y-2.874
X5.7897Y-1.3529
X5.7911Y-2.6457
X5.7955Y-4.1693
X5.799Y-3.9409
X7.6616Y-1.5787
X7.6616Y-2.874
X7.6616Y-4.1693
X7.6652Y-1.3504
X7.6652Y-2.6457
X7.6652Y-3.9409
X7.76Y-1.5787
X7.76Y-2.874
X7.76Y-4.1693
X7.7636Y-1.3504
X7.7636Y-2.6457
X7.7636Y-3.9409
T3
X4.9051Y-1.0262
X4.9065Y-2.3189
X4.9144Y-3.6142
X5.0051Y-1.0262
X5.0065Y-2.3189
X5.0144Y-3.6142
X5.4208Y-1.0262
X5.4222Y-2.3189
X5.4301Y-3.6142
X5.5208Y-1.0262
X5.5222Y-2.3189
X5.5301Y-3.6142
X6.8789Y-1.0236
X6.8789Y-2.3189
X6.8789Y-3.6142
X6.9789Y-1.0236
X6.9789Y-2.3189
X6.9789Y-3.6142
X7.3947Y-1.0236
X7.3947Y-2.3189
X7.3947Y-3.6142
X7.4947Y-1.0236
X7.4947Y-2.3189
X7.4947Y-3.6142
T4
X4.6758Y-2.0222
X4.6772Y-3.315
X4.685Y-4.6102
X4.7742Y-2.0222
X4.7756Y-3.315
X4.7835Y-4.6102
X4.8726Y-2.0222
X4.874Y-3.315
X4.8819Y-4.6102
X4.971Y-2.0222
X4.9724Y-3.315
X4.9803Y-4.6102
X6.6496Y-2.0197
X6.6496Y-3.315
X6.6496Y-4.6102
X6.748Y-2.0197
X6.748Y-3.315
X6.748Y-4.6102
X6.8465Y-2.0197
X6.8465Y-3.315
X6.8465Y-4.6102
X6.9449Y-2.0197
X6.9449Y-3.315
X6.9449Y-4.6102
T5
X4.3608Y-1.6049
X4.3608Y-1.7033
X4.3622Y-2.8976
X4.3622Y-2.9961
X4.3701Y-4.1929
X4.3701Y-4.2913
X5.6443Y-2.0222
X5.6457Y-3.315
X5.6535Y-4.6102
X5.7427Y-2.0222
X5.7441Y-3.315
X5.752Y-4.6102
X6.0616Y-1.6049
X6.0616Y-1.7033
X6.063Y-2.8976
X6.063Y-2.9961
X6.0709Y-4.1929
X6.0709Y-4.2913
X6.3346Y-1.6024
X6.3346Y-1.7008
X6.3346Y-2.8976
X6.3346Y-2.9961
X6.3346Y-4.1929
X6.3346Y-4.2913
X7.6181Y-2.0197
X7.6181Y-3.315
X7.6181Y-4.6102
X7.7165Y-2.0197
X7.7165Y-3.315
X7.7165Y-4.6102
X8.0354Y-1.6024
X8.0354Y-1.7008
X8.0354Y-2.8976
X8.0354Y-2.9961
X8.0354Y-4.1929
X8.0354Y-4.2913
T6
X4.4435Y-1.0793
X4.4435Y-1.9395
X4.4449Y-2.372
X4.4449Y-3.2323
X4.4528Y-3.6673
X4.4528Y-4.5276
X5.9789Y-1.0793
X5.9789Y-1.9395
X5.9803Y-2.372
X5.9803Y-3.2323
X5.9882Y-3.6673
X5.9882Y-4.5276
X6.4173Y-1.0768
X6.4173Y-1.937
X6.4173Y-2.372
X6.4173Y-3.2323
X6.4173Y-3.6673
X6.4173Y-4.5276
X7.9528Y-1.0768
X7.9528Y-1.937
X7.9528Y-2.372
X7.9528Y-3.2323
X7.9528Y-3.6673
X7.9528Y-4.5276
T5
G00X4.9769Y-1.3254
M15
G01X5.0281Y-1.3254
M16
G05
G00X4.9769Y-1.5104
M15
G01X5.0281Y-1.5104
M16
G05
G00X4.9769Y-1.6955
M15
G01X5.0281Y-1.6955
M16
G05
G00X4.9783Y-2.6181
M15
G01X5.0295Y-2.6181
M16
G05
G00X4.9783Y-2.8031
M15
G01X5.0295Y-2.8031
M16
G05
G00X4.9783Y-2.9882
M15
G01X5.0295Y-2.9882
M16
G05
G00X4.9862Y-3.9134
M15
G01X5.0374Y-3.9134
M16
G05
G00X4.9862Y-4.0984
M15
G01X5.0374Y-4.0984
M16
G05
G00X4.9862Y-4.2835
M15
G01X5.0374Y-4.2835
M16
G05
G00X5.1856Y-1.3254
M15
G01X5.2368Y-1.3254
M16
G05
G00X5.1856Y-1.5104
M15
G01X5.2368Y-1.5104
M16
G05
G00X5.1856Y-1.6955
M15
G01X5.2368Y-1.6955
M16
G05
G00X5.187Y-2.6181
M15
G01X5.2382Y-2.6181
M16
G05
G00X5.187Y-2.8031
M15
G01X5.2382Y-2.8031
M16
G05
G00X5.187Y-2.9882
M15
G01X5.2382Y-2.9882
M16
G05
G00X5.1949Y-3.9134
M15
G01X5.2461Y-3.9134
M16
G05
G00X5.1949Y-4.0984
M15
G01X5.2461Y-4.0984
M16
G05
G00X5.1949Y-4.2835
M15
G01X5.2461Y-4.2835
M16
G05
G00X5.3943Y-1.3254
M15
G01X5.4455Y-1.3254
M16
G05
G00X5.3943Y-1.5104
M15
G01X5.4455Y-1.5104
M16
G05
G00X5.3943Y-1.6955
M15
G01X5.4455Y-1.6955
M16
G05
G00X5.3957Y-2.6181
M15
G01X5.4469Y-2.6181
M16
G05
G00X5.3957Y-2.8031
M15
G01X5.4469Y-2.8031
M16
G05
G00X5.3957Y-2.9882
M15
G01X5.4469Y-2.9882
M16
G05
G00X5.4035Y-3.9134
M15
G01X5.4547Y-3.9134
M16
G05
G00X5.4035Y-4.0984
M15
G01X5.4547Y-4.0984
M16
G05
G00X5.4035Y-4.2835
M15
G01X5.4547Y-4.2835
M16
G05
G00X6.9508Y-1.3228
M15
G01X7.002Y-1.3228
M16
G05
G00X6.9508Y-1.5079
M15
G01X7.002Y-1.5079
M16
G05
G00X6.9508Y-1.6929
M15
G01X7.002Y-1.6929
M16
G05
G00X6.9508Y-2.6181
M15
G01X7.002Y-2.6181
M16
G05
G00X6.9508Y-2.8031
M15
G01X7.002Y-2.8031
M16
G05
G00X6.9508Y-2.9882
M15
G01X7.002Y-2.9882
M16
G05
G00X6.9508Y-3.9134
M15
G01X7.002Y-3.9134
M16
G05
G00X6.9508Y-4.0984
M15
G01X7.002Y-4.0984
M16
G05
G00X6.9508Y-4.2835
M15
G01X7.002Y-4.2835
M16
G05
G00X7.1594Y-1.3228
M15
G01X7.2106Y-1.3228
M16
G05
G00X7.1594Y-1.5079
M15
G01X7.2106Y-1.5079
M16
G05
G00X7.1594Y-1.6929
M15
G01X7.2106Y-1.6929
M16
G05
G00X7.1594Y-2.6181
M15
G01X7.2106Y-2.6181
M16
G05
G00X7.1594Y-2.8031
M15
G01X7.2106Y-2.8031
M16
G05
G00X7.1594Y-2.9882
M15
G01X7.2106Y-2.9882
M16
G05
G00X7.1594Y-3.9134
M15
G01X7.2106Y-3.9134
M16
G05
G00X7.1594Y-4.0984
M15
G01X7.2106Y-4.0984
M16
G05
G00X7.1594Y-4.2835
M15
G01X7.2106Y-4.2835
M16
G05
G00X7.3681Y-1.3228
M15
G01X7.4193Y-1.3228
M16
G05
G00X7.3681Y-1.5079
M15
G01X7.4193Y-1.5079
M16
G05
G00X7.3681Y-1.6929
M15
G01X7.4193Y-1.6929
M16
G05
G00X7.3681Y-2.6181
M15
G01X7.4193Y-2.6181
M16
G05
G00X7.3681Y-2.8031
M15
G01X7.4193Y-2.8031
M16
G05
G00X7.3681Y-2.9882
M15
G01X7.4193Y-2.9882
M16
G05
G00X7.3681Y-3.9134
M15
G01X7.4193Y-3.9134
M16
G05
G00X7.3681Y-4.0984
M15
G01X7.4193Y-4.0984
M16
G05
G00X7.3681Y-4.2835
M15
G01X7.4193Y-4.2835
M16
G05
M30
