%TF.GenerationSoftware,KiCad,Pcbnew,8.0.3*%
%TF.CreationDate,2025-04-01T21:09:26+03:00*%
%TF.ProjectId,TMF,544d462e-6b69-4636-9164-5f7063625858,rev?*%
%TF.SameCoordinates,Original*%
%TF.FileFunction,Paste,Top*%
%TF.FilePolarity,Positive*%
%FSLAX46Y46*%
G04 Gerber Fmt 4.6, Leading zero omitted, Abs format (unit mm)*
G04 Created by KiCad (PCBNEW 8.0.3) date 2025-04-01 21:09:26*
%MOMM*%
%LPD*%
G01*
G04 APERTURE LIST*
G04 Aperture macros list*
%AMRoundRect*
0 Rectangle with rounded corners*
0 $1 Rounding radius*
0 $2 $3 $4 $5 $6 $7 $8 $9 X,Y pos of 4 corners*
0 Add a 4 corners polygon primitive as box body*
4,1,4,$2,$3,$4,$5,$6,$7,$8,$9,$2,$3,0*
0 Add four circle primitives for the rounded corners*
1,1,$1+$1,$2,$3*
1,1,$1+$1,$4,$5*
1,1,$1+$1,$6,$7*
1,1,$1+$1,$8,$9*
0 Add four rect primitives between the rounded corners*
20,1,$1+$1,$2,$3,$4,$5,0*
20,1,$1+$1,$4,$5,$6,$7,0*
20,1,$1+$1,$6,$7,$8,$9,0*
20,1,$1+$1,$8,$9,$2,$3,0*%
G04 Aperture macros list end*
%ADD10RoundRect,0.250000X0.450000X-0.350000X0.450000X0.350000X-0.450000X0.350000X-0.450000X-0.350000X0*%
%ADD11RoundRect,0.250000X0.350000X0.450000X-0.350000X0.450000X-0.350000X-0.450000X0.350000X-0.450000X0*%
%ADD12RoundRect,0.250000X-0.350000X-0.450000X0.350000X-0.450000X0.350000X0.450000X-0.350000X0.450000X0*%
G04 APERTURE END LIST*
D10*
%TO.C,R4*%
X193600000Y-25000000D03*
X193600000Y-27000000D03*
%TD*%
%TO.C,R3*%
X171500000Y-25000000D03*
X171500000Y-27000000D03*
%TD*%
D11*
%TO.C,R2*%
X193800000Y-46200000D03*
X195800000Y-46200000D03*
%TD*%
D12*
%TO.C,R1*%
X195800000Y-44100000D03*
X193800000Y-44100000D03*
%TD*%
D10*
%TO.C,R4*%
X143464466Y-25064466D03*
X143464466Y-27064466D03*
%TD*%
%TO.C,R3*%
X121364466Y-25064466D03*
X121364466Y-27064466D03*
%TD*%
D11*
%TO.C,R2*%
X143664466Y-46264466D03*
X145664466Y-46264466D03*
%TD*%
D12*
%TO.C,R1*%
X145664466Y-44164466D03*
X143664466Y-44164466D03*
%TD*%
D10*
%TO.C,R4*%
X143500000Y-59900000D03*
X143500000Y-57900000D03*
%TD*%
%TO.C,R3*%
X121400000Y-59900000D03*
X121400000Y-57900000D03*
%TD*%
D11*
%TO.C,R2*%
X145700000Y-79100000D03*
X143700000Y-79100000D03*
%TD*%
D12*
%TO.C,R1*%
X143700000Y-77000000D03*
X145700000Y-77000000D03*
%TD*%
D10*
%TO.C,R4*%
X193600000Y-59900000D03*
X193600000Y-57900000D03*
%TD*%
%TO.C,R3*%
X171500000Y-59900000D03*
X171500000Y-57900000D03*
%TD*%
D11*
%TO.C,R2*%
X195800000Y-79100000D03*
X193800000Y-79100000D03*
%TD*%
D12*
%TO.C,R1*%
X193800000Y-77000000D03*
X195800000Y-77000000D03*
%TD*%
D10*
%TO.C,R4*%
X193600000Y-92800000D03*
X193600000Y-90800000D03*
%TD*%
%TO.C,R3*%
X171500000Y-92800000D03*
X171500000Y-90800000D03*
%TD*%
D11*
%TO.C,R2*%
X195800000Y-112000000D03*
X193800000Y-112000000D03*
%TD*%
D12*
%TO.C,R1*%
X193800000Y-109900000D03*
X195800000Y-109900000D03*
%TD*%
%TO.C,R1*%
X145900000Y-109900000D03*
X143900000Y-109900000D03*
%TD*%
D10*
%TO.C,R4*%
X143700000Y-90800000D03*
X143700000Y-92800000D03*
%TD*%
%TO.C,R3*%
X121600000Y-90800000D03*
X121600000Y-92800000D03*
%TD*%
D11*
%TO.C,R2*%
X143900000Y-112000000D03*
X145900000Y-112000000D03*
%TD*%
M02*
