M48
; DRILL file {KiCad 8.0.3} date 2025-01-13T20:47:09+0200
; FORMAT={-:-/ absolute / inch / decimal}
; #@! TF.CreationDate,2025-01-13T20:47:09+02:00
; #@! TF.GenerationSoftware,Kicad,Pcbnew,8.0.3
; #@! TF.FileFunction,Plated,1,2,PTH
FMAT,2
INCH
; #@! TA.AperFunction,Plated,PTH,ComponentDrill
T1C0.0236
; #@! TA.AperFunction,Plated,PTH,ComponentDrill
T2C0.0315
; #@! TA.AperFunction,Plated,PTH,ComponentDrill
T3C0.0354
; #@! TA.AperFunction,Plated,PTH,ComponentDrill
T4C0.0394
; #@! TA.AperFunction,Plated,PTH,ComponentDrill
T5C0.1260
%
G90
G05
T1
X5.0689Y-1.3959
X5.0689Y-2.7285
X5.0689Y-4.061
X5.1181Y-1.3959
X5.1181Y-2.7285
X5.1181Y-4.061
X5.1673Y-1.3959
X5.1673Y-2.7285
X5.1673Y-4.061
X5.2165Y-1.3959
X5.2165Y-2.7285
X5.2165Y-4.061
X5.4547Y-1.3959
X5.4547Y-2.7285
X5.4547Y-4.061
X5.5039Y-1.3959
X5.5039Y-2.7285
X5.5039Y-4.061
X5.5531Y-1.3959
X5.5531Y-2.7285
X5.5531Y-4.061
X5.6024Y-1.3959
X5.6024Y-2.7285
X5.6024Y-4.061
X7.0768Y-1.3978
X7.0768Y-2.7285
X7.0768Y-4.0612
X7.126Y-1.3978
X7.126Y-2.7285
X7.126Y-4.0612
X7.1752Y-1.3978
X7.1752Y-2.7285
X7.1752Y-4.0612
X7.2244Y-1.3978
X7.2244Y-2.7285
X7.2244Y-4.0612
X7.4626Y-1.3978
X7.4626Y-2.7285
X7.4626Y-4.0612
X7.5118Y-1.3978
X7.5118Y-2.7285
X7.5118Y-4.0612
X7.561Y-1.3978
X7.561Y-2.7285
X7.561Y-4.0612
X7.6102Y-1.3978
X7.6102Y-2.7285
X7.6102Y-4.0612
T2
X5.9014Y-2.0671
X5.9014Y-3.3998
X5.9014Y-4.7323
X5.9016Y-1.7285
X5.9016Y-3.0612
X5.9016Y-4.3937
X5.9998Y-2.0671
X5.9998Y-3.3998
X5.9998Y-4.7323
X6.0Y-1.7285
X6.0Y-3.0612
X6.0Y-4.3937
X7.9092Y-2.0691
X7.9092Y-3.3998
X7.9092Y-4.7325
X7.9094Y-1.7305
X7.9094Y-3.0612
X7.9094Y-4.3939
X8.0077Y-2.0691
X8.0077Y-3.3998
X8.0077Y-4.7325
X8.0079Y-1.7305
X8.0079Y-3.0612
X8.0079Y-4.3939
T3
X4.6663Y-1.7285
X4.6663Y-2.0671
X4.6663Y-3.0612
X4.6663Y-3.3998
X4.6663Y-4.3937
X4.6663Y-4.7323
X4.7663Y-1.7285
X4.7663Y-2.0671
X4.7663Y-3.0612
X4.7663Y-3.3998
X4.7663Y-4.3937
X4.7663Y-4.7323
X6.6742Y-1.7305
X6.6742Y-2.0691
X6.6742Y-3.0612
X6.6742Y-3.3998
X6.6742Y-4.3939
X6.6742Y-4.7325
X6.7742Y-1.7305
X6.7742Y-2.0691
X6.7742Y-3.0612
X6.7742Y-3.3998
X6.7742Y-4.3939
X6.7742Y-4.7325
T5
X4.5669Y-1.4352
X4.5669Y-2.2955
X4.5669Y-2.7679
X4.5669Y-3.6282
X4.5669Y-4.1004
X4.5669Y-4.9606
X6.1024Y-1.4352
X6.1024Y-2.2955
X6.1024Y-2.7679
X6.1024Y-3.6282
X6.1024Y-4.1004
X6.1024Y-4.9606
X6.5748Y-1.4372
X6.5748Y-2.2974
X6.5748Y-2.7679
X6.5748Y-3.6282
X6.5748Y-4.1006
X6.5748Y-4.9608
X8.1102Y-1.4372
X8.1102Y-2.2974
X8.1102Y-2.7679
X8.1102Y-3.6282
X8.1102Y-4.1006
X8.1102Y-4.9608
T4
G00X5.1004Y-1.7128
M15
G01X5.1516Y-1.7128
M16
G05
G00X5.1004Y-1.8978
M15
G01X5.1516Y-1.8978
M16
G05
G00X5.1004Y-2.0829
M15
G01X5.1516Y-2.0829
M16
G05
G00X5.1004Y-3.0455
M15
G01X5.1516Y-3.0455
M16
G05
G00X5.1004Y-3.2305
M15
G01X5.1516Y-3.2305
M16
G05
G00X5.1004Y-3.4156
M15
G01X5.1516Y-3.4156
M16
G05
G00X5.1004Y-4.378
M15
G01X5.1516Y-4.378
M16
G05
G00X5.1004Y-4.563
M15
G01X5.1516Y-4.563
M16
G05
G00X5.1004Y-4.748
M15
G01X5.1516Y-4.748
M16
G05
G00X5.3091Y-1.7128
M15
G01X5.3602Y-1.7128
M16
G05
G00X5.3091Y-1.8978
M15
G01X5.3602Y-1.8978
M16
G05
G00X5.3091Y-2.0829
M15
G01X5.3602Y-2.0829
M16
G05
G00X5.3091Y-3.0455
M15
G01X5.3602Y-3.0455
M16
G05
G00X5.3091Y-3.2305
M15
G01X5.3602Y-3.2305
M16
G05
G00X5.3091Y-3.4156
M15
G01X5.3602Y-3.4156
M16
G05
G00X5.3091Y-4.378
M15
G01X5.3602Y-4.378
M16
G05
G00X5.3091Y-4.563
M15
G01X5.3602Y-4.563
M16
G05
G00X5.3091Y-4.748
M15
G01X5.3602Y-4.748
M16
G05
G00X5.5177Y-1.7128
M15
G01X5.5689Y-1.7128
M16
G05
G00X5.5177Y-1.8978
M15
G01X5.5689Y-1.8978
M16
G05
G00X5.5177Y-2.0829
M15
G01X5.5689Y-2.0829
M16
G05
G00X5.5177Y-3.0455
M15
G01X5.5689Y-3.0455
M16
G05
G00X5.5177Y-3.2305
M15
G01X5.5689Y-3.2305
M16
G05
G00X5.5177Y-3.4156
M15
G01X5.5689Y-3.4156
M16
G05
G00X5.5177Y-4.378
M15
G01X5.5689Y-4.378
M16
G05
G00X5.5177Y-4.563
M15
G01X5.5689Y-4.563
M16
G05
G00X5.5177Y-4.748
M15
G01X5.5689Y-4.748
M16
G05
G00X7.1083Y-1.7148
M15
G01X7.1594Y-1.7148
M16
G05
G00X7.1083Y-1.8998
M15
G01X7.1594Y-1.8998
M16
G05
G00X7.1083Y-2.0848
M15
G01X7.1594Y-2.0848
M16
G05
G00X7.1083Y-3.0455
M15
G01X7.1594Y-3.0455
M16
G05
G00X7.1083Y-3.2305
M15
G01X7.1594Y-3.2305
M16
G05
G00X7.1083Y-3.4156
M15
G01X7.1594Y-3.4156
M16
G05
G00X7.1083Y-4.3782
M15
G01X7.1594Y-4.3782
M16
G05
G00X7.1083Y-4.5632
M15
G01X7.1594Y-4.5632
M16
G05
G00X7.1083Y-4.7482
M15
G01X7.1594Y-4.7482
M16
G05
G00X7.3169Y-1.7148
M15
G01X7.3681Y-1.7148
M16
G05
G00X7.3169Y-1.8998
M15
G01X7.3681Y-1.8998
M16
G05
G00X7.3169Y-2.0848
M15
G01X7.3681Y-2.0848
M16
G05
G00X7.3169Y-3.0455
M15
G01X7.3681Y-3.0455
M16
G05
G00X7.3169Y-3.2305
M15
G01X7.3681Y-3.2305
M16
G05
G00X7.3169Y-3.4156
M15
G01X7.3681Y-3.4156
M16
G05
G00X7.3169Y-4.3782
M15
G01X7.3681Y-4.3782
M16
G05
G00X7.3169Y-4.5632
M15
G01X7.3681Y-4.5632
M16
G05
G00X7.3169Y-4.7482
M15
G01X7.3681Y-4.7482
M16
G05
G00X7.5256Y-1.7148
M15
G01X7.5768Y-1.7148
M16
G05
G00X7.5256Y-1.8998
M15
G01X7.5768Y-1.8998
M16
G05
G00X7.5256Y-2.0848
M15
G01X7.5768Y-2.0848
M16
G05
G00X7.5256Y-3.0455
M15
G01X7.5768Y-3.0455
M16
G05
G00X7.5256Y-3.2305
M15
G01X7.5768Y-3.2305
M16
G05
G00X7.5256Y-3.4156
M15
G01X7.5768Y-3.4156
M16
G05
G00X7.5256Y-4.3782
M15
G01X7.5768Y-4.3782
M16
G05
G00X7.5256Y-4.5632
M15
G01X7.5768Y-4.5632
M16
G05
G00X7.5256Y-4.7482
M15
G01X7.5768Y-4.7482
M16
G05
M30
